<svg width="240" height="240" viewBox="0 0 240 240" fill="none" xmlns="http://www.w3.org/2000/svg">
<mask id="mask0_337_1390" style="mask-type:alpha" maskUnits="userSpaceOnUse" x="0" y="0" width="240" height="240">
<rect width="240" height="240" fill="#D9D9D9"/>
</mask>
<g mask="url(#mask0_337_1390)">
<path d="M110.5 172.751H131V110.001H110.5V172.751ZM120.018 95.251C123.423 95.251 126.271 94.1251 128.562 91.8735C130.854 89.6201 132 86.8293 132 83.501C132 79.8426 130.851 76.8868 128.553 74.6335C126.253 72.3785 123.403 71.251 120.005 71.251C116.418 71.251 113.521 72.3785 111.312 74.6335C109.104 76.8868 108 79.801 108 83.376C108 86.8093 109.152 89.6468 111.455 91.8885C113.758 94.1301 116.613 95.251 120.018 95.251ZM120.1 226.251C105.288 226.251 91.445 223.494 78.57 217.981C65.695 212.466 54.43 204.881 44.775 195.226C35.12 185.571 27.535 174.311 22.02 161.446C16.5067 148.581 13.75 134.736 13.75 119.911C13.75 105.084 16.5067 91.2268 22.02 78.3385C27.535 65.4518 35.1067 54.2176 44.735 44.636C54.3633 35.056 65.6158 27.4718 78.4925 21.8835C91.3708 16.2952 105.23 13.501 120.07 13.501C134.91 13.501 148.784 16.2885 161.693 21.8635C174.599 27.4401 185.837 35.0076 195.405 44.566C204.973 54.1243 212.548 65.3635 218.128 78.2835C223.709 91.2051 226.5 105.088 226.5 119.933C226.5 134.768 223.706 148.623 218.118 161.496C212.529 174.369 204.945 185.608 195.365 195.211C185.783 204.814 174.548 212.388 161.658 217.933C148.766 223.478 134.913 226.251 120.1 226.251Z" fill="#1C1B1F" fill-opacity="0.15"/>
</g>
</svg>
