<svg width="240" height="240" viewBox="0 0 240 240" fill="none" xmlns="http://www.w3.org/2000/svg">
<mask id="mask0_337_1393" style="mask-type:alpha" maskUnits="userSpaceOnUse" x="0" y="0" width="240" height="240">
<rect width="240" height="240" fill="#D9D9D9"/>
</mask>
<g mask="url(#mask0_337_1393)">
<path d="M57.25 226.251C50.7417 226.251 45.1983 223.962 40.62 219.383C36.04 214.803 33.75 209.259 33.75 202.751V37.251C33.75 30.6743 36.04 25.0718 40.62 20.4435C45.1983 15.8151 50.7417 13.501 57.25 13.501H182.75C189.327 13.501 194.929 15.8151 199.557 20.4435C204.186 25.0718 206.5 30.6743 206.5 37.251V202.751C206.5 209.259 204.186 214.803 199.557 219.383C194.929 223.962 189.327 226.251 182.75 226.251H57.25ZM122 103.751L146.25 89.751L170.5 103.751V37.251H122V103.751Z" fill="#1C1B1F" fill-opacity="0.15"/>
</g>
</svg>
