<svg width="248" height="69" viewBox="0 0 248 69" fill="none" xmlns="http://www.w3.org/2000/svg">
<path d="M6.42269 12.7976H7.41103V18.2017C7.41103 18.7596 7.27952 19.2578 7.01649 19.6961C6.75612 20.1319 6.38815 20.4759 5.91257 20.7283C5.43699 20.9781 4.87905 21.1029 4.23875 21.1029C3.59845 21.1029 3.04051 20.9781 2.56494 20.7283C2.08936 20.4759 1.72006 20.1319 1.45703 19.6961C1.19666 19.2578 1.06647 18.7596 1.06647 18.2017V12.7976H2.05482V18.122C2.05482 18.5205 2.1425 18.8752 2.31785 19.186C2.4932 19.4942 2.74295 19.7373 3.06708 19.9153C3.39388 20.0907 3.78443 20.1784 4.23875 20.1784C4.69308 20.1784 5.08363 20.0907 5.41042 19.9153C5.73722 19.7373 5.98696 19.4942 6.15966 19.186C6.33501 18.8752 6.42269 18.5205 6.42269 18.122V12.7976ZM13.8483 14.8381C13.8004 14.4342 13.6065 14.1207 13.2664 13.8976C12.9263 13.6744 12.5092 13.5628 12.015 13.5628C11.6537 13.5628 11.3375 13.6213 11.0665 13.7382C10.7982 13.8551 10.5883 14.0158 10.4369 14.2204C10.2881 14.4249 10.2137 14.6574 10.2137 14.9178C10.2137 15.1357 10.2655 15.323 10.3691 15.4797C10.4754 15.6338 10.6109 15.7627 10.7756 15.8663C10.9403 15.9672 11.113 16.0509 11.2937 16.1174C11.4744 16.1811 11.6404 16.2329 11.7918 16.2728L12.6208 16.496C12.8333 16.5518 13.0698 16.6288 13.3302 16.7271C13.5932 16.8254 13.8443 16.9596 14.0834 17.1296C14.3252 17.297 14.5244 17.5122 14.6812 17.7752C14.8379 18.0383 14.9163 18.3611 14.9163 18.7437C14.9163 19.1847 14.8007 19.5832 14.5696 19.9392C14.3411 20.2953 14.0063 20.5782 13.5653 20.7881C13.1269 20.998 12.5942 21.1029 11.9672 21.1029C11.3827 21.1029 10.8766 21.0086 10.4488 20.82C10.0237 20.6314 9.68895 20.3683 9.44452 20.0309C9.20275 19.6935 9.06592 19.3016 9.03404 18.8552H10.0543C10.0808 19.1634 10.1845 19.4185 10.3651 19.6204C10.5484 19.8197 10.7796 19.9685 11.0586 20.0668C11.3402 20.1624 11.6431 20.2102 11.9672 20.2102C12.3445 20.2102 12.6832 20.1491 12.9834 20.0269C13.2837 19.902 13.5215 19.7294 13.6968 19.5088C13.8722 19.2857 13.9598 19.0253 13.9598 18.7277C13.9598 18.4567 13.8841 18.2362 13.7327 18.0662C13.5812 17.8961 13.382 17.758 13.1349 17.6517C12.8878 17.5454 12.6208 17.4524 12.3338 17.3727L11.3296 17.0858C10.6919 16.9025 10.1871 16.6408 9.81515 16.3007C9.44319 15.9606 9.25721 15.5156 9.25721 14.9656C9.25721 14.5086 9.38076 14.1101 9.62784 13.77C9.87759 13.4273 10.2124 13.1616 10.6321 12.973C11.0546 12.7817 11.5262 12.686 12.0469 12.686C12.573 12.686 13.0406 12.7804 13.4497 12.969C13.8589 13.155 14.183 13.41 14.4221 13.7342C14.6639 14.0583 14.7914 14.4263 14.8047 14.8381H13.8483ZM16.5413 20.9595V12.7976H19.3948C19.9633 12.7976 20.4323 12.8959 20.8016 13.0925C21.1709 13.2865 21.4458 13.5482 21.6265 13.8776C21.8072 14.2044 21.8975 14.5671 21.8975 14.9656C21.8975 15.3163 21.8351 15.6059 21.7102 15.8344C21.588 16.0629 21.4259 16.2436 21.224 16.3764C21.0247 16.5092 20.8082 16.6076 20.5744 16.6713V16.751C20.8241 16.767 21.0752 16.8546 21.3276 17.014C21.58 17.1735 21.7912 17.4019 21.9613 17.6995C22.1313 17.9971 22.2163 18.3611 22.2163 18.7915C22.2163 19.2006 22.1233 19.5686 21.9374 19.8954C21.7514 20.2222 21.4578 20.4812 21.0566 20.6725C20.6554 20.8638 20.1334 20.9595 19.4904 20.9595H16.5413ZM17.5296 20.0827H19.4904C20.136 20.0827 20.5943 19.9578 20.8653 19.7081C21.139 19.4557 21.2758 19.1502 21.2758 18.7915C21.2758 18.5152 21.2054 18.2601 21.0646 18.0263C20.9238 17.7898 20.7232 17.6012 20.4628 17.4604C20.2024 17.3169 19.8942 17.2452 19.5382 17.2452H17.5296V20.0827ZM17.5296 16.3844H19.3629C19.6604 16.3844 19.9288 16.3259 20.1679 16.209C20.4097 16.0921 20.601 15.9274 20.7418 15.7148C20.8853 15.5023 20.957 15.2526 20.957 14.9656C20.957 14.6069 20.8321 14.3027 20.5824 14.053C20.3326 13.8006 19.9368 13.6744 19.3948 13.6744H17.5296V16.3844ZM27.2198 16.4402V17.3169H23.649V16.4402H27.2198ZM29.337 20.9595H28.3009L31.2978 12.7976H32.318L35.3149 20.9595H34.2788L31.8398 14.0889H31.776L29.337 20.9595ZM29.7196 17.7713H33.8962V18.648H29.7196V17.7713Z" fill="black"/>
<path fill-rule="evenodd" clip-rule="evenodd" d="M137.225 26.0058L137.225 20.0804L131.958 20.0804L131.958 26.0058L137.225 26.0058ZM132.616 25.3475L132.616 20.7388L136.566 20.7388L136.566 25.3475L132.616 25.3475Z" fill="black"/>
<path fill-rule="evenodd" clip-rule="evenodd" d="M137.225 12.8382L137.225 6.91278L131.958 6.91278L131.958 12.8382L137.225 12.8382ZM132.616 12.1798L132.616 7.57116L136.566 7.57116L136.566 12.1798L132.616 12.1798Z" fill="black"/>
<path fill-rule="evenodd" clip-rule="evenodd" d="M119.778 30.2853L147.43 30.2853L147.43 2.6333L119.778 2.6333L119.778 30.2853ZM120.436 18.7636L125.374 18.7637L125.374 16.7885L138.542 16.7885L138.542 18.7637L143.15 18.7637L143.15 16.7885L146.771 16.7885L146.771 29.6269L120.436 29.6269L120.436 18.7636ZM146.771 16.1301L146.771 3.29168L120.436 3.29168L120.436 18.1053L124.716 18.1053L124.716 16.1301L139.2 16.1301L139.2 18.1053L142.492 18.1053L142.492 16.1301L146.771 16.1301Z" fill="black"/>
<path d="M119.777 0L119.777 32.9191L93.4421 32.9191L67.1068 25.6769L67.1068 7.2422L93.4421 -1.15115e-06L119.777 0Z" fill="black"/>
<rect x="65.79" y="13.1675" width="6.58382" height="22.385" transform="rotate(90 65.79 13.1675)" fill="black"/>
<path d="M154.758 16.0278C154.519 16.0278 154.326 16.2211 154.326 16.4595C154.326 16.6979 154.519 16.8911 154.758 16.8911V16.0278ZM225.546 16.4595L221.23 13.9674V18.9515L225.546 16.4595ZM154.758 16.8911H221.661V16.0278H154.758V16.8911Z" fill="black"/>
<rect x="248.149" y="0.560821" width="31.7972" height="15.5869" transform="rotate(90 248.149 0.560821)" stroke="black" stroke-width="0.623474"/>
<rect x="245.655" y="3.05496" width="26.8094" height="10.5991" transform="rotate(90 245.655 3.05496)" stroke="black" stroke-width="0.623474"/>
<path d="M240.355 3.3667L240.355 29.5526" stroke="black" stroke-width="0.623474"/>
<path d="M240.355 5.86035L240.355 9.6012L239.109 9.6012L239.109 5.86035L240.355 5.86035Z" fill="black"/>
<path d="M240.355 11.6797L240.355 15.4205L239.109 15.4205L239.109 11.6797L240.355 11.6797Z" fill="black"/>
<path d="M240.355 17.4985L240.355 21.2394L239.109 21.2394L239.109 17.4985L240.355 17.4985Z" fill="black"/>
<path d="M240.355 23.3179L240.355 27.0587L239.109 27.0587L239.109 23.3179L240.355 23.3179Z" fill="black"/>
</svg>
