<svg width="247" height="26" viewBox="0 0 247 26" fill="none" xmlns="http://www.w3.org/2000/svg">
<path d="M7.14925 9.4402H8.1376V14.8442C8.1376 15.4022 8.00608 15.9003 7.74305 16.3387C7.48268 16.7744 7.11471 17.1185 6.63913 17.3709C6.16356 17.6206 5.60562 17.7455 4.96532 17.7455C4.32501 17.7455 3.76708 17.6206 3.2915 17.3709C2.81592 17.1185 2.44662 16.7744 2.18359 16.3387C1.92322 15.9003 1.79304 15.4022 1.79304 14.8442V9.4402H2.78138V14.7645C2.78138 15.1631 2.86906 15.5178 3.04441 15.8286C3.21977 16.1368 3.46951 16.3799 3.79364 16.5579C4.12044 16.7333 4.51099 16.8209 4.96532 16.8209C5.41964 16.8209 5.81019 16.7333 6.13699 16.5579C6.46378 16.3799 6.71352 16.1368 6.88622 15.8286C7.06157 15.5178 7.14925 15.1631 7.14925 14.7645V9.4402ZM14.5748 11.4807C14.527 11.0768 14.333 10.7633 13.993 10.5401C13.6529 10.317 13.2358 10.2054 12.7416 10.2054C12.3803 10.2054 12.0641 10.2638 11.7931 10.3807C11.5247 10.4976 11.3149 10.6584 11.1634 10.8629C11.0146 11.0675 10.9402 11.3 10.9402 11.5604C10.9402 11.7782 10.992 11.9655 11.0957 12.1223C11.2019 12.2764 11.3374 12.4053 11.5022 12.5089C11.6669 12.6098 11.8396 12.6935 12.0203 12.7599C12.2009 12.8237 12.367 12.8755 12.5184 12.9154L13.3473 13.1385C13.5599 13.1943 13.7964 13.2714 14.0567 13.3697C14.3198 13.468 14.5708 13.6022 14.8099 13.7722C15.0517 13.9396 15.251 14.1548 15.4077 14.4178C15.5645 14.6808 15.6429 15.0037 15.6429 15.3862C15.6429 15.8273 15.5273 16.2258 15.2961 16.5818C15.0677 16.9378 14.7329 17.2208 14.2919 17.4307C13.8535 17.6406 13.3208 17.7455 12.6938 17.7455C12.1093 17.7455 11.6031 17.6512 11.1754 17.4626C10.7503 17.2739 10.4155 17.0109 10.1711 16.6735C9.92931 16.3361 9.79248 15.9442 9.7606 15.4978H10.7808C10.8074 15.806 10.911 16.0611 11.0917 16.263C11.275 16.4623 11.5062 16.611 11.7851 16.7093C12.0667 16.805 12.3696 16.8528 12.6938 16.8528C13.071 16.8528 13.4098 16.7917 13.71 16.6695C14.0102 16.5446 14.248 16.3719 14.4234 16.1514C14.5987 15.9282 14.6864 15.6679 14.6864 15.3703C14.6864 15.0993 14.6107 14.8788 14.4592 14.7087C14.3078 14.5387 14.1085 14.4005 13.8614 14.2943C13.6144 14.188 13.3473 14.095 13.0604 14.0153L12.0561 13.7284C11.4185 13.545 10.9137 13.2833 10.5417 12.9433C10.1698 12.6032 9.98378 12.1582 9.98378 11.6082C9.98378 11.1512 10.1073 10.7527 10.3544 10.4126C10.6041 10.0699 10.9389 9.80419 11.3587 9.61556C11.7811 9.42426 12.2527 9.32862 12.7735 9.32862C13.2995 9.32862 13.7671 9.42294 14.1763 9.61157C14.5854 9.79755 14.9096 10.0526 15.1487 10.3767C15.3905 10.7009 15.518 11.0689 15.5313 11.4807H14.5748ZM17.2679 17.6021V9.4402H20.1213C20.6899 9.4402 21.1588 9.53851 21.5281 9.73512C21.8974 9.92907 22.1724 10.1908 22.3531 10.5202C22.5337 10.847 22.6241 11.2097 22.6241 11.6082C22.6241 11.9589 22.5616 12.2485 22.4368 12.477C22.3146 12.7055 22.1525 12.8861 21.9506 13.019C21.7513 13.1518 21.5348 13.2501 21.301 13.3139V13.3936C21.5507 13.4095 21.8018 13.4972 22.0542 13.6566C22.3066 13.816 22.5178 14.0445 22.6878 14.3421C22.8579 14.6397 22.9429 15.0037 22.9429 15.4341C22.9429 15.8432 22.8499 16.2112 22.6639 16.538C22.4779 16.8648 22.1844 17.1238 21.7832 17.3151C21.382 17.5064 20.8599 17.6021 20.217 17.6021H17.2679ZM18.2562 16.7253H20.217C20.8626 16.7253 21.3209 16.6004 21.5919 16.3507C21.8655 16.0983 22.0024 15.7927 22.0024 15.4341C22.0024 15.1577 21.932 14.9027 21.7912 14.6689C21.6503 14.4324 21.4497 14.2438 21.1894 14.103C20.929 13.9595 20.6208 13.8878 20.2648 13.8878H18.2562V16.7253ZM18.2562 13.027H20.0894C20.387 13.027 20.6553 12.9685 20.8945 12.8516C21.1362 12.7347 21.3275 12.57 21.4683 12.3574C21.6118 12.1449 21.6835 11.8951 21.6835 11.6082C21.6835 11.2495 21.5587 10.9453 21.3089 10.6956C21.0592 10.4432 20.6633 10.317 20.1213 10.317H18.2562V13.027ZM27.9464 13.0827V13.9595H24.3756V13.0827H27.9464ZM29.7288 17.6021V9.4402H32.5823C33.1509 9.4402 33.6198 9.53851 33.9891 9.73512C34.3584 9.92907 34.6334 10.1908 34.814 10.5202C34.9947 10.847 35.085 11.2097 35.085 11.6082C35.085 11.9589 35.0226 12.2485 34.8977 12.477C34.7755 12.7055 34.6134 12.8861 34.4115 13.019C34.2123 13.1518 33.9957 13.2501 33.7619 13.3139V13.3936C34.0117 13.4095 34.2627 13.4972 34.5151 13.6566C34.7675 13.816 34.9788 14.0445 35.1488 14.3421C35.3188 14.6397 35.4039 15.0037 35.4039 15.4341C35.4039 15.8432 35.3109 16.2112 35.1249 16.538C34.9389 16.8648 34.6453 17.1238 34.2441 17.3151C33.843 17.5064 33.3209 17.6021 32.6779 17.6021H29.7288ZM30.7172 16.7253H32.6779C33.3235 16.7253 33.7819 16.6004 34.0529 16.3507C34.3265 16.0983 34.4633 15.7927 34.4633 15.4341C34.4633 15.1577 34.3929 14.9027 34.2521 14.6689C34.1113 14.4324 33.9107 14.2438 33.6503 14.103C33.39 13.9595 33.0818 13.8878 32.7258 13.8878H30.7172V16.7253ZM30.7172 13.027H32.5504C32.848 13.027 33.1163 12.9685 33.3554 12.8516C33.5972 12.7347 33.7885 12.57 33.9293 12.3574C34.0728 12.1449 34.1445 11.8951 34.1445 11.6082C34.1445 11.2495 34.0196 10.9453 33.7699 10.6956C33.5202 10.4432 33.1243 10.317 32.5823 10.317H30.7172V13.027Z" fill="black"/>
<path fill-rule="evenodd" clip-rule="evenodd" d="M119.738 22.9775L147.39 22.9775L147.39 3.22607L119.738 3.22607L119.738 22.9775ZM120.396 15.4061L125.334 15.4061L125.334 13.431L138.501 13.431L138.501 15.4061L143.11 15.4061L143.11 13.431L146.731 13.431L146.731 22.3191L120.396 22.3191L120.396 15.4061ZM146.731 12.7726L146.731 3.88446L120.396 3.88445L120.396 14.7478L124.675 14.7478L124.675 12.7726L139.16 12.7726L139.16 14.7478L142.452 14.7478L142.452 12.7726L146.731 12.7726Z" fill="black"/>
<path d="M119.737 0.592773L119.737 25.6113L92.0853 25.6113L76.2841 20.8446L76.2841 5.35945L92.0853 0.592772L119.737 0.592773Z" fill="black"/>
<rect x="74.9678" y="9.81006" width="6.58382" height="31.6023" transform="rotate(90 74.9678 9.81006)" fill="black"/>
<path d="M153.949 12.6704C153.711 12.6704 153.518 12.8637 153.518 13.1021C153.518 13.3404 153.711 13.5337 153.949 13.5337V12.6704ZM217.831 13.1021L213.515 10.61V15.5941L217.831 13.1021ZM153.949 13.5337H213.947V12.6704H153.949V13.5337Z" fill="black"/>
<rect x="246.525" y="0.944061" width="24.3155" height="21.8216" transform="rotate(90 246.525 0.944061)" stroke="black" stroke-width="0.623474"/>
<path d="M227.197 3.4382L240.473 3.4382L244.031 6.99644L244.031 19.2077L240.473 22.7659L227.197 22.7659L227.197 3.4382Z" stroke="black" stroke-width="0.623474"/>
<rect x="239.044" y="5.93185" width="14.3399" height="8.10517" transform="rotate(90 239.044 5.93185)" stroke="black" stroke-width="0.623474"/>
<rect x="240.603" y="8.11426" width="2.4939" height="1.24695" transform="rotate(90 240.603 8.11426)" fill="black"/>
<rect x="230.627" y="8.11426" width="2.4939" height="1.24695" transform="rotate(90 230.627 8.11426)" fill="black"/>
<rect x="240.603" y="15.5957" width="2.4939" height="1.24695" transform="rotate(90 240.603 15.5957)" fill="black"/>
<rect x="230.627" y="15.5957" width="2.4939" height="1.24695" transform="rotate(90 230.627 15.5957)" fill="black"/>
</svg>
