<svg width="500" height="125" viewBox="0 0 500 125" fill="none" xmlns="http://www.w3.org/2000/svg">
<rect x="0.826972" y="1.91486" width="73.5331" height="99.8503" rx="2.48092" stroke="black" stroke-width="1.65394"/>
<rect x="10.8914" y="9.23762" width="53.4057" height="72.6779" rx="2.48092" stroke="black" stroke-width="1.65394"/>
<rect x="33.0994" y="87.3338" width="8.98992" height="8.98992" rx="1.65394" stroke="black" stroke-width="1.65394"/>
<rect x="15.2328" y="88.89" width="12.6071" height="5.87757" rx="0.413486" stroke="black" stroke-width="0.826972"/>
<rect x="5.07284" y="35.87" width="19.4133" height="3.77057" rx="0.413486" transform="rotate(90 5.07284 35.87)" stroke="black" stroke-width="0.826972"/>
<rect x="73.8844" y="35.87" width="19.4133" height="3.77057" rx="0.413486" transform="rotate(90 73.8844 35.87)" stroke="black" stroke-width="0.826972"/>
<rect x="47.3471" y="88.89" width="12.6071" height="5.87757" rx="0.413486" stroke="black" stroke-width="0.826972"/>
<path d="M0.679551 121.093V113.275H3.81006C4.38526 113.275 4.86502 113.36 5.24934 113.53C5.63365 113.701 5.92252 113.938 6.11595 114.24C6.30938 114.541 6.4061 114.887 6.4061 115.279C6.4061 115.584 6.34502 115.853 6.22285 116.084C6.10068 116.314 5.93271 116.502 5.71891 116.649C5.50767 116.795 5.26588 116.898 4.99355 116.959V117.035C5.29133 117.048 5.57002 117.132 5.82963 117.287C6.09178 117.442 6.30429 117.66 6.46718 117.94C6.63007 118.217 6.71152 118.548 6.71152 118.932C6.71152 119.347 6.60844 119.718 6.40228 120.043C6.19867 120.367 5.89707 120.622 5.49749 120.811C5.0979 120.999 4.60542 121.093 4.02004 121.093H0.679551ZM2.33261 119.742H3.68026C4.14093 119.742 4.47689 119.654 4.68814 119.478C4.89938 119.3 5.005 119.064 5.005 118.768C5.005 118.552 4.95283 118.361 4.84848 118.196C4.74413 118.03 4.59524 117.9 4.40181 117.806C4.21092 117.712 3.98313 117.665 3.71844 117.665H2.33261V119.742ZM2.33261 116.546H3.5581C3.78461 116.546 3.98568 116.507 4.16129 116.428C4.33945 116.347 4.47943 116.232 4.58124 116.084C4.68559 115.937 4.73777 115.76 4.73777 115.554C4.73777 115.271 4.63723 115.043 4.43617 114.87C4.23765 114.697 3.95514 114.611 3.58864 114.611H2.33261V116.546ZM10.429 121.208C9.8258 121.208 9.3066 121.086 8.87138 120.841C8.43871 120.594 8.10529 120.246 7.87114 119.795C7.63699 119.342 7.51991 118.806 7.51991 118.188C7.51991 117.585 7.63699 117.055 7.87114 116.6C8.10529 116.144 8.43489 115.789 8.85993 115.535C9.28751 115.28 9.7889 115.153 10.3641 115.153C10.751 115.153 11.1111 115.215 11.4445 115.34C11.7805 115.462 12.0732 115.647 12.3226 115.894C12.5745 116.14 12.7705 116.451 12.9105 116.825C13.0505 117.197 13.1205 117.632 13.1205 118.131V118.577H8.16892V117.57H11.5896C11.5896 117.335 11.5387 117.128 11.4369 116.947C11.3351 116.767 11.1938 116.625 11.0131 116.523C10.8349 116.419 10.6275 116.367 10.3908 116.367C10.1439 116.367 9.92506 116.424 9.73418 116.539C9.54584 116.651 9.39822 116.802 9.29133 116.993C9.18443 117.181 9.12971 117.391 9.12717 117.623V118.581C9.12717 118.871 9.18061 119.122 9.28751 119.333C9.39695 119.545 9.55093 119.707 9.74945 119.822C9.94797 119.936 10.1834 119.994 10.4557 119.994C10.6364 119.994 10.8019 119.968 10.952 119.917C11.1022 119.867 11.2307 119.79 11.3376 119.688C11.4445 119.587 11.526 119.462 11.5819 119.314L13.0861 119.413C13.0098 119.775 12.8532 120.09 12.6165 120.36C12.3824 120.628 12.0795 120.836 11.7079 120.986C11.3389 121.134 10.9126 121.208 10.429 121.208ZM14.1818 121.093V115.229H15.7318V116.264H15.8005C15.9227 115.92 16.1263 115.649 16.4113 115.451C16.6964 115.252 17.0374 115.153 17.4345 115.153C17.8366 115.153 18.1789 115.253 18.4614 115.455C18.744 115.653 18.9323 115.923 19.0265 116.264H19.0875C19.2072 115.928 19.4235 115.659 19.7366 115.458C20.0521 115.255 20.425 115.153 20.8551 115.153C21.4023 115.153 21.8465 115.327 22.1875 115.676C22.5311 116.022 22.7029 116.513 22.7029 117.15V121.093H21.0804V117.47C21.0804 117.144 20.9938 116.9 20.8208 116.737C20.6477 116.574 20.4314 116.493 20.1718 116.493C19.8765 116.493 19.6462 116.587 19.4808 116.775C19.3153 116.961 19.2326 117.207 19.2326 117.512V121.093H17.6559V117.436C17.6559 117.148 17.5732 116.919 17.4078 116.749C17.2449 116.578 17.0298 116.493 16.7626 116.493C16.5819 116.493 16.419 116.539 16.2739 116.63C16.1314 116.719 16.0181 116.845 15.9341 117.008C15.8501 117.169 15.8081 117.357 15.8081 117.573V121.093H14.1818ZM23.9876 121.093V115.229H25.6139V121.093H23.9876ZM24.8045 114.473C24.5628 114.473 24.3553 114.393 24.1823 114.233C24.0117 114.07 23.9265 113.875 23.9265 113.649C23.9265 113.425 24.0117 113.233 24.1823 113.072C24.3553 112.909 24.5628 112.828 24.8045 112.828C25.0463 112.828 25.2525 112.909 25.423 113.072C25.5961 113.233 25.6826 113.425 25.6826 113.649C25.6826 113.875 25.5961 114.07 25.423 114.233C25.2525 114.393 25.0463 114.473 24.8045 114.473ZM36.334 116.012H34.6618C34.6313 115.796 34.569 115.603 34.4748 115.435C34.3806 115.265 34.2597 115.12 34.1121 115C33.9645 114.881 33.794 114.789 33.6005 114.725C33.4096 114.662 33.2022 114.63 32.9782 114.63C32.5736 114.63 32.2211 114.73 31.9207 114.931C31.6204 115.13 31.3875 115.42 31.2221 115.802C31.0567 116.181 30.974 116.642 30.974 117.184C30.974 117.741 31.0567 118.21 31.2221 118.589C31.3901 118.968 31.6242 119.254 31.9246 119.448C32.2249 119.641 32.5723 119.738 32.9668 119.738C33.1882 119.738 33.3931 119.709 33.5814 119.65C33.7723 119.592 33.9416 119.506 34.0892 119.394C34.2368 119.28 34.359 119.141 34.4557 118.978C34.555 118.815 34.6237 118.63 34.6618 118.421L36.334 118.429C36.2907 118.787 36.1826 119.134 36.0095 119.467C35.839 119.798 35.6086 120.094 35.3185 120.356C35.0309 120.616 34.6873 120.822 34.2877 120.975C33.8907 121.125 33.4415 121.2 32.9401 121.2C32.2427 121.2 31.6191 121.042 31.0694 120.727C30.5222 120.411 30.0895 119.954 29.7714 119.356C29.4558 118.758 29.298 118.034 29.298 117.184C29.298 116.331 29.4583 115.606 29.779 115.008C30.0997 114.41 30.5349 113.954 31.0847 113.641C31.6344 113.326 32.2529 113.168 32.9401 113.168C33.3931 113.168 33.813 113.231 34.1999 113.359C34.5893 113.486 34.9342 113.672 35.2345 113.916C35.5348 114.158 35.7792 114.454 35.9675 114.806C36.1584 115.157 36.2806 115.559 36.334 116.012ZM40.1383 121.208C39.5453 121.208 39.0325 121.082 38.5998 120.83C38.1697 120.575 37.8375 120.222 37.6034 119.769C37.3692 119.313 37.2522 118.785 37.2522 118.184C37.2522 117.578 37.3692 117.049 37.6034 116.596C37.8375 116.14 38.1697 115.787 38.5998 115.535C39.0325 115.28 39.5453 115.153 40.1383 115.153C40.7314 115.153 41.2429 115.28 41.6731 115.535C42.1057 115.787 42.4391 116.14 42.6733 116.596C42.9074 117.049 43.0245 117.578 43.0245 118.184C43.0245 118.785 42.9074 119.313 42.6733 119.769C42.4391 120.222 42.1057 120.575 41.6731 120.83C41.2429 121.082 40.7314 121.208 40.1383 121.208ZM40.146 119.948C40.4158 119.948 40.641 119.872 40.8217 119.719C41.0024 119.564 41.1386 119.352 41.2302 119.085C41.3244 118.818 41.3715 118.514 41.3715 118.173C41.3715 117.832 41.3244 117.528 41.2302 117.26C41.1386 116.993 41.0024 116.782 40.8217 116.627C40.641 116.471 40.4158 116.394 40.146 116.394C39.8736 116.394 39.6446 116.471 39.4588 116.627C39.2755 116.782 39.1368 116.993 39.0427 117.26C38.951 117.528 38.9052 117.832 38.9052 118.173C38.9052 118.514 38.951 118.818 39.0427 119.085C39.1368 119.352 39.2755 119.564 39.4588 119.719C39.6446 119.872 39.8736 119.948 40.146 119.948ZM46.7239 123.414C46.197 123.414 45.7453 123.342 45.3686 123.197C44.9945 123.054 44.6967 122.86 44.4752 122.613C44.2538 122.366 44.11 122.088 44.0438 121.78L45.548 121.578C45.5938 121.695 45.6664 121.805 45.7656 121.906C45.8649 122.008 45.996 122.09 46.1589 122.151C46.3243 122.214 46.5254 122.246 46.762 122.246C47.1158 122.246 47.4072 122.16 47.6363 121.987C47.8679 121.816 47.9837 121.53 47.9837 121.128V120.055H47.915C47.8437 120.218 47.7368 120.372 47.5943 120.517C47.4518 120.662 47.2685 120.78 47.0446 120.872C46.8206 120.963 46.5533 121.009 46.2428 121.009C45.8025 121.009 45.4017 120.907 45.0403 120.704C44.6814 120.498 44.3951 120.183 44.1813 119.761C43.97 119.336 43.8644 118.799 43.8644 118.15C43.8644 117.486 43.9726 116.931 44.1889 116.485C44.4053 116.04 44.6929 115.706 45.0517 115.485C45.4131 115.264 45.8089 115.153 46.239 115.153C46.5673 115.153 46.8422 115.209 47.0636 115.321C47.2851 115.43 47.4632 115.568 47.5981 115.733C47.7356 115.896 47.8412 116.056 47.915 116.214H47.9761V115.229H49.591V121.151C49.591 121.649 49.4688 122.067 49.2245 122.403C48.9801 122.739 48.6416 122.991 48.209 123.159C47.7788 123.329 47.2838 123.414 46.7239 123.414ZM46.7582 119.788C47.0204 119.788 47.2418 119.723 47.4225 119.593C47.6058 119.461 47.7457 119.272 47.8425 119.028C47.9417 118.781 47.9913 118.486 47.9913 118.142C47.9913 117.799 47.943 117.501 47.8463 117.249C47.7496 116.994 47.6096 116.797 47.4263 116.657C47.2431 116.517 47.0204 116.447 46.7582 116.447C46.491 116.447 46.2657 116.52 46.0825 116.665C45.8992 116.807 45.7605 117.006 45.6664 117.26C45.5722 117.515 45.5251 117.809 45.5251 118.142C45.5251 118.481 45.5722 118.773 45.6664 119.02C45.7631 119.265 45.9018 119.454 46.0825 119.589C46.2657 119.721 46.491 119.788 46.7582 119.788ZM52.5115 117.703V121.093H50.8852V115.229H52.4351V116.264H52.5039C52.6337 115.923 52.8513 115.653 53.1567 115.455C53.4621 115.253 53.8324 115.153 54.2676 115.153C54.6749 115.153 55.0299 115.242 55.3328 115.42C55.6357 115.598 55.8711 115.853 56.0391 116.184C56.207 116.512 56.291 116.904 56.291 117.36V121.093H54.6647V117.65C54.6672 117.291 54.5756 117.011 54.3898 116.81C54.204 116.606 53.9482 116.504 53.6225 116.504C53.4036 116.504 53.2101 116.551 53.0422 116.646C52.8767 116.74 52.7469 116.877 52.6528 117.058C52.5611 117.236 52.514 117.451 52.5115 117.703ZM57.5728 121.093V115.229H59.1992V121.093H57.5728ZM58.3898 114.473C58.148 114.473 57.9406 114.393 57.7675 114.233C57.597 114.07 57.5117 113.875 57.5117 113.649C57.5117 113.425 57.597 113.233 57.7675 113.072C57.9406 112.909 58.148 112.828 58.3898 112.828C58.6316 112.828 58.8377 112.909 59.0083 113.072C59.1813 113.233 59.2679 113.425 59.2679 113.649C59.2679 113.875 59.1813 114.07 59.0083 114.233C58.8377 114.393 58.6316 114.473 58.3898 114.473ZM63.621 115.229V116.451H60.0896V115.229H63.621ZM60.8914 113.824H62.5177V119.291C62.5177 119.441 62.5406 119.559 62.5864 119.643C62.6322 119.724 62.6959 119.781 62.7773 119.814C62.8613 119.847 62.958 119.864 63.0674 119.864C63.1438 119.864 63.2202 119.858 63.2965 119.845C63.3729 119.83 63.4314 119.818 63.4721 119.811L63.7279 121.021C63.6465 121.046 63.5319 121.075 63.3843 121.109C63.2367 121.144 63.0573 121.166 62.846 121.173C62.4541 121.189 62.1105 121.137 61.8152 121.017C61.5225 120.897 61.2948 120.711 61.1319 120.46C60.969 120.208 60.8888 119.889 60.8914 119.505V113.824ZM66.3526 121.204C65.9784 121.204 65.645 121.139 65.3523 121.009C65.0596 120.877 64.828 120.682 64.6575 120.425C64.4895 120.166 64.4055 119.842 64.4055 119.455C64.4055 119.13 64.4654 118.856 64.585 118.635C64.7046 118.413 64.8675 118.235 65.0736 118.1C65.2798 117.965 65.514 117.863 65.7761 117.795C66.0408 117.726 66.3182 117.678 66.6084 117.65C66.9494 117.614 67.2243 117.581 67.433 117.55C67.6417 117.517 67.7931 117.469 67.8873 117.405C67.9815 117.342 68.0285 117.248 68.0285 117.123V117.1C68.0285 116.858 67.9522 116.671 67.7995 116.539C67.6493 116.406 67.4355 116.34 67.1581 116.34C66.8654 116.34 66.6325 116.405 66.4595 116.535C66.2864 116.662 66.1719 116.823 66.1159 117.016L64.6117 116.894C64.6881 116.537 64.8382 116.23 65.0622 115.97C65.2862 115.708 65.575 115.507 65.9288 115.367C66.2851 115.224 66.6974 115.153 67.1657 115.153C67.4915 115.153 67.8033 115.191 68.1011 115.267C68.4014 115.344 68.6674 115.462 68.899 115.622C69.1331 115.783 69.3177 115.989 69.4525 116.241C69.5874 116.49 69.6549 116.789 69.6549 117.138V121.093H68.1125V120.28H68.0667C67.9725 120.463 67.8466 120.625 67.6888 120.765C67.531 120.902 67.3414 121.011 67.1199 121.089C66.8985 121.166 66.6427 121.204 66.3526 121.204ZM66.8183 120.082C67.0576 120.082 67.2688 120.034 67.4521 119.94C67.6353 119.844 67.7791 119.714 67.8835 119.551C67.9878 119.388 68.04 119.204 68.04 118.997V118.375C67.9891 118.408 67.9191 118.439 67.83 118.467C67.7435 118.492 67.6455 118.516 67.5361 118.539C67.4266 118.56 67.3172 118.579 67.2077 118.596C67.0983 118.612 66.999 118.626 66.91 118.638C66.7191 118.666 66.5524 118.711 66.4098 118.772C66.2673 118.833 66.1566 118.916 66.0777 119.02C65.9988 119.122 65.9593 119.249 65.9593 119.402C65.9593 119.623 66.0395 119.793 66.1999 119.91C66.3628 120.024 66.5689 120.082 66.8183 120.082ZM75.726 120.669V115.264H77.0927V120.669H75.726ZM73.7064 118.65V117.283H79.1123V118.65H73.7064Z" fill="black"/>
<path d="M175.834 15.0585V14.8518H175.627H174.593V6.58206H175.627H175.834V6.37532V3.8944V3.68766H175.627H174.593V1.20674H182.863V18.1597H175.834V15.0585ZM175.42 15.2653V18.1597H165.91V1.20674H174.18V3.8944V4.10115H174.386H175.42V6.16858H174.386H174.18V6.37532V15.0585V15.2653H174.386H175.42ZM168.598 7.40904H168.391V7.61578V10.5102V10.7169H168.598H171.905H172.112V10.5102V7.61578V7.40904H171.905H168.598ZM176.867 7.40904H176.661V7.61578V10.5102V10.7169H176.867H180.175H180.382V10.5102V7.61578V7.40904H180.175H176.867ZM171.699 10.3034H168.804V7.82252H171.699V10.3034ZM179.968 10.3034H177.074V7.82252H179.968V10.3034Z" stroke="black" stroke-width="0.413486"/>
<path d="M164.049 18.3662H184.723V34.9057L180.175 51.4451H168.597L164.049 34.9057V18.3662Z" fill="black"/>
<rect x="172.318" y="52.2725" width="4.13486" height="38.4641" fill="black"/>
<path d="M156.151 16.6335V16.4268H155.944H155.159V14.0246H155.944H156.151V13.8179V11.7504V11.5437H155.944H155.159V9.47627H159.707V18.1595H156.151V16.6335ZM155.738 16.8403V18.1595H150.197V9.47627H154.745V11.7504V11.9572H154.952H155.738V13.6111H154.952H154.745V13.8179V16.6335V16.8403H154.952H155.738Z" stroke="black" stroke-width="0.413486"/>
<path d="M148.336 18.3662H161.567V33.2517H148.336V18.3662Z" fill="black"/>
<path d="M150.817 33.2517H159.087V39.0405H150.817V33.2517Z" fill="black"/>
<rect x="152.471" y="39.8677" width="4.13486" height="50.8475" fill="black"/>
<path d="M176.453 90.5848C176.453 93.7926 175.19 96.8691 172.941 99.1373C170.692 101.406 167.643 102.68 164.462 102.68C161.282 102.68 158.232 101.406 155.984 99.1373C153.735 96.8691 152.472 93.7926 152.472 90.5848L156.597 90.5848C156.597 92.6889 157.426 94.7068 158.901 96.1946C160.376 97.6824 162.376 98.5182 164.462 98.5182C166.548 98.5182 168.549 97.6824 170.024 96.1946C171.499 94.7068 172.327 92.6889 172.327 90.5848H176.453Z" fill="black"/>
<path d="M131.103 113.363H132.756V118.44C132.756 119.01 132.62 119.509 132.347 119.937C132.077 120.364 131.7 120.698 131.213 120.937C130.727 121.174 130.161 121.292 129.515 121.292C128.866 121.292 128.298 121.174 127.812 120.937C127.326 120.698 126.948 120.364 126.678 119.937C126.408 119.509 126.273 119.01 126.273 118.44V113.363H127.926V118.299C127.926 118.597 127.991 118.861 128.121 119.093C128.253 119.324 128.439 119.506 128.678 119.639C128.918 119.771 129.196 119.837 129.515 119.837C129.835 119.837 130.114 119.771 130.351 119.639C130.59 119.506 130.774 119.324 130.904 119.093C131.037 118.861 131.103 118.597 131.103 118.299V113.363ZM138.357 115.611C138.327 115.303 138.196 115.064 137.964 114.893C137.732 114.723 137.418 114.638 137.021 114.638C136.751 114.638 136.524 114.676 136.338 114.752C136.152 114.826 136.009 114.929 135.91 115.061C135.813 115.194 135.765 115.344 135.765 115.512C135.76 115.652 135.789 115.774 135.853 115.878C135.919 115.983 136.009 116.073 136.124 116.149C136.238 116.223 136.371 116.288 136.521 116.344C136.671 116.398 136.831 116.443 137.002 116.482L137.704 116.65C138.045 116.726 138.359 116.828 138.644 116.955C138.929 117.082 139.176 117.239 139.384 117.425C139.593 117.61 139.755 117.829 139.869 118.081C139.986 118.333 140.046 118.622 140.049 118.948C140.046 119.426 139.924 119.841 139.682 120.192C139.443 120.541 139.097 120.812 138.644 121.006C138.193 121.196 137.65 121.292 137.013 121.292C136.382 121.292 135.833 121.195 135.364 121.002C134.898 120.808 134.534 120.522 134.272 120.143C134.013 119.761 133.877 119.289 133.864 118.726H135.463C135.481 118.989 135.556 119.207 135.689 119.383C135.824 119.556 136.003 119.687 136.227 119.776C136.454 119.863 136.709 119.906 136.994 119.906C137.274 119.906 137.517 119.865 137.724 119.784C137.932 119.702 138.094 119.589 138.208 119.444C138.323 119.299 138.38 119.132 138.38 118.944C138.38 118.768 138.328 118.621 138.224 118.501C138.122 118.382 137.972 118.28 137.773 118.196C137.577 118.112 137.337 118.035 137.052 117.967L136.2 117.753C135.541 117.593 135.021 117.342 134.639 117.001C134.257 116.66 134.067 116.2 134.07 115.623C134.067 115.149 134.193 114.736 134.448 114.382C134.705 114.028 135.058 113.752 135.505 113.553C135.953 113.355 136.462 113.256 137.033 113.256C137.613 113.256 138.119 113.355 138.552 113.553C138.987 113.752 139.326 114.028 139.567 114.382C139.809 114.736 139.934 115.145 139.942 115.611H138.357ZM141.16 121.181V113.363H144.291C144.866 113.363 145.346 113.448 145.73 113.618C146.115 113.789 146.403 114.026 146.597 114.328C146.79 114.629 146.887 114.975 146.887 115.367C146.887 115.672 146.826 115.941 146.704 116.172C146.582 116.401 146.414 116.59 146.2 116.737C145.989 116.882 145.747 116.986 145.474 117.047V117.123C145.772 117.136 146.051 117.22 146.31 117.375C146.573 117.53 146.785 117.748 146.948 118.028C147.111 118.305 147.192 118.636 147.192 119.02C147.192 119.435 147.089 119.806 146.883 120.131C146.68 120.455 146.378 120.71 145.978 120.899C145.579 121.087 145.086 121.181 144.501 121.181H141.16ZM142.813 119.83H144.161C144.622 119.83 144.958 119.742 145.169 119.566C145.38 119.388 145.486 119.151 145.486 118.856C145.486 118.64 145.434 118.449 145.329 118.284C145.225 118.118 145.076 117.988 144.883 117.894C144.692 117.8 144.464 117.753 144.199 117.753H142.813V119.83ZM142.813 116.634H144.039C144.265 116.634 144.467 116.595 144.642 116.516C144.82 116.434 144.96 116.32 145.062 116.172C145.166 116.025 145.219 115.848 145.219 115.642C145.219 115.359 145.118 115.131 144.917 114.958C144.719 114.785 144.436 114.699 144.07 114.699H142.813V116.634ZM151.891 116.627V117.917H148.325V116.627H151.891ZM153.307 121.181V113.363H154.96V119.818H158.312V121.181H153.307ZM161.049 121.292C160.675 121.292 160.341 121.227 160.048 121.097C159.756 120.965 159.524 120.77 159.354 120.513C159.186 120.253 159.102 119.93 159.102 119.543C159.102 119.218 159.162 118.944 159.281 118.723C159.401 118.501 159.564 118.323 159.77 118.188C159.976 118.053 160.21 117.951 160.472 117.883C160.737 117.814 161.014 117.766 161.305 117.738C161.646 117.702 161.92 117.669 162.129 117.638C162.338 117.605 162.489 117.557 162.583 117.493C162.678 117.43 162.725 117.335 162.725 117.211V117.188C162.725 116.946 162.648 116.759 162.496 116.627C162.345 116.494 162.132 116.428 161.854 116.428C161.562 116.428 161.329 116.493 161.156 116.623C160.983 116.75 160.868 116.91 160.812 117.104L159.308 116.982C159.384 116.625 159.534 116.317 159.758 116.058C159.982 115.796 160.271 115.595 160.625 115.455C160.981 115.312 161.394 115.241 161.862 115.241C162.188 115.241 162.499 115.279 162.797 115.355C163.098 115.432 163.364 115.55 163.595 115.71C163.829 115.871 164.014 116.077 164.149 116.329C164.284 116.578 164.351 116.877 164.351 117.226V121.181H162.809V120.368H162.763C162.669 120.551 162.543 120.713 162.385 120.853C162.227 120.99 162.038 121.098 161.816 121.177C161.595 121.254 161.339 121.292 161.049 121.292ZM161.514 120.169C161.754 120.169 161.965 120.122 162.148 120.028C162.331 119.931 162.475 119.802 162.58 119.639C162.684 119.476 162.736 119.291 162.736 119.085V118.463C162.685 118.496 162.615 118.527 162.526 118.555C162.44 118.58 162.342 118.604 162.232 118.627C162.123 118.647 162.013 118.667 161.904 118.684C161.794 118.7 161.695 118.714 161.606 118.726C161.415 118.754 161.249 118.799 161.106 118.86C160.963 118.921 160.853 119.004 160.774 119.108C160.695 119.21 160.656 119.337 160.656 119.49C160.656 119.711 160.736 119.881 160.896 119.998C161.059 120.112 161.265 120.169 161.514 120.169ZM167.774 121.277C167.328 121.277 166.925 121.162 166.563 120.933C166.205 120.701 165.919 120.362 165.708 119.914C165.5 119.463 165.395 118.911 165.395 118.257C165.395 117.585 165.503 117.026 165.72 116.581C165.936 116.133 166.224 115.798 166.582 115.577C166.944 115.353 167.34 115.241 167.77 115.241C168.098 115.241 168.372 115.297 168.591 115.409C168.812 115.518 168.99 115.656 169.125 115.821C169.263 115.984 169.367 116.144 169.438 116.302H169.488V113.363H171.11V121.181H169.507V120.242H169.438C169.362 120.405 169.254 120.567 169.114 120.727C168.976 120.885 168.797 121.016 168.575 121.12C168.356 121.224 168.089 121.277 167.774 121.277ZM168.289 119.982C168.551 119.982 168.773 119.911 168.953 119.769C169.137 119.624 169.277 119.421 169.373 119.162C169.472 118.902 169.522 118.598 169.522 118.249C169.522 117.9 169.474 117.598 169.377 117.341C169.28 117.083 169.14 116.885 168.957 116.745C168.774 116.605 168.551 116.535 168.289 116.535C168.022 116.535 167.797 116.608 167.613 116.753C167.43 116.898 167.291 117.099 167.197 117.356C167.103 117.613 167.056 117.911 167.056 118.249C167.056 118.59 167.103 118.892 167.197 119.154C167.294 119.414 167.433 119.617 167.613 119.765C167.797 119.91 168.022 119.982 168.289 119.982ZM175.12 121.296C174.517 121.296 173.997 121.174 173.562 120.929C173.13 120.682 172.796 120.334 172.562 119.883C172.328 119.43 172.211 118.894 172.211 118.276C172.211 117.673 172.328 117.143 172.562 116.688C172.796 116.232 173.126 115.877 173.551 115.623C173.978 115.368 174.48 115.241 175.055 115.241C175.442 115.241 175.802 115.303 176.135 115.428C176.471 115.55 176.764 115.735 177.013 115.981C177.265 116.228 177.461 116.539 177.601 116.913C177.741 117.285 177.811 117.72 177.811 118.219V118.665H172.86V117.657H176.28C176.28 117.423 176.229 117.216 176.128 117.035C176.026 116.854 175.885 116.713 175.704 116.611C175.526 116.507 175.318 116.455 175.082 116.455C174.835 116.455 174.616 116.512 174.425 116.627C174.237 116.739 174.089 116.89 173.982 117.081C173.875 117.269 173.821 117.479 173.818 117.711V118.669C173.818 118.959 173.871 119.21 173.978 119.421C174.088 119.632 174.242 119.795 174.44 119.91C174.639 120.024 174.874 120.082 175.147 120.082C175.327 120.082 175.493 120.056 175.643 120.005C175.793 119.954 175.922 119.878 176.028 119.776C176.135 119.674 176.217 119.55 176.273 119.402L177.777 119.501C177.701 119.863 177.544 120.178 177.307 120.448C177.073 120.715 176.77 120.924 176.399 121.074C176.03 121.222 175.603 121.296 175.12 121.296ZM180.346 119.494L180.35 117.543H180.587L182.465 115.317H184.332L181.808 118.264H181.423L180.346 119.494ZM178.873 121.181V113.363H180.499V121.181H178.873ZM182.538 121.181L180.812 118.627L181.896 117.478L184.443 121.181H182.538ZM186.802 121.292C186.428 121.292 186.094 121.227 185.802 121.097C185.509 120.965 185.277 120.77 185.107 120.513C184.939 120.253 184.855 119.93 184.855 119.543C184.855 119.218 184.915 118.944 185.034 118.723C185.154 118.501 185.317 118.323 185.523 118.188C185.729 118.053 185.963 117.951 186.226 117.883C186.49 117.814 186.768 117.766 187.058 117.738C187.399 117.702 187.674 117.669 187.882 117.638C188.091 117.605 188.243 117.557 188.337 117.493C188.431 117.43 188.478 117.335 188.478 117.211V117.188C188.478 116.946 188.402 116.759 188.249 116.627C188.099 116.494 187.885 116.428 187.608 116.428C187.315 116.428 187.082 116.493 186.909 116.623C186.736 116.75 186.621 116.91 186.565 117.104L185.061 116.982C185.137 116.625 185.288 116.317 185.512 116.058C185.736 115.796 186.024 115.595 186.378 115.455C186.735 115.312 187.147 115.241 187.615 115.241C187.941 115.241 188.253 115.279 188.55 115.355C188.851 115.432 189.117 115.55 189.348 115.71C189.583 115.871 189.767 116.077 189.902 116.329C190.037 116.578 190.104 116.877 190.104 117.226V121.181H188.562V120.368H188.516C188.422 120.551 188.296 120.713 188.138 120.853C187.98 120.99 187.791 121.098 187.569 121.177C187.348 121.254 187.092 121.292 186.802 121.292ZM187.268 120.169C187.507 120.169 187.718 120.122 187.901 120.028C188.085 119.931 188.229 119.802 188.333 119.639C188.437 119.476 188.489 119.291 188.489 119.085V118.463C188.438 118.496 188.369 118.527 188.279 118.555C188.193 118.58 188.095 118.604 187.985 118.627C187.876 118.647 187.767 118.667 187.657 118.684C187.548 118.7 187.448 118.714 187.359 118.726C187.168 118.754 187.002 118.799 186.859 118.86C186.717 118.921 186.606 119.004 186.527 119.108C186.448 119.21 186.409 119.337 186.409 119.49C186.409 119.711 186.489 119.881 186.649 119.998C186.812 120.112 187.018 120.169 187.268 120.169ZM191.397 121.181V113.363H193.023V116.302H193.073C193.144 116.144 193.247 115.984 193.382 115.821C193.519 115.656 193.697 115.518 193.916 115.409C194.138 115.297 194.413 115.241 194.741 115.241C195.168 115.241 195.563 115.353 195.924 115.577C196.286 115.798 196.575 116.133 196.791 116.581C197.007 117.026 197.115 117.585 197.115 118.257C197.115 118.911 197.01 119.463 196.799 119.914C196.59 120.362 196.305 120.701 195.943 120.933C195.585 121.162 195.182 121.277 194.737 121.277C194.421 121.277 194.153 121.224 193.932 121.12C193.713 121.016 193.533 120.885 193.393 120.727C193.253 120.567 193.146 120.405 193.073 120.242H193V121.181H191.397ZM192.989 118.249C192.989 118.598 193.037 118.902 193.134 119.162C193.23 119.421 193.37 119.624 193.554 119.769C193.737 119.911 193.96 119.982 194.222 119.982C194.486 119.982 194.71 119.91 194.894 119.765C195.077 119.617 195.216 119.414 195.31 119.154C195.406 118.892 195.455 118.59 195.455 118.249C195.455 117.911 195.408 117.613 195.314 117.356C195.219 117.099 195.081 116.898 194.897 116.753C194.714 116.608 194.489 116.535 194.222 116.535C193.957 116.535 193.733 116.605 193.55 116.745C193.369 116.885 193.23 117.083 193.134 117.341C193.037 117.598 192.989 117.9 192.989 118.249ZM200.873 121.296C200.27 121.296 199.751 121.174 199.315 120.929C198.883 120.682 198.549 120.334 198.315 119.883C198.081 119.43 197.964 118.894 197.964 118.276C197.964 117.673 198.081 117.143 198.315 116.688C198.549 116.232 198.879 115.877 199.304 115.623C199.732 115.368 200.233 115.241 200.808 115.241C201.195 115.241 201.555 115.303 201.889 115.428C202.225 115.55 202.517 115.735 202.767 115.981C203.019 116.228 203.215 116.539 203.355 116.913C203.495 117.285 203.565 117.72 203.565 118.219V118.665H198.613V117.657H202.034C202.034 117.423 201.983 117.216 201.881 117.035C201.779 116.854 201.638 116.713 201.457 116.611C201.279 116.507 201.072 116.455 200.835 116.455C200.588 116.455 200.369 116.512 200.178 116.627C199.99 116.739 199.842 116.89 199.735 117.081C199.628 117.269 199.574 117.479 199.571 117.711V118.669C199.571 118.959 199.625 119.21 199.732 119.421C199.841 119.632 199.995 119.795 200.194 119.91C200.392 120.024 200.627 120.082 200.9 120.082C201.08 120.082 201.246 120.056 201.396 120.005C201.546 119.954 201.675 119.878 201.782 119.776C201.889 119.674 201.97 119.55 202.026 119.402L203.53 119.501C203.454 119.863 203.297 120.178 203.061 120.448C202.826 120.715 202.524 120.924 202.152 121.074C201.783 121.222 201.357 121.296 200.873 121.296ZM206.252 113.363V121.181H204.626V113.363H206.252Z" fill="black"/>
<rect x="340.894" y="101.439" width="69.6918" height="99.1989" rx="3.72138" transform="rotate(-180 340.894 101.439)" stroke="black" stroke-width="2.48092"/>
<path d="M275.034 101.58L339.815 101.58C342.555 101.58 344.776 99.3586 344.776 96.6182L344.776 7.00145C344.776 4.2611 342.555 2.03961 339.815 2.03961L275.034 2.03961" stroke="black" stroke-width="2.06743"/>
<path d="M276.209 101.58L343.229 101.58C345.969 101.58 348.19 99.3586 348.19 96.6182L348.19 6.97303C348.19 4.23269 345.969 2.0112 343.229 2.0112L276.209 2.01119" stroke="black" stroke-width="2.06743"/>
<mask id="path-20-inside-1_515_1141" fill="white">
<rect x="285.817" y="27.4243" width="40.4615" height="57.9618" rx="2.48092"/>
</mask>
<rect x="285.817" y="27.4243" width="40.4615" height="57.9618" rx="2.48092" stroke="black" stroke-width="8.26972" mask="url(#path-20-inside-1_515_1141)"/>
<rect x="277.357" y="7.58496" width="57.3809" height="11.0466" rx="0.826972" fill="black"/>
<path d="M253.521 121.181V113.363H256.652C257.227 113.363 257.707 113.448 258.091 113.618C258.475 113.789 258.764 114.026 258.958 114.328C259.151 114.629 259.248 114.975 259.248 115.367C259.248 115.672 259.187 115.941 259.065 116.172C258.942 116.401 258.775 116.59 258.561 116.737C258.349 116.882 258.108 116.986 257.835 117.047V117.123C258.133 117.136 258.412 117.22 258.671 117.375C258.934 117.53 259.146 117.748 259.309 118.028C259.472 118.305 259.553 118.636 259.553 119.02C259.553 119.435 259.45 119.806 259.244 120.131C259.04 120.455 258.739 120.71 258.339 120.899C257.94 121.087 257.447 121.181 256.862 121.181H253.521ZM255.174 119.83H256.522C256.983 119.83 257.319 119.742 257.53 119.566C257.741 119.388 257.847 119.151 257.847 118.856C257.847 118.64 257.795 118.449 257.69 118.284C257.586 118.118 257.437 117.988 257.244 117.894C257.053 117.8 256.825 117.753 256.56 117.753H255.174V119.83ZM255.174 116.634H256.4C256.626 116.634 256.827 116.595 257.003 116.516C257.181 116.434 257.321 116.32 257.423 116.172C257.527 116.025 257.58 115.848 257.58 115.642C257.58 115.359 257.479 115.131 257.278 114.958C257.079 114.785 256.797 114.699 256.43 114.699H255.174V116.634ZM263.271 121.296C262.668 121.296 262.148 121.174 261.713 120.929C261.281 120.682 260.947 120.334 260.713 119.883C260.479 119.43 260.362 118.894 260.362 118.276C260.362 117.673 260.479 117.143 260.713 116.688C260.947 116.232 261.277 115.877 261.702 115.623C262.129 115.368 262.631 115.241 263.206 115.241C263.593 115.241 263.953 115.303 264.286 115.428C264.622 115.55 264.915 115.735 265.164 115.981C265.416 116.228 265.612 116.539 265.752 116.913C265.892 117.285 265.962 117.72 265.962 118.219V118.665H261.011V117.657H264.431C264.431 117.423 264.38 117.216 264.279 117.035C264.177 116.854 264.036 116.713 263.855 116.611C263.677 116.507 263.469 116.455 263.233 116.455C262.986 116.455 262.767 116.512 262.576 116.627C262.388 116.739 262.24 116.89 262.133 117.081C262.026 117.269 261.972 117.479 261.969 117.711V118.669C261.969 118.959 262.022 119.21 262.129 119.421C262.239 119.632 262.393 119.795 262.591 119.91C262.79 120.024 263.025 120.082 263.298 120.082C263.478 120.082 263.644 120.056 263.794 120.005C263.944 119.954 264.073 119.878 264.179 119.776C264.286 119.674 264.368 119.55 264.424 119.402L265.928 119.501C265.852 119.863 265.695 120.178 265.458 120.448C265.224 120.715 264.921 120.924 264.55 121.074C264.181 121.222 263.754 121.296 263.271 121.296ZM269.184 121.277C268.739 121.277 268.336 121.162 267.974 120.933C267.615 120.701 267.33 120.362 267.119 119.914C266.91 119.463 266.806 118.911 266.806 118.257C266.806 117.585 266.914 117.026 267.13 116.581C267.347 116.133 267.634 115.798 267.993 115.577C268.355 115.353 268.75 115.241 269.181 115.241C269.509 115.241 269.783 115.297 270.001 115.409C270.223 115.518 270.401 115.656 270.536 115.821C270.673 115.984 270.778 116.144 270.849 116.302H270.899V113.363H272.521V121.181H270.918V120.242H270.849C270.773 120.405 270.664 120.567 270.524 120.727C270.387 120.885 270.208 121.016 269.986 121.12C269.767 121.224 269.5 121.277 269.184 121.277ZM269.7 119.982C269.962 119.982 270.183 119.911 270.364 119.769C270.547 119.624 270.687 119.421 270.784 119.162C270.883 118.902 270.933 118.598 270.933 118.249C270.933 117.9 270.885 117.598 270.788 117.341C270.691 117.083 270.551 116.885 270.368 116.745C270.185 116.605 269.962 116.535 269.7 116.535C269.433 116.535 269.207 116.608 269.024 116.753C268.841 116.898 268.702 117.099 268.608 117.356C268.514 117.613 268.467 117.911 268.467 118.249C268.467 118.59 268.514 118.892 268.608 119.154C268.705 119.414 268.843 119.617 269.024 119.765C269.207 119.91 269.433 119.982 269.7 119.982ZM273.858 121.181V115.317H275.485V121.181H273.858ZM274.675 114.561C274.433 114.561 274.226 114.481 274.053 114.321C273.882 114.158 273.797 113.963 273.797 113.737C273.797 113.513 273.882 113.321 274.053 113.16C274.226 112.997 274.433 112.916 274.675 112.916C274.917 112.916 275.123 112.997 275.294 113.16C275.467 113.321 275.553 113.513 275.553 113.737C275.553 113.963 275.467 114.158 275.294 114.321C275.123 114.481 274.917 114.561 274.675 114.561ZM279.46 121.296C278.857 121.296 278.337 121.174 277.902 120.929C277.469 120.682 277.136 120.334 276.902 119.883C276.668 119.43 276.551 118.894 276.551 118.276C276.551 117.673 276.668 117.143 276.902 116.688C277.136 116.232 277.466 115.877 277.891 115.623C278.318 115.368 278.82 115.241 279.395 115.241C279.782 115.241 280.142 115.303 280.475 115.428C280.811 115.55 281.104 115.735 281.353 115.981C281.605 116.228 281.801 116.539 281.941 116.913C282.081 117.285 282.151 117.72 282.151 118.219V118.665H277.2V117.657H280.62C280.62 117.423 280.569 117.216 280.468 117.035C280.366 116.854 280.225 116.713 280.044 116.611C279.866 116.507 279.658 116.455 279.422 116.455C279.175 116.455 278.956 116.512 278.765 116.627C278.577 116.739 278.429 116.89 278.322 117.081C278.215 117.269 278.16 117.479 278.158 117.711V118.669C278.158 118.959 278.211 119.21 278.318 119.421C278.428 119.632 278.582 119.795 278.78 119.91C278.979 120.024 279.214 120.082 279.486 120.082C279.667 120.082 279.833 120.056 279.983 120.005C280.133 119.954 280.261 119.878 280.368 119.776C280.475 119.674 280.557 119.55 280.613 119.402L282.117 119.501C282.041 119.863 281.884 120.178 281.647 120.448C281.413 120.715 281.11 120.924 280.739 121.074C280.37 121.222 279.943 121.296 279.46 121.296ZM284.839 117.791V121.181H283.213V115.317H284.763V116.352H284.831C284.961 116.011 285.179 115.741 285.484 115.542C285.789 115.341 286.16 115.241 286.595 115.241C287.002 115.241 287.357 115.33 287.66 115.508C287.963 115.686 288.198 115.941 288.366 116.272C288.534 116.6 288.618 116.992 288.618 117.447V121.181H286.992V117.738C286.995 117.379 286.903 117.099 286.717 116.898C286.531 116.694 286.276 116.592 285.95 116.592C285.731 116.592 285.538 116.639 285.37 116.734C285.204 116.828 285.074 116.965 284.98 117.146C284.889 117.324 284.841 117.539 284.839 117.791ZM293.661 118.684V115.317H295.287V121.181H293.726V120.116H293.664C293.532 120.46 293.312 120.736 293.004 120.944C292.699 121.153 292.326 121.258 291.885 121.258C291.493 121.258 291.149 121.168 290.851 120.99C290.553 120.812 290.32 120.559 290.152 120.231C289.987 119.902 289.903 119.509 289.9 119.051V115.317H291.527V118.761C291.529 119.107 291.622 119.38 291.805 119.582C291.988 119.783 292.234 119.883 292.542 119.883C292.738 119.883 292.921 119.839 293.092 119.75C293.262 119.658 293.4 119.523 293.504 119.345C293.611 119.167 293.663 118.947 293.661 118.684ZM298.214 117.791V121.181H296.588V115.317H298.138V116.352H298.207C298.336 116.011 298.554 115.741 298.859 115.542C299.165 115.341 299.535 115.241 299.97 115.241C300.378 115.241 300.733 115.33 301.035 115.508C301.338 115.686 301.574 115.941 301.742 116.272C301.91 116.6 301.994 116.992 301.994 117.447V121.181H300.367V117.738C300.37 117.379 300.278 117.099 300.093 116.898C299.907 116.694 299.651 116.592 299.325 116.592C299.106 116.592 298.913 116.639 298.745 116.734C298.579 116.828 298.45 116.965 298.355 117.146C298.264 117.324 298.217 117.539 298.214 117.791ZM305.917 123.502C305.391 123.502 304.939 123.43 304.562 123.285C304.188 123.142 303.89 122.947 303.669 122.701C303.447 122.454 303.304 122.176 303.237 121.868L304.742 121.666C304.787 121.783 304.86 121.893 304.959 121.994C305.058 122.096 305.189 122.178 305.352 122.239C305.518 122.302 305.719 122.334 305.956 122.334C306.309 122.334 306.601 122.248 306.83 122.074C307.061 121.904 307.177 121.618 307.177 121.216V120.143H307.108C307.037 120.306 306.93 120.46 306.788 120.605C306.645 120.75 306.462 120.868 306.238 120.96C306.014 121.051 305.747 121.097 305.436 121.097C304.996 121.097 304.595 120.995 304.234 120.792C303.875 120.586 303.589 120.271 303.375 119.849C303.164 119.424 303.058 118.887 303.058 118.238C303.058 117.573 303.166 117.019 303.382 116.573C303.599 116.128 303.886 115.794 304.245 115.573C304.607 115.352 305.002 115.241 305.433 115.241C305.761 115.241 306.036 115.297 306.257 115.409C306.479 115.518 306.657 115.656 306.792 115.821C306.929 115.984 307.035 116.144 307.108 116.302H307.17V115.317H308.784V121.238C308.784 121.737 308.662 122.155 308.418 122.491C308.174 122.827 307.835 123.079 307.402 123.247C306.972 123.417 306.477 123.502 305.917 123.502ZM305.952 119.875C306.214 119.875 306.435 119.811 306.616 119.681C306.799 119.548 306.939 119.36 307.036 119.116C307.135 118.869 307.185 118.574 307.185 118.23C307.185 117.886 307.136 117.589 307.04 117.337C306.943 117.082 306.803 116.885 306.62 116.745C306.437 116.605 306.214 116.535 305.952 116.535C305.684 116.535 305.459 116.608 305.276 116.753C305.093 116.895 304.954 117.094 304.86 117.348C304.766 117.603 304.719 117.897 304.719 118.23C304.719 118.569 304.766 118.861 304.86 119.108C304.957 119.352 305.095 119.542 305.276 119.677C305.459 119.809 305.684 119.875 305.952 119.875ZM314.958 116.989L313.469 117.081C313.443 116.954 313.389 116.839 313.305 116.737C313.221 116.633 313.11 116.55 312.972 116.489C312.838 116.426 312.676 116.394 312.488 116.394C312.236 116.394 312.023 116.447 311.85 116.554C311.677 116.658 311.59 116.798 311.59 116.974C311.59 117.114 311.646 117.232 311.758 117.329C311.87 117.426 312.063 117.503 312.335 117.562L313.396 117.776C313.966 117.893 314.391 118.081 314.671 118.341C314.951 118.6 315.091 118.941 315.091 119.364C315.091 119.748 314.978 120.085 314.752 120.376C314.528 120.666 314.22 120.892 313.828 121.055C313.438 121.216 312.989 121.296 312.48 121.296C311.704 121.296 311.085 121.134 310.625 120.811C310.166 120.485 309.898 120.042 309.819 119.482L311.419 119.398C311.467 119.635 311.584 119.816 311.77 119.94C311.956 120.063 312.194 120.124 312.484 120.124C312.769 120.124 312.998 120.069 313.171 119.959C313.347 119.848 313.436 119.704 313.438 119.528C313.436 119.38 313.373 119.26 313.251 119.165C313.129 119.069 312.941 118.995 312.686 118.944L311.671 118.742C311.098 118.627 310.672 118.429 310.392 118.146C310.114 117.864 309.976 117.503 309.976 117.066C309.976 116.689 310.077 116.364 310.281 116.092C310.487 115.82 310.776 115.61 311.148 115.462C311.522 115.315 311.96 115.241 312.461 115.241C313.202 115.241 313.784 115.397 314.209 115.71C314.637 116.023 314.886 116.45 314.958 116.989ZM317.788 121.292C317.413 121.292 317.08 121.227 316.787 121.097C316.495 120.965 316.263 120.77 316.092 120.513C315.925 120.253 315.841 119.93 315.841 119.543C315.841 119.218 315.9 118.944 316.02 118.723C316.14 118.501 316.302 118.323 316.509 118.188C316.715 118.053 316.949 117.951 317.211 117.883C317.476 117.814 317.753 117.766 318.043 117.738C318.384 117.702 318.659 117.669 318.868 117.638C319.077 117.605 319.228 117.557 319.322 117.493C319.416 117.43 319.464 117.335 319.464 117.211V117.188C319.464 116.946 319.387 116.759 319.234 116.627C319.084 116.494 318.871 116.428 318.593 116.428C318.3 116.428 318.068 116.493 317.894 116.623C317.721 116.75 317.607 116.91 317.551 117.104L316.047 116.982C316.123 116.625 316.273 116.317 316.497 116.058C316.721 115.796 317.01 115.595 317.364 115.455C317.72 115.312 318.132 115.241 318.601 115.241C318.926 115.241 319.238 115.279 319.536 115.355C319.836 115.432 320.102 115.55 320.334 115.71C320.568 115.871 320.753 116.077 320.888 116.329C321.022 116.578 321.09 116.877 321.09 117.226V121.181H319.548V120.368H319.502C319.408 120.551 319.282 120.713 319.124 120.853C318.966 120.99 318.776 121.098 318.555 121.177C318.333 121.254 318.078 121.292 317.788 121.292ZM318.253 120.169C318.493 120.169 318.704 120.122 318.887 120.028C319.07 119.931 319.214 119.802 319.318 119.639C319.423 119.476 319.475 119.291 319.475 119.085V118.463C319.424 118.496 319.354 118.527 319.265 118.555C319.178 118.58 319.08 118.604 318.971 118.627C318.862 118.647 318.752 118.667 318.643 118.684C318.533 118.7 318.434 118.714 318.345 118.726C318.154 118.754 317.987 118.799 317.845 118.86C317.702 118.921 317.592 119.004 317.513 119.108C317.434 119.21 317.394 119.337 317.394 119.49C317.394 119.711 317.474 119.881 317.635 119.998C317.798 120.112 318.004 120.169 318.253 120.169ZM323.978 117.791V121.181H322.352V115.317H323.902V116.352H323.97C324.1 116.011 324.318 115.741 324.623 115.542C324.929 115.341 325.299 115.241 325.734 115.241C326.141 115.241 326.496 115.33 326.799 115.508C327.102 115.686 327.338 115.941 327.506 116.272C327.673 116.6 327.757 116.992 327.757 117.447V121.181H326.131V117.738C326.134 117.379 326.042 117.099 325.856 116.898C325.67 116.694 325.415 116.592 325.089 116.592C324.87 116.592 324.677 116.639 324.509 116.734C324.343 116.828 324.213 116.965 324.119 117.146C324.028 117.324 323.98 117.539 323.978 117.791ZM330.666 113.363V121.181H329.039V113.363H330.666ZM334.641 121.296C334.038 121.296 333.518 121.174 333.083 120.929C332.65 120.682 332.317 120.334 332.083 119.883C331.849 119.43 331.732 118.894 331.732 118.276C331.732 117.673 331.849 117.143 332.083 116.688C332.317 116.232 332.647 115.877 333.072 115.623C333.499 115.368 334.001 115.241 334.576 115.241C334.963 115.241 335.323 115.303 335.656 115.428C335.992 115.55 336.285 115.735 336.534 115.981C336.786 116.228 336.982 116.539 337.122 116.913C337.262 117.285 337.332 117.72 337.332 118.219V118.665H332.381V117.657H335.801C335.801 117.423 335.75 117.216 335.649 117.035C335.547 116.854 335.406 116.713 335.225 116.611C335.047 116.507 334.839 116.455 334.603 116.455C334.356 116.455 334.137 116.512 333.946 116.627C333.758 116.739 333.61 116.89 333.503 117.081C333.396 117.269 333.341 117.479 333.339 117.711V118.669C333.339 118.959 333.392 119.21 333.499 119.421C333.609 119.632 333.763 119.795 333.961 119.91C334.16 120.024 334.395 120.082 334.668 120.082C334.848 120.082 335.014 120.056 335.164 120.005C335.314 119.954 335.442 119.878 335.549 119.776C335.656 119.674 335.738 119.55 335.794 119.402L337.298 119.501C337.222 119.863 337.065 120.178 336.828 120.448C336.594 120.715 336.291 120.924 335.92 121.074C335.551 121.222 335.124 121.296 334.641 121.296ZM338.394 121.181V115.317H340.02V121.181H338.394ZM339.211 114.561C338.969 114.561 338.761 114.481 338.588 114.321C338.418 114.158 338.332 113.963 338.332 113.737C338.332 113.513 338.418 113.321 338.588 113.16C338.761 112.997 338.969 112.916 339.211 112.916C339.452 112.916 339.659 112.997 339.829 113.16C340.002 113.321 340.089 113.513 340.089 113.737C340.089 113.963 340.002 114.158 339.829 114.321C339.659 114.481 339.452 114.561 339.211 114.561ZM344.442 115.317V116.539H340.91V115.317H344.442ZM341.712 113.912H343.338V119.379C343.338 119.529 343.361 119.646 343.407 119.73C343.453 119.812 343.517 119.869 343.598 119.902C343.682 119.935 343.779 119.952 343.888 119.952C343.965 119.952 344.041 119.945 344.117 119.933C344.194 119.917 344.252 119.906 344.293 119.898L344.549 121.109C344.467 121.134 344.353 121.163 344.205 121.196C344.057 121.232 343.878 121.254 343.667 121.261C343.275 121.277 342.931 121.224 342.636 121.105C342.343 120.985 342.116 120.799 341.953 120.547C341.79 120.295 341.71 119.977 341.712 119.593V113.912ZM349.262 118.684V115.317H350.888V121.181H349.327V120.116H349.265C349.133 120.46 348.913 120.736 348.605 120.944C348.3 121.153 347.927 121.258 347.486 121.258C347.094 121.258 346.75 121.168 346.452 120.99C346.154 120.812 345.921 120.559 345.753 120.231C345.588 119.902 345.504 119.509 345.501 119.051V115.317H347.128V118.761C347.13 119.107 347.223 119.38 347.406 119.582C347.589 119.783 347.835 119.883 348.143 119.883C348.339 119.883 348.522 119.839 348.693 119.75C348.863 119.658 349.001 119.523 349.105 119.345C349.212 119.167 349.264 118.947 349.262 118.684ZM353.815 117.791V121.181H352.189V115.317H353.739V116.352H353.808C353.937 116.011 354.155 115.741 354.46 115.542C354.766 115.341 355.136 115.241 355.571 115.241C355.979 115.241 356.334 115.33 356.636 115.508C356.939 115.686 357.175 115.941 357.343 116.272C357.511 116.6 357.595 116.992 357.595 117.447V121.181H355.968V117.738C355.971 117.379 355.879 117.099 355.693 116.898C355.508 116.694 355.252 116.592 354.926 116.592C354.707 116.592 354.514 116.639 354.346 116.734C354.18 116.828 354.051 116.965 353.956 117.146C353.865 117.324 353.818 117.539 353.815 117.791ZM361.518 123.502C360.991 123.502 360.54 123.43 360.163 123.285C359.789 123.142 359.491 122.947 359.27 122.701C359.048 122.454 358.904 122.176 358.838 121.868L360.342 121.666C360.388 121.783 360.461 121.893 360.56 121.994C360.659 122.096 360.79 122.178 360.953 122.239C361.119 122.302 361.32 122.334 361.557 122.334C361.91 122.334 362.202 122.248 362.431 122.074C362.662 121.904 362.778 121.618 362.778 121.216V120.143H362.709C362.638 120.306 362.531 120.46 362.389 120.605C362.246 120.75 362.063 120.868 361.839 120.96C361.615 121.051 361.348 121.097 361.037 121.097C360.597 121.097 360.196 120.995 359.835 120.792C359.476 120.586 359.19 120.271 358.976 119.849C358.765 119.424 358.659 118.887 358.659 118.238C358.659 117.573 358.767 117.019 358.983 116.573C359.2 116.128 359.487 115.794 359.846 115.573C360.208 115.352 360.603 115.241 361.033 115.241C361.362 115.241 361.637 115.297 361.858 115.409C362.08 115.518 362.258 115.656 362.393 115.821C362.53 115.984 362.636 116.144 362.709 116.302H362.771V115.317H364.385V121.238C364.385 121.737 364.263 122.155 364.019 122.491C363.775 122.827 363.436 123.079 363.003 123.247C362.573 123.417 362.078 123.502 361.518 123.502ZM361.553 119.875C361.815 119.875 362.036 119.811 362.217 119.681C362.4 119.548 362.54 119.36 362.637 119.116C362.736 118.869 362.786 118.574 362.786 118.23C362.786 117.886 362.737 117.589 362.641 117.337C362.544 117.082 362.404 116.885 362.221 116.745C362.038 116.605 361.815 116.535 361.553 116.535C361.285 116.535 361.06 116.608 360.877 116.753C360.694 116.895 360.555 117.094 360.461 117.348C360.367 117.603 360.32 117.897 360.32 118.23C360.32 118.569 360.367 118.861 360.461 119.108C360.558 119.352 360.696 119.542 360.877 119.677C361.06 119.809 361.285 119.875 361.553 119.875Z" fill="black"/>
<rect x="423.487" y="2.24046" width="63.7128" height="99.1989" rx="2.06743" stroke="black" stroke-width="2.48092"/>
<rect x="423.582" y="8.17432" width="63.3195" height="15.1264" fill="black"/>
<path d="M416.551 115.89C416.497 115.704 416.422 115.54 416.325 115.397C416.229 115.252 416.11 115.13 415.97 115.031C415.833 114.929 415.675 114.851 415.497 114.798C415.321 114.745 415.127 114.718 414.913 114.718C414.513 114.718 414.162 114.817 413.859 115.016C413.559 115.214 413.325 115.503 413.157 115.882C412.989 116.259 412.905 116.72 412.905 117.264C412.905 117.809 412.987 118.272 413.153 118.654C413.318 119.036 413.552 119.327 413.855 119.528C414.158 119.727 414.516 119.826 414.928 119.826C415.302 119.826 415.622 119.76 415.886 119.627C416.153 119.492 416.357 119.303 416.497 119.059C416.64 118.814 416.711 118.525 416.711 118.192L417.047 118.242H415.031V116.997H418.303V117.982C418.303 118.669 418.158 119.26 417.868 119.753C417.577 120.245 417.178 120.624 416.669 120.891C416.16 121.156 415.577 121.288 414.92 121.288C414.187 121.288 413.543 121.126 412.989 120.803C412.434 120.477 412.001 120.015 411.691 119.417C411.383 118.817 411.229 118.104 411.229 117.279C411.229 116.646 411.32 116.081 411.504 115.584C411.689 115.086 411.949 114.663 412.282 114.317C412.616 113.971 413.004 113.707 413.447 113.527C413.89 113.346 414.369 113.256 414.886 113.256C415.329 113.256 415.741 113.321 416.123 113.45C416.505 113.578 416.843 113.758 417.138 113.992C417.436 114.227 417.679 114.505 417.868 114.829C418.056 115.149 418.177 115.503 418.23 115.89H416.551ZM421.186 121.292C420.812 121.292 420.479 121.227 420.186 121.097C419.893 120.965 419.662 120.77 419.491 120.513C419.323 120.253 419.239 119.93 419.239 119.543C419.239 119.218 419.299 118.944 419.419 118.723C419.538 118.501 419.701 118.323 419.907 118.188C420.113 118.053 420.348 117.951 420.61 117.883C420.874 117.814 421.152 117.766 421.442 117.738C421.783 117.702 422.058 117.669 422.267 117.638C422.475 117.605 422.627 117.557 422.721 117.493C422.815 117.43 422.862 117.335 422.862 117.211V117.188C422.862 116.946 422.786 116.759 422.633 116.627C422.483 116.494 422.269 116.428 421.992 116.428C421.699 116.428 421.466 116.493 421.293 116.623C421.12 116.75 421.005 116.91 420.949 117.104L419.445 116.982C419.522 116.625 419.672 116.317 419.896 116.058C420.12 115.796 420.409 115.595 420.762 115.455C421.119 115.312 421.531 115.241 421.999 115.241C422.325 115.241 422.637 115.279 422.935 115.355C423.235 115.432 423.501 115.55 423.733 115.71C423.967 115.871 424.151 116.077 424.286 116.329C424.421 116.578 424.488 116.877 424.488 117.226V121.181H422.946V120.368H422.9C422.806 120.551 422.68 120.713 422.522 120.853C422.365 120.99 422.175 121.098 421.954 121.177C421.732 121.254 421.476 121.292 421.186 121.292ZM421.652 120.169C421.891 120.169 422.102 120.122 422.286 120.028C422.469 119.931 422.613 119.802 422.717 119.639C422.821 119.476 422.874 119.291 422.874 119.085V118.463C422.823 118.496 422.753 118.527 422.664 118.555C422.577 118.58 422.479 118.604 422.37 118.627C422.26 118.647 422.151 118.667 422.041 118.684C421.932 118.7 421.833 118.714 421.744 118.726C421.553 118.754 421.386 118.799 421.243 118.86C421.101 118.921 420.99 119.004 420.911 119.108C420.832 119.21 420.793 119.337 420.793 119.49C420.793 119.711 420.873 119.881 421.033 119.998C421.196 120.112 421.402 120.169 421.652 120.169ZM425.75 121.181V115.317H427.327V116.34H427.388C427.495 115.976 427.674 115.701 427.926 115.516C428.178 115.327 428.468 115.233 428.797 115.233C428.878 115.233 428.966 115.238 429.06 115.248C429.154 115.259 429.237 115.273 429.308 115.29V116.734C429.232 116.711 429.126 116.69 428.991 116.672C428.857 116.655 428.733 116.646 428.621 116.646C428.382 116.646 428.168 116.698 427.98 116.802C427.794 116.904 427.646 117.047 427.537 117.23C427.43 117.413 427.377 117.624 427.377 117.864V121.181H425.75ZM431.653 121.292C431.279 121.292 430.946 121.227 430.653 121.097C430.36 120.965 430.129 120.77 429.958 120.513C429.79 120.253 429.706 119.93 429.706 119.543C429.706 119.218 429.766 118.944 429.886 118.723C430.005 118.501 430.168 118.323 430.374 118.188C430.581 118.053 430.815 117.951 431.077 117.883C431.342 117.814 431.619 117.766 431.909 117.738C432.25 117.702 432.525 117.669 432.734 117.638C432.942 117.605 433.094 117.557 433.188 117.493C433.282 117.43 433.329 117.335 433.329 117.211V117.188C433.329 116.946 433.253 116.759 433.1 116.627C432.95 116.494 432.736 116.428 432.459 116.428C432.166 116.428 431.933 116.493 431.76 116.623C431.587 116.75 431.473 116.91 431.417 117.104L429.912 116.982C429.989 116.625 430.139 116.317 430.363 116.058C430.587 115.796 430.876 115.595 431.23 115.455C431.586 115.312 431.998 115.241 432.467 115.241C432.792 115.241 433.104 115.279 433.402 115.355C433.702 115.432 433.968 115.55 434.2 115.71C434.434 115.871 434.618 116.077 434.753 116.329C434.888 116.578 434.956 116.877 434.956 117.226V121.181H433.413V120.368H433.367C433.273 120.551 433.147 120.713 432.99 120.853C432.832 120.99 432.642 121.098 432.421 121.177C432.199 121.254 431.943 121.292 431.653 121.292ZM432.119 120.169C432.358 120.169 432.57 120.122 432.753 120.028C432.936 119.931 433.08 119.802 433.184 119.639C433.289 119.476 433.341 119.291 433.341 119.085V118.463C433.29 118.496 433.22 118.527 433.131 118.555C433.044 118.58 432.946 118.604 432.837 118.627C432.727 118.647 432.618 118.667 432.508 118.684C432.399 118.7 432.3 118.714 432.211 118.726C432.02 118.754 431.853 118.799 431.711 118.86C431.568 118.921 431.457 119.004 431.378 119.108C431.3 119.21 431.26 119.337 431.26 119.49C431.26 119.711 431.34 119.881 431.501 119.998C431.664 120.112 431.87 120.169 432.119 120.169ZM437.844 117.791V121.181H436.217V115.317H437.767V116.352H437.836C437.966 116.011 438.184 115.741 438.489 115.542C438.794 115.341 439.165 115.241 439.6 115.241C440.007 115.241 440.362 115.33 440.665 115.508C440.968 115.686 441.203 115.941 441.371 116.272C441.539 116.6 441.623 116.992 441.623 117.447V121.181H439.997V117.738C439.999 117.379 439.908 117.099 439.722 116.898C439.536 116.694 439.28 116.592 438.955 116.592C438.736 116.592 438.542 116.639 438.374 116.734C438.209 116.828 438.079 116.965 437.985 117.146C437.893 117.324 437.846 117.539 437.844 117.791ZM446.024 115.317V116.539H442.493V115.317H446.024ZM443.294 113.912H444.921V119.379C444.921 119.529 444.944 119.646 444.99 119.73C445.035 119.812 445.099 119.869 445.18 119.902C445.264 119.935 445.361 119.952 445.471 119.952C445.547 119.952 445.623 119.945 445.7 119.933C445.776 119.917 445.834 119.906 445.875 119.898L446.131 121.109C446.05 121.134 445.935 121.163 445.787 121.196C445.64 121.232 445.46 121.254 445.249 121.261C444.857 121.277 444.514 121.224 444.218 121.105C443.926 120.985 443.698 120.799 443.535 120.547C443.372 120.295 443.292 119.977 443.294 119.593V113.912ZM447.084 121.181V115.317H448.71V121.181H447.084ZM447.901 114.561C447.659 114.561 447.451 114.481 447.278 114.321C447.108 114.158 447.022 113.963 447.022 113.737C447.022 113.513 447.108 113.321 447.278 113.16C447.451 112.997 447.659 112.916 447.901 112.916C448.142 112.916 448.348 112.997 448.519 113.16C448.692 113.321 448.779 113.513 448.779 113.737C448.779 113.963 448.692 114.158 448.519 114.321C448.348 114.481 448.142 114.561 447.901 114.561ZM452.685 121.296C452.082 121.296 451.563 121.174 451.127 120.929C450.695 120.682 450.361 120.334 450.127 119.883C449.893 119.43 449.776 118.894 449.776 118.276C449.776 117.673 449.893 117.143 450.127 116.688C450.361 116.232 450.691 115.877 451.116 115.623C451.544 115.368 452.045 115.241 452.62 115.241C453.007 115.241 453.367 115.303 453.701 115.428C454.037 115.55 454.329 115.735 454.579 115.981C454.831 116.228 455.027 116.539 455.167 116.913C455.307 117.285 455.377 117.72 455.377 118.219V118.665H450.425V117.657H453.846C453.846 117.423 453.795 117.216 453.693 117.035C453.591 116.854 453.45 116.713 453.269 116.611C453.091 116.507 452.884 116.455 452.647 116.455C452.4 116.455 452.181 116.512 451.99 116.627C451.802 116.739 451.654 116.89 451.547 117.081C451.44 117.269 451.386 117.479 451.383 117.711V118.669C451.383 118.959 451.437 119.21 451.544 119.421C451.653 119.632 451.807 119.795 452.005 119.91C452.204 120.024 452.439 120.082 452.712 120.082C452.892 120.082 453.058 120.056 453.208 120.005C453.358 119.954 453.487 119.878 453.594 119.776C453.701 119.674 453.782 119.55 453.838 119.402L455.342 119.501C455.266 119.863 455.109 120.178 454.873 120.448C454.638 120.715 454.336 120.924 453.964 121.074C453.595 121.222 453.169 121.296 452.685 121.296ZM460.198 118.684V115.317H461.825V121.181H460.263V120.116H460.202C460.07 120.46 459.85 120.736 459.542 120.944C459.236 121.153 458.863 121.258 458.423 121.258C458.031 121.258 457.686 121.168 457.388 120.99C457.091 120.812 456.858 120.559 456.69 120.231C456.524 119.902 456.44 119.509 456.438 119.051V115.317H458.064V118.761C458.067 119.107 458.16 119.38 458.343 119.582C458.526 119.783 458.772 119.883 459.08 119.883C459.276 119.883 459.459 119.839 459.629 119.75C459.8 119.658 459.937 119.523 460.042 119.345C460.149 119.167 460.201 118.947 460.198 118.684ZM463.125 121.181V115.317H464.702V116.34H464.763C464.87 115.976 465.05 115.701 465.302 115.516C465.554 115.327 465.844 115.233 466.172 115.233C466.253 115.233 466.341 115.238 466.435 115.248C466.53 115.259 466.612 115.273 466.684 115.29V116.734C466.607 116.711 466.502 116.69 466.367 116.672C466.232 116.655 466.108 116.646 465.996 116.646C465.757 116.646 465.543 116.698 465.355 116.802C465.169 116.904 465.022 117.047 464.912 117.23C464.805 117.413 464.752 117.624 464.752 117.864V121.181H463.125ZM468.998 119.494L469.002 117.543H469.239L471.117 115.317H472.984L470.46 118.264H470.075L468.998 119.494ZM467.524 121.181V113.363H469.151V121.181H467.524ZM471.189 121.181L469.464 118.627L470.548 117.478L473.094 121.181H471.189ZM477.542 118.684V115.317H479.168V121.181H477.607V120.116H477.546C477.414 120.46 477.193 120.736 476.885 120.944C476.58 121.153 476.207 121.258 475.767 121.258C475.375 121.258 475.03 121.168 474.732 120.99C474.434 120.812 474.202 120.559 474.034 120.231C473.868 119.902 473.784 119.509 473.782 119.051V115.317H475.408V118.761C475.411 119.107 475.503 119.38 475.687 119.582C475.87 119.783 476.116 119.883 476.423 119.883C476.619 119.883 476.803 119.839 476.973 119.75C477.144 119.658 477.281 119.523 477.386 119.345C477.492 119.167 477.545 118.947 477.542 118.684ZM482.096 117.791V121.181H480.469V115.317H482.019V116.352H482.088C482.218 116.011 482.435 115.741 482.741 115.542C483.046 115.341 483.417 115.241 483.852 115.241C484.259 115.241 484.614 115.33 484.917 115.508C485.22 115.686 485.455 115.941 485.623 116.272C485.791 116.6 485.875 116.992 485.875 117.447V121.181H484.249V117.738C484.251 117.379 484.16 117.099 483.974 116.898C483.788 116.694 483.532 116.592 483.207 116.592C482.988 116.592 482.794 116.639 482.626 116.734C482.461 116.828 482.331 116.965 482.237 117.146C482.145 117.324 482.098 117.539 482.096 117.791ZM489.318 121.277C488.872 121.277 488.469 121.162 488.108 120.933C487.749 120.701 487.464 120.362 487.252 119.914C487.044 119.463 486.939 118.911 486.939 118.257C486.939 117.585 487.048 117.026 487.264 116.581C487.48 116.133 487.768 115.798 488.127 115.577C488.488 115.353 488.884 115.241 489.314 115.241C489.642 115.241 489.916 115.297 490.135 115.409C490.356 115.518 490.534 115.656 490.669 115.821C490.807 115.984 490.911 116.144 490.982 116.302H491.032V113.363H492.654V121.181H491.051V120.242H490.982C490.906 120.405 490.798 120.567 490.658 120.727C490.52 120.885 490.341 121.016 490.119 121.12C489.901 121.224 489.633 121.277 489.318 121.277ZM489.833 119.982C490.095 119.982 490.317 119.911 490.497 119.769C490.681 119.624 490.821 119.421 490.917 119.162C491.017 118.902 491.066 118.598 491.066 118.249C491.066 117.9 491.018 117.598 490.921 117.341C490.824 117.083 490.685 116.885 490.501 116.745C490.318 116.605 490.095 116.535 489.833 116.535C489.566 116.535 489.341 116.608 489.157 116.753C488.974 116.898 488.835 117.099 488.741 117.356C488.647 117.613 488.6 117.911 488.6 118.249C488.6 118.59 488.647 118.892 488.741 119.154C488.838 119.414 488.977 119.617 489.157 119.765C489.341 119.91 489.566 119.982 489.833 119.982ZM496.664 121.296C496.061 121.296 495.542 121.174 495.106 120.929C494.674 120.682 494.34 120.334 494.106 119.883C493.872 119.43 493.755 118.894 493.755 118.276C493.755 117.673 493.872 117.143 494.106 116.688C494.34 116.232 494.67 115.877 495.095 115.623C495.522 115.368 496.024 115.241 496.599 115.241C496.986 115.241 497.346 115.303 497.679 115.428C498.015 115.55 498.308 115.735 498.558 115.981C498.81 116.228 499.006 116.539 499.145 116.913C499.285 117.285 499.355 117.72 499.355 118.219V118.665H494.404V117.657H497.825C497.825 117.423 497.774 117.216 497.672 117.035C497.57 116.854 497.429 116.713 497.248 116.611C497.07 116.507 496.863 116.455 496.626 116.455C496.379 116.455 496.16 116.512 495.969 116.627C495.781 116.739 495.633 116.89 495.526 117.081C495.419 117.269 495.365 117.479 495.362 117.711V118.669C495.362 118.959 495.416 119.21 495.522 119.421C495.632 119.632 495.786 119.795 495.984 119.91C496.183 120.024 496.418 120.082 496.691 120.082C496.871 120.082 497.037 120.056 497.187 120.005C497.337 119.954 497.466 119.878 497.573 119.776C497.679 119.674 497.761 119.55 497.817 119.402L499.321 119.501C499.245 119.863 499.088 120.178 498.852 120.448C498.617 120.715 498.315 120.924 497.943 121.074C497.574 121.222 497.148 121.296 496.664 121.296Z" fill="black"/>
</svg>
