<svg width="290" height="154" viewBox="0 0 290 154" fill="none" xmlns="http://www.w3.org/2000/svg">
<rect x="151.178" y="41.3195" width="71.9821" height="71.9821" rx="27.1527" stroke="black" stroke-width="0.688824"/>
<rect x="154.125" y="44.2656" width="66.0898" height="66.0898" rx="24.1088" stroke="black" stroke-width="0.688824"/>
<rect x="169.838" y="59.9782" width="34.6646" height="34.6646" rx="10.458" stroke="black" stroke-width="0.688824"/>
<path d="M186.834 18.4751L192.607 28.4751L181.06 28.4751L186.834 18.4751ZM187.834 52.9751C187.834 53.5274 187.386 53.9751 186.834 53.9751C186.282 53.9751 185.834 53.5274 185.834 52.9751L187.834 52.9751ZM187.834 27.4751L187.834 52.9751L185.834 52.9751L185.834 27.4751L187.834 27.4751Z" fill="black"/>
<path d="M128.334 76.9751L138.334 71.2016L138.334 82.7486L128.334 76.9751ZM162.834 75.9751C163.386 75.9751 163.834 76.4228 163.834 76.9751C163.834 77.5274 163.386 77.9751 162.834 77.9751L162.834 75.9751ZM137.334 75.9751L162.834 75.9751L162.834 77.9751L137.334 77.9751L137.334 75.9751Z" fill="black"/>
<path d="M186.834 135.475L192.607 125.475L181.06 125.475L186.834 135.475ZM187.834 100.975C187.834 100.423 187.386 99.9751 186.834 99.9751C186.282 99.9751 185.834 100.423 185.834 100.975L187.834 100.975ZM187.834 126.475L187.834 100.975L185.834 100.975L185.834 126.475L187.834 126.475Z" fill="black"/>
<path d="M210.834 77.9751C210.282 77.9751 209.834 77.5274 209.834 76.9751C209.834 76.4228 210.282 75.9751 210.834 75.9751L210.834 77.9751ZM245.334 76.9751L235.334 82.7486L235.334 71.2016L245.334 76.9751ZM210.834 75.9751L236.334 75.9751L236.334 77.9751L210.834 77.9751L210.834 75.9751Z" fill="black"/>
<path d="M175.276 13.8636C174.559 13.8636 173.939 13.7112 173.415 13.4066C172.895 13.0988 172.494 12.671 172.21 12.1232C171.927 11.5723 171.786 10.9337 171.786 10.2073C171.786 9.47486 171.927 8.83471 172.21 8.28689C172.494 7.73599 172.895 7.30819 173.415 7.00351C173.939 6.69574 174.559 6.54186 175.276 6.54186C175.993 6.54186 176.611 6.69574 177.132 7.00351C177.655 7.30819 178.058 7.73599 178.341 8.28689C178.624 8.83471 178.766 9.47486 178.766 10.2073C178.766 10.9337 178.624 11.5723 178.341 12.1232C178.058 12.671 177.655 13.0988 177.132 13.4066C176.611 13.7112 175.993 13.8636 175.276 13.8636ZM175.285 12.3402C175.611 12.3402 175.884 12.2478 176.102 12.0632C176.321 11.8754 176.485 11.62 176.596 11.2968C176.71 10.9737 176.767 10.6059 176.767 10.1935C176.767 9.78109 176.71 9.41331 176.596 9.09015C176.485 8.767 176.321 8.51156 176.102 8.32382C175.884 8.13608 175.611 8.04221 175.285 8.04221C174.956 8.04221 174.679 8.13608 174.454 8.32382C174.232 8.51156 174.065 8.767 173.951 9.09015C173.84 9.41331 173.785 9.78109 173.785 10.1935C173.785 10.6059 173.84 10.9737 173.951 11.2968C174.065 11.62 174.232 11.8754 174.454 12.0632C174.679 12.2478 174.956 12.3402 175.285 12.3402ZM180.081 13.7251V4.27055H182.048V7.82524H182.108C182.194 7.63443 182.319 7.44053 182.482 7.24356C182.648 7.04352 182.864 6.87732 183.128 6.74498C183.396 6.60957 183.729 6.54186 184.126 6.54186C184.643 6.54186 185.12 6.67728 185.557 6.94811C185.994 7.21586 186.343 7.62058 186.605 8.16224C186.866 8.70083 186.997 9.37638 186.997 10.1889C186.997 10.9798 186.869 11.6477 186.614 12.1924C186.361 12.7341 186.017 13.145 185.58 13.425C185.146 13.702 184.66 13.8405 184.121 13.8405C183.739 13.8405 183.415 13.7774 183.147 13.6512C182.882 13.5251 182.665 13.3666 182.496 13.1757C182.327 12.9818 182.197 12.7864 182.108 12.5894H182.02V13.7251H180.081ZM182.007 10.1796C182.007 10.6013 182.065 10.9691 182.182 11.283C182.299 11.5969 182.468 11.8416 182.69 12.017C182.911 12.1893 183.181 12.2755 183.498 12.2755C183.818 12.2755 184.089 12.1878 184.31 12.0124C184.532 11.8339 184.7 11.5877 184.813 11.2737C184.93 10.9568 184.989 10.592 184.989 10.1796C184.989 9.77032 184.932 9.41023 184.818 9.09939C184.704 8.78854 184.536 8.54541 184.315 8.36998C184.093 8.19456 183.821 8.10684 183.498 8.10684C183.178 8.10684 182.907 8.19148 182.685 8.36075C182.467 8.53002 182.299 8.77008 182.182 9.08092C182.065 9.39176 182.007 9.758 182.007 10.1796ZM191.541 13.8636C190.811 13.8636 190.184 13.7159 189.657 13.4204C189.134 13.1219 188.731 12.7002 188.448 12.1555C188.165 11.6077 188.023 10.9598 188.023 10.212C188.023 9.48255 188.165 8.8424 188.448 8.2915C188.731 7.7406 189.129 7.31127 189.643 7.00351C190.16 6.69574 190.767 6.54186 191.462 6.54186C191.93 6.54186 192.366 6.61726 192.769 6.76807C193.175 6.91579 193.529 7.13892 193.831 7.43746C194.135 7.73599 194.372 8.11146 194.541 8.56388C194.711 9.01321 194.795 9.53949 194.795 10.1427V10.6828H188.808V9.46409H192.944C192.944 9.18095 192.883 8.93012 192.759 8.7116C192.636 8.49309 192.466 8.32228 192.247 8.19917C192.032 8.07299 191.781 8.0099 191.495 8.0099C191.196 8.0099 190.931 8.07915 190.701 8.21764C190.473 8.35306 190.294 8.53618 190.165 8.767C190.036 8.99475 189.97 9.24865 189.967 9.52872V10.6875C189.967 11.0383 190.031 11.3415 190.16 11.5969C190.293 11.8523 190.479 12.0493 190.719 12.1878C190.959 12.3263 191.244 12.3956 191.573 12.3956C191.792 12.3956 191.992 12.3648 192.173 12.3032C192.355 12.2417 192.51 12.1493 192.639 12.0262C192.769 11.9031 192.867 11.7523 192.935 11.5738L194.754 11.6938C194.661 12.1309 194.472 12.5125 194.186 12.8387C193.903 13.1619 193.537 13.4143 193.087 13.5958C192.641 13.7743 192.126 13.8636 191.541 13.8636ZM198.045 9.62567V13.7251H196.079V6.63419H197.953V7.88525H198.036C198.193 7.47285 198.456 7.14662 198.826 6.90656C199.195 6.66343 199.643 6.54186 200.169 6.54186C200.661 6.54186 201.091 6.64958 201.457 6.86501C201.823 7.08045 202.108 7.38821 202.311 7.78831C202.514 8.18532 202.616 8.65928 202.616 9.21018V13.7251H200.649V9.56104C200.652 9.12709 200.541 8.78854 200.317 8.54541C200.092 8.2992 199.783 8.17609 199.389 8.17609C199.124 8.17609 198.89 8.23303 198.687 8.3469C198.487 8.46077 198.33 8.62697 198.216 8.84548C198.105 9.06092 198.048 9.32098 198.045 9.62567Z" fill="black"/>
<path d="M249.119 81.9751V74.8842H251.025V76.1214H251.099C251.229 75.6813 251.445 75.3489 251.75 75.1242C252.055 74.8965 252.406 74.7826 252.803 74.7826C252.901 74.7826 253.007 74.7888 253.121 74.8011C253.235 74.8134 253.335 74.8303 253.421 74.8519V76.5969C253.329 76.5692 253.201 76.5446 253.038 76.523C252.875 76.5015 252.726 76.4907 252.59 76.4907C252.301 76.4907 252.043 76.5538 251.815 76.68C251.59 76.8031 251.412 76.9755 251.279 77.197C251.15 77.4186 251.085 77.6741 251.085 77.9634V81.9751H249.119ZM257.34 82.1136C256.61 82.1136 255.982 81.9659 255.456 81.6704C254.933 81.3719 254.53 80.9502 254.247 80.4055C253.963 79.8577 253.822 79.2098 253.822 78.462C253.822 77.7326 253.963 77.0924 254.247 76.5415C254.53 75.9906 254.928 75.5613 255.442 75.2535C255.959 74.9457 256.566 74.7919 257.261 74.7919C257.729 74.7919 258.164 74.8673 258.568 75.0181C258.974 75.1658 259.328 75.3889 259.629 75.6875C259.934 75.986 260.171 76.3615 260.34 76.8139C260.51 77.2632 260.594 77.7895 260.594 78.3927V78.9328H254.607V77.7141H258.743C258.743 77.4309 258.681 77.1801 258.558 76.9616C258.435 76.7431 258.264 76.5723 258.046 76.4492C257.83 76.323 257.58 76.2599 257.293 76.2599C256.995 76.2599 256.73 76.3291 256.499 76.4676C256.272 76.6031 256.093 76.7862 255.964 77.017C255.835 77.2447 255.768 77.4987 255.765 77.7787V78.9375C255.765 79.2883 255.83 79.5915 255.959 79.8469C256.092 80.1023 256.278 80.2993 256.518 80.4378C256.758 80.5763 257.043 80.6456 257.372 80.6456C257.59 80.6456 257.79 80.6148 257.972 80.5532C258.154 80.4917 258.309 80.3993 258.438 80.2762C258.568 80.1531 258.666 80.0023 258.734 79.8238L260.553 79.9438C260.46 80.3809 260.271 80.7625 259.985 81.0887C259.702 81.4119 259.335 81.6643 258.886 81.8458C258.44 82.0243 257.924 82.1136 257.34 82.1136ZM265.081 82.1136C264.355 82.1136 263.73 81.9597 263.207 81.6519C262.687 81.3411 262.287 80.9102 262.007 80.3593C261.73 79.8084 261.591 79.1744 261.591 78.4573C261.591 77.731 261.731 77.0939 262.011 76.5461C262.295 75.9952 262.696 75.5659 263.216 75.2581C263.736 74.9473 264.355 74.7919 265.072 74.7919C265.691 74.7919 266.232 74.9042 266.697 75.1289C267.162 75.3535 267.53 75.669 267.801 76.0752C268.071 76.4815 268.221 76.9585 268.248 77.5063H266.392C266.34 77.1524 266.202 76.8677 265.977 76.6523C265.755 76.4338 265.465 76.3245 265.104 76.3245C264.8 76.3245 264.534 76.4076 264.306 76.5738C264.081 76.7369 263.906 76.9755 263.78 77.2894C263.653 77.6033 263.59 77.9834 263.59 78.4296C263.59 78.8821 263.652 79.2668 263.775 79.5838C263.901 79.9008 264.078 80.1424 264.306 80.3085C264.534 80.4747 264.8 80.5578 265.104 80.5578C265.329 80.5578 265.531 80.5117 265.709 80.4193C265.891 80.327 266.04 80.1931 266.157 80.0177C266.277 79.8392 266.356 79.6253 266.392 79.376H268.248C268.218 79.9177 268.07 80.3947 267.805 80.8071C267.544 81.2165 267.182 81.5365 266.72 81.7674C266.259 81.9982 265.712 82.1136 265.081 82.1136ZM271.474 77.8757V81.9751H269.507V72.5206H271.419V76.1353H271.502C271.662 75.7167 271.92 75.3889 272.277 75.1519C272.634 74.9119 273.082 74.7919 273.621 74.7919C274.113 74.7919 274.542 74.8996 274.909 75.115C275.278 75.3274 275.564 75.6336 275.767 76.0337C275.974 76.4307 276.075 76.9062 276.072 77.4602V81.9751H274.105V77.811C274.109 77.374 273.998 77.0339 273.773 76.7908C273.551 76.5477 273.241 76.4261 272.841 76.4261C272.573 76.4261 272.336 76.483 272.13 76.5969C271.926 76.7108 271.766 76.877 271.65 77.0955C271.536 77.3109 271.477 77.571 271.474 77.8757ZM281.391 74.8842V76.3615H277.121V74.8842H281.391ZM278.091 73.1853H280.057V79.7961C280.057 79.9777 280.085 80.1193 280.14 80.2208C280.196 80.3193 280.273 80.3886 280.371 80.4286C280.473 80.4686 280.59 80.4886 280.722 80.4886C280.814 80.4886 280.907 80.4809 280.999 80.4655C281.091 80.447 281.162 80.4332 281.211 80.424L281.521 81.8874C281.422 81.9182 281.284 81.9536 281.105 81.9936C280.927 82.0367 280.71 82.0628 280.454 82.072C279.98 82.0905 279.565 82.0274 279.208 81.8828C278.854 81.7381 278.578 81.5134 278.381 81.2088C278.185 80.9041 278.088 80.5194 278.091 80.0546V73.1853ZM288.483 76.9062L286.683 77.017C286.652 76.8631 286.586 76.7246 286.485 76.6015C286.383 76.4753 286.249 76.3753 286.083 76.3014C285.92 76.2245 285.724 76.186 285.497 76.186C285.192 76.186 284.935 76.2507 284.726 76.3799C284.516 76.5061 284.412 76.6754 284.412 76.8877C284.412 77.057 284.479 77.2001 284.615 77.3171C284.75 77.434 284.983 77.5279 285.312 77.5987L286.595 77.8572C287.285 77.9988 287.799 78.2265 288.137 78.5404C288.476 78.8544 288.645 79.2668 288.645 79.7777C288.645 80.2424 288.508 80.6502 288.234 81.001C287.963 81.3519 287.591 81.6258 287.117 81.8228C286.646 82.0166 286.103 82.1136 285.487 82.1136C284.549 82.1136 283.801 81.9182 283.244 81.5273C282.69 81.1334 282.365 80.5978 282.27 79.9208L284.204 79.8192C284.262 80.1054 284.404 80.3239 284.629 80.4747C284.853 80.6225 285.141 80.6963 285.492 80.6963C285.837 80.6963 286.114 80.6302 286.323 80.4978C286.535 80.3624 286.643 80.1885 286.646 79.9762C286.643 79.7977 286.568 79.6515 286.42 79.5376C286.272 79.4206 286.044 79.3314 285.737 79.2698L284.509 79.0252C283.816 78.8867 283.301 78.6466 282.962 78.305C282.627 77.9634 282.459 77.5279 282.459 76.9985C282.459 76.543 282.582 76.1506 282.828 75.8213C283.078 75.492 283.427 75.2381 283.876 75.0596C284.329 74.8811 284.858 74.7919 285.464 74.7919C286.36 74.7919 287.065 74.9811 287.579 75.3597C288.096 75.7382 288.397 76.2537 288.483 76.9062Z" fill="black"/>
<path d="M173.913 147.206V143.134H175.879V150.225H173.991V148.937H173.917C173.757 149.353 173.491 149.687 173.119 149.939C172.749 150.191 172.298 150.317 171.766 150.317C171.292 150.317 170.875 150.21 170.515 149.994C170.155 149.779 169.873 149.473 169.67 149.076C169.47 148.679 169.368 148.203 169.365 147.649V143.134H171.332V147.298C171.335 147.717 171.447 148.048 171.669 148.291C171.891 148.534 172.188 148.655 172.56 148.655C172.797 148.655 173.019 148.602 173.225 148.494C173.431 148.383 173.597 148.22 173.723 148.005C173.853 147.789 173.916 147.523 173.913 147.206ZM179.419 146.126V150.225H177.452V143.134H179.327V144.385H179.41C179.567 143.973 179.83 143.647 180.199 143.407C180.568 143.163 181.016 143.042 181.542 143.042C182.035 143.042 182.464 143.15 182.83 143.365C183.197 143.58 183.481 143.888 183.685 144.288C183.888 144.685 183.989 145.159 183.989 145.71V150.225H182.023V146.061C182.026 145.627 181.915 145.289 181.69 145.045C181.466 144.799 181.156 144.676 180.762 144.676C180.498 144.676 180.264 144.733 180.061 144.847C179.861 144.961 179.704 145.127 179.59 145.345C179.479 145.561 179.422 145.821 179.419 146.126ZM189.311 143.134V144.611H185.041V143.134H189.311ZM186.01 141.435H187.977V148.046C187.977 148.228 188.004 148.369 188.06 148.471C188.115 148.569 188.192 148.639 188.291 148.679C188.392 148.719 188.509 148.739 188.641 148.739C188.734 148.739 188.826 148.731 188.918 148.716C189.011 148.697 189.082 148.683 189.131 148.674L189.44 150.137C189.342 150.168 189.203 150.204 189.025 150.244C188.846 150.287 188.629 150.313 188.374 150.322C187.9 150.341 187.484 150.277 187.127 150.133C186.773 149.988 186.498 149.763 186.301 149.459C186.104 149.154 186.007 148.769 186.01 148.305V141.435ZM193.747 150.364C193.018 150.364 192.39 150.216 191.864 149.92C191.341 149.622 190.937 149.2 190.654 148.655C190.371 148.108 190.23 147.46 190.23 146.712C190.23 145.983 190.371 145.342 190.654 144.792C190.937 144.241 191.336 143.811 191.85 143.504C192.367 143.196 192.973 143.042 193.669 143.042C194.137 143.042 194.572 143.117 194.975 143.268C195.382 143.416 195.735 143.639 196.037 143.937C196.342 144.236 196.579 144.611 196.748 145.064C196.917 145.513 197.002 146.039 197.002 146.643V147.183H191.014V145.964H195.151C195.151 145.681 195.089 145.43 194.966 145.212C194.843 144.993 194.672 144.822 194.454 144.699C194.238 144.573 193.987 144.51 193.701 144.51C193.403 144.51 193.138 144.579 192.907 144.718C192.679 144.853 192.501 145.036 192.372 145.267C192.242 145.495 192.176 145.749 192.173 146.029V147.187C192.173 147.538 192.238 147.841 192.367 148.097C192.499 148.352 192.686 148.549 192.926 148.688C193.166 148.826 193.45 148.896 193.78 148.896C193.998 148.896 194.198 148.865 194.38 148.803C194.561 148.742 194.717 148.649 194.846 148.526C194.975 148.403 195.074 148.252 195.141 148.074L196.96 148.194C196.868 148.631 196.679 149.013 196.393 149.339C196.109 149.662 195.743 149.914 195.294 150.096C194.848 150.274 194.332 150.364 193.747 150.364ZM200.252 146.126V150.225H198.285V143.134H200.16V144.385H200.243C200.4 143.973 200.663 143.647 201.032 143.407C201.401 143.163 201.849 143.042 202.375 143.042C202.868 143.042 203.297 143.15 203.663 143.365C204.03 143.58 204.314 143.888 204.518 144.288C204.721 144.685 204.822 145.159 204.822 145.71V150.225H202.856V146.061C202.859 145.627 202.748 145.289 202.523 145.045C202.299 144.799 201.989 144.676 201.595 144.676C201.331 144.676 201.097 144.733 200.894 144.847C200.694 144.961 200.537 145.127 200.423 145.345C200.312 145.561 200.255 145.821 200.252 146.126Z" fill="black"/>
<path d="M95.7993 72.5206V81.9751H93.8327V72.5206H95.7993ZM97.3746 81.9751V74.8842H99.3413V81.9751H97.3746ZM98.3626 73.9701C98.0702 73.9701 97.8194 73.8732 97.6101 73.6793C97.4039 73.4823 97.3008 73.2469 97.3008 72.973C97.3008 72.7021 97.4039 72.4698 97.6101 72.2759C97.8194 72.0789 98.0702 71.9804 98.3626 71.9804C98.6549 71.9804 98.9042 72.0789 99.1104 72.2759C99.3197 72.4698 99.4244 72.7021 99.4244 72.973C99.4244 73.2469 99.3197 73.4823 99.1104 73.6793C98.9042 73.8732 98.6549 73.9701 98.3626 73.9701ZM102.883 77.8757V81.9751H100.917V74.8842H102.791V76.1353H102.874C103.031 75.7228 103.294 75.3966 103.663 75.1566C104.033 74.9134 104.481 74.7919 105.007 74.7919C105.499 74.7919 105.929 74.8996 106.295 75.115C106.661 75.3304 106.946 75.6382 107.149 76.0383C107.352 76.4353 107.454 76.9093 107.454 77.4602V81.9751H105.487V77.811C105.49 77.3771 105.379 77.0385 105.155 76.7954C104.93 76.5492 104.621 76.4261 104.227 76.4261C103.962 76.4261 103.728 76.483 103.525 76.5969C103.325 76.7108 103.168 76.877 103.054 77.0955C102.943 77.3109 102.886 77.571 102.883 77.8757ZM110.786 79.9346L110.79 77.5756H111.076L113.348 74.8842H115.605L112.554 78.4481H112.087L110.786 79.9346ZM109.004 81.9751V72.5206H110.97V81.9751H109.004ZM113.435 81.9751L111.349 78.8867L112.66 77.4971L115.739 81.9751H113.435ZM122.47 76.9062L120.669 77.017C120.639 76.8631 120.572 76.7246 120.471 76.6015C120.369 76.4753 120.235 76.3753 120.069 76.3014C119.906 76.2245 119.711 76.186 119.483 76.186C119.178 76.186 118.921 76.2507 118.712 76.3799C118.503 76.5061 118.398 76.6754 118.398 76.8877C118.398 77.057 118.466 77.2001 118.601 77.3171C118.737 77.434 118.969 77.5279 119.298 77.5987L120.582 77.8572C121.271 77.9988 121.785 78.2265 122.124 78.5404C122.462 78.8544 122.631 79.2668 122.631 79.7777C122.631 80.2424 122.494 80.6502 122.221 81.001C121.95 81.3519 121.577 81.6258 121.103 81.8228C120.632 82.0166 120.089 82.1136 119.474 82.1136C118.535 82.1136 117.787 81.9182 117.23 81.5273C116.676 81.1334 116.351 80.5978 116.256 79.9208L118.19 79.8192C118.249 80.1054 118.39 80.3239 118.615 80.4747C118.84 80.6225 119.127 80.6963 119.478 80.6963C119.823 80.6963 120.1 80.6302 120.309 80.4978C120.522 80.3624 120.629 80.1885 120.632 79.9762C120.629 79.7977 120.554 79.6515 120.406 79.5376C120.259 79.4206 120.031 79.3314 119.723 79.2698L118.495 79.0252C117.803 78.8867 117.287 78.6466 116.949 78.305C116.613 77.9634 116.445 77.5279 116.445 76.9985C116.445 76.543 116.568 76.1506 116.815 75.8213C117.064 75.492 117.413 75.2381 117.863 75.0596C118.315 74.8811 118.844 74.7919 119.451 74.7919C120.346 74.7919 121.051 74.9811 121.565 75.3597C122.082 75.7382 122.384 76.2537 122.47 76.9062Z" fill="black"/>
<path d="M184.084 81.2251L155.077 129.588C152.367 134.107 147.483 136.872 142.213 136.872H121.517" stroke="black" stroke-width="2" stroke-linecap="round"/>
<path d="M1.45943 141.873V132.418H5.24494C5.94049 132.418 6.52063 132.521 6.98535 132.727C7.45008 132.934 7.79939 133.22 8.03329 133.586C8.26719 133.949 8.38414 134.368 8.38414 134.842C8.38414 135.211 8.31028 135.536 8.16255 135.816C8.01483 136.093 7.8117 136.32 7.55318 136.499C7.29773 136.674 7.00536 136.799 6.67605 136.873V136.965C7.03613 136.981 7.37314 137.082 7.68706 137.27C8.00405 137.458 8.26104 137.721 8.45801 138.059C8.65498 138.395 8.75346 138.795 8.75346 139.26C8.75346 139.761 8.62882 140.209 8.37953 140.603C8.13332 140.994 7.76861 141.303 7.28542 141.531C6.80223 141.759 6.20671 141.873 5.49885 141.873H1.45943ZM3.45836 140.238H5.08798C5.64503 140.238 6.05128 140.132 6.30673 139.92C6.56217 139.704 6.6899 139.418 6.6899 139.061C6.6899 138.8 6.62681 138.569 6.50062 138.369C6.37444 138.169 6.1944 138.012 5.96049 137.898C5.72967 137.784 5.45422 137.727 5.13414 137.727H3.45836V140.238ZM3.45836 136.374H4.94025C5.21416 136.374 5.4573 136.327 5.66966 136.231C5.88509 136.133 6.05436 135.994 6.17747 135.816C6.30365 135.637 6.36674 135.423 6.36674 135.174C6.36674 134.832 6.24518 134.557 6.00204 134.348C5.76199 134.138 5.42037 134.034 4.97718 134.034H3.45836V136.374ZM13.2488 142.011C12.5194 142.011 11.8915 141.863 11.3652 141.568C10.842 141.269 10.4389 140.848 10.1557 140.303C9.87257 139.755 9.731 139.107 9.731 138.359C9.731 137.63 9.87257 136.99 10.1557 136.439C10.4389 135.888 10.8374 135.459 11.3514 135.151C11.8684 134.843 12.4747 134.689 13.1703 134.689C13.6381 134.689 14.0736 134.765 14.4767 134.916C14.883 135.063 15.2369 135.286 15.5385 135.585C15.8432 135.883 16.0802 136.259 16.2495 136.711C16.4187 137.161 16.5034 137.687 16.5034 138.29V138.83H10.5158V137.612H14.6522C14.6522 137.328 14.5906 137.078 14.4675 136.859C14.3444 136.641 14.1736 136.47 13.9551 136.347C13.7396 136.22 13.4888 136.157 13.2026 136.157C12.9041 136.157 12.6394 136.227 12.4086 136.365C12.1808 136.501 12.0023 136.684 11.873 136.914C11.7438 137.142 11.6776 137.396 11.6745 137.676V138.835C11.6745 139.186 11.7392 139.489 11.8684 139.744C12.0008 140 12.187 140.197 12.427 140.335C12.6671 140.474 12.9518 140.543 13.2811 140.543C13.4996 140.543 13.6996 140.512 13.8812 140.451C14.0628 140.389 14.2182 140.297 14.3475 140.174C14.4767 140.051 14.5752 139.9 14.6429 139.721L16.4618 139.841C16.3695 140.278 16.1802 140.66 15.894 140.986C15.6109 141.309 15.2446 141.562 14.7953 141.743C14.349 141.922 13.8335 142.011 13.2488 142.011ZM23.6866 136.804L21.8862 136.914C21.8554 136.761 21.7892 136.622 21.6877 136.499C21.5861 136.373 21.4522 136.273 21.286 136.199C21.1229 136.122 20.9275 136.083 20.6998 136.083C20.3951 136.083 20.1381 136.148 19.9288 136.277C19.7195 136.404 19.6149 136.573 19.6149 136.785C19.6149 136.954 19.6826 137.098 19.818 137.215C19.9534 137.331 20.1858 137.425 20.5151 137.496L21.7985 137.755C22.4879 137.896 23.0018 138.124 23.3404 138.438C23.6789 138.752 23.8482 139.164 23.8482 139.675C23.8482 140.14 23.7112 140.548 23.4373 140.898C23.1665 141.249 22.7941 141.523 22.3201 141.72C21.8493 141.914 21.306 142.011 20.6905 142.011C19.7518 142.011 19.004 141.816 18.4469 141.425C17.8929 141.031 17.5682 140.495 17.4728 139.818L19.4071 139.717C19.4656 140.003 19.6072 140.221 19.8319 140.372C20.0565 140.52 20.3443 140.594 20.6951 140.594C21.0398 140.594 21.3168 140.528 21.5261 140.395C21.7385 140.26 21.8462 140.086 21.8493 139.874C21.8462 139.695 21.7708 139.549 21.623 139.435C21.4753 139.318 21.2476 139.229 20.9398 139.167L19.7118 138.923C19.0194 138.784 18.5038 138.544 18.1653 138.202C17.8298 137.861 17.6621 137.425 17.6621 136.896C17.6621 136.441 17.7852 136.048 18.0314 135.719C18.2807 135.389 18.63 135.136 19.0794 134.957C19.5318 134.779 20.0611 134.689 20.6674 134.689C21.563 134.689 22.2678 134.879 22.7818 135.257C23.2988 135.636 23.6004 136.151 23.6866 136.804ZM28.8582 134.782V136.259H24.588V134.782H28.8582ZM25.5574 133.083H27.5241V139.694C27.5241 139.875 27.5518 140.017 27.6072 140.118C27.6626 140.217 27.7395 140.286 27.838 140.326C27.9395 140.366 28.0565 140.386 28.1888 140.386C28.2812 140.386 28.3735 140.378 28.4658 140.363C28.5581 140.345 28.6289 140.331 28.6782 140.321L28.9875 141.785C28.889 141.816 28.7505 141.851 28.572 141.891C28.3935 141.934 28.1765 141.96 27.9211 141.97C27.4471 141.988 27.0316 141.925 26.6746 141.78C26.3207 141.636 26.0452 141.411 25.8483 141.106C25.6513 140.802 25.5544 140.417 25.5574 139.952V133.083ZM32.1613 142.006C31.7089 142.006 31.3057 141.928 30.9518 141.771C30.5979 141.611 30.3178 141.376 30.1116 141.065C29.9085 140.751 29.8069 140.36 29.8069 139.892C29.8069 139.498 29.8792 139.167 30.0239 138.9C30.1685 138.632 30.3655 138.416 30.6148 138.253C30.8641 138.09 31.1472 137.967 31.4642 137.884C31.7843 137.801 32.1198 137.742 32.4706 137.708C32.883 137.665 33.2154 137.625 33.4678 137.588C33.7201 137.548 33.9033 137.49 34.0171 137.413C34.131 137.336 34.1879 137.222 34.1879 137.071V137.044C34.1879 136.751 34.0956 136.525 33.911 136.365C33.7294 136.205 33.4709 136.125 33.1354 136.125C32.7815 136.125 32.4999 136.204 32.2906 136.36C32.0813 136.514 31.9428 136.708 31.8751 136.942L30.0562 136.794C30.1485 136.364 30.3301 135.991 30.6009 135.677C30.8718 135.36 31.2211 135.117 31.6489 134.948C32.0798 134.775 32.5783 134.689 33.1446 134.689C33.5386 134.689 33.9156 134.735 34.2757 134.828C34.6388 134.92 34.9604 135.063 35.2405 135.257C35.5236 135.451 35.7468 135.7 35.9099 136.005C36.073 136.307 36.1546 136.668 36.1546 137.09V141.873H34.2895V140.889H34.2341C34.1202 141.111 33.9679 141.306 33.7771 141.476C33.5863 141.642 33.357 141.773 33.0892 141.868C32.8215 141.96 32.5122 142.006 32.1613 142.006ZM32.7245 140.649C33.0138 140.649 33.2693 140.592 33.4909 140.478C33.7124 140.361 33.8863 140.204 34.0125 140.008C34.1387 139.811 34.2018 139.587 34.2018 139.338V138.586C34.1402 138.626 34.0556 138.663 33.9479 138.696C33.8432 138.727 33.7248 138.756 33.5924 138.784C33.4601 138.809 33.3277 138.832 33.1954 138.853C33.0631 138.872 32.943 138.889 32.8353 138.904C32.6045 138.938 32.4029 138.992 32.2306 139.066C32.0582 139.14 31.9243 139.24 31.8289 139.366C31.7335 139.489 31.6858 139.643 31.6858 139.827C31.6858 140.095 31.7828 140.3 31.9767 140.441C32.1736 140.58 32.4229 140.649 32.7245 140.649ZM31.8105 133.812C31.5458 133.812 31.318 133.72 31.1272 133.535C30.9364 133.347 30.841 133.126 30.841 132.87C30.841 132.609 30.9364 132.387 31.1272 132.206C31.318 132.024 31.5458 131.933 31.8105 131.933C32.0782 131.933 32.3044 132.024 32.4891 132.206C32.6768 132.387 32.7707 132.609 32.7707 132.87C32.7707 133.126 32.6768 133.347 32.4891 133.535C32.3044 133.72 32.0782 133.812 31.8105 133.812ZM34.6357 133.812C34.3711 133.812 34.1433 133.72 33.9525 133.535C33.7617 133.347 33.6663 133.126 33.6663 132.87C33.6663 132.609 33.7617 132.387 33.9525 132.206C34.1433 132.024 34.3711 131.933 34.6357 131.933C34.9035 131.933 35.1297 132.024 35.3144 132.206C35.5021 132.387 35.596 132.609 35.596 132.87C35.596 133.126 35.5021 133.347 35.3144 133.535C35.1297 133.72 34.9035 133.812 34.6357 133.812ZM41.452 134.782V136.259H37.1817V134.782H41.452ZM38.1512 133.083H40.1178V139.694C40.1178 139.875 40.1455 140.017 40.2009 140.118C40.2563 140.217 40.3332 140.286 40.4317 140.326C40.5333 140.366 40.6502 140.386 40.7826 140.386C40.8749 140.386 40.9672 140.378 41.0596 140.363C41.1519 140.345 41.2227 140.331 41.2719 140.321L41.5812 141.785C41.4827 141.816 41.3443 141.851 41.1657 141.891C40.9872 141.934 40.7703 141.96 40.5148 141.97C40.0409 141.988 39.6254 141.925 39.2684 141.78C38.9144 141.636 38.639 141.411 38.442 141.106C38.2451 140.802 38.1481 140.417 38.1512 139.952V133.083ZM42.733 141.873V134.782H44.6997V141.873H42.733ZM43.721 133.868C43.4286 133.868 43.1778 133.771 42.9685 133.577C42.7623 133.38 42.6592 133.144 42.6592 132.87C42.6592 132.6 42.7623 132.367 42.9685 132.173C43.1778 131.976 43.4286 131.878 43.721 131.878C44.0133 131.878 44.2626 131.976 44.4688 132.173C44.6781 132.367 44.7828 132.6 44.7828 132.87C44.7828 133.144 44.6781 133.38 44.4688 133.577C44.2626 133.771 44.0133 133.868 43.721 133.868ZM49.4696 144.679C48.8326 144.679 48.2863 144.592 47.8308 144.416C47.3784 144.244 47.0183 144.008 46.7505 143.71C46.4828 143.411 46.3089 143.076 46.2289 142.704L48.0478 142.459C48.1032 142.6 48.1909 142.733 48.3109 142.856C48.4309 142.979 48.5894 143.077 48.7864 143.151C48.9864 143.228 49.2296 143.267 49.5158 143.267C49.9436 143.267 50.296 143.162 50.573 142.953C50.853 142.747 50.9931 142.4 50.9931 141.914V140.617H50.91C50.8238 140.814 50.6945 141 50.5222 141.175C50.3498 141.351 50.1283 141.494 49.8574 141.605C49.5866 141.716 49.2634 141.771 48.888 141.771C48.3555 141.771 47.8708 141.648 47.4338 141.402C46.9998 141.152 46.6536 140.772 46.3951 140.261C46.1396 139.747 46.0119 139.098 46.0119 138.313C46.0119 137.51 46.1427 136.839 46.4043 136.3C46.6659 135.762 47.0137 135.359 47.4476 135.091C47.8846 134.823 48.3632 134.689 48.8833 134.689C49.2804 134.689 49.6127 134.757 49.8805 134.892C50.1483 135.025 50.3637 135.191 50.5268 135.391C50.693 135.588 50.8207 135.782 50.91 135.973H50.9838V134.782H52.9366V141.942C52.9366 142.545 52.7889 143.05 52.4934 143.456C52.198 143.862 51.7886 144.167 51.2654 144.37C50.7453 144.576 50.1467 144.679 49.4696 144.679ZM49.5112 140.294C49.8282 140.294 50.0959 140.215 50.3145 140.058C50.536 139.898 50.7053 139.67 50.8223 139.375C50.9423 139.077 51.0023 138.72 51.0023 138.304C51.0023 137.889 50.9438 137.528 50.8269 137.224C50.7099 136.916 50.5407 136.677 50.3191 136.508C50.0975 136.339 49.8282 136.254 49.5112 136.254C49.188 136.254 48.9157 136.342 48.6941 136.517C48.4725 136.69 48.3047 136.93 48.1909 137.238C48.077 137.545 48.0201 137.901 48.0201 138.304C48.0201 138.713 48.077 139.067 48.1909 139.366C48.3078 139.661 48.4756 139.891 48.6941 140.054C48.9157 140.214 49.188 140.294 49.5112 140.294ZM59.0488 138.853V134.782H61.0154V141.873H59.1273V140.585H59.0534C58.8934 141 58.6272 141.334 58.2548 141.586C57.8855 141.839 57.4346 141.965 56.9022 141.965C56.4282 141.965 56.0112 141.857 55.6511 141.642C55.291 141.426 55.0094 141.12 54.8063 140.723C54.6062 140.326 54.5047 139.851 54.5016 139.297V134.782H56.4682V138.946C56.4713 139.364 56.5836 139.695 56.8052 139.938C57.0268 140.181 57.3238 140.303 57.6962 140.303C57.9332 140.303 58.1548 140.249 58.361 140.141C58.5672 140.031 58.7334 139.867 58.8596 139.652C58.9888 139.437 59.0519 139.17 59.0488 138.853ZM64.5551 137.773V141.873H62.5885V134.782H64.4628V136.033H64.5459C64.7029 135.62 64.966 135.294 65.3353 135.054C65.7046 134.811 66.1524 134.689 66.6787 134.689C67.1711 134.689 67.6005 134.797 67.9667 135.012C68.3329 135.228 68.6176 135.536 68.8208 135.936C69.0239 136.333 69.1254 136.807 69.1254 137.358V141.873H67.1588V137.708C67.1619 137.275 67.0511 136.936 66.8264 136.693C66.6018 136.447 66.2925 136.324 65.8985 136.324C65.6338 136.324 65.3999 136.38 65.1968 136.494C64.9968 136.608 64.8398 136.774 64.7259 136.993C64.6151 137.208 64.5582 137.468 64.5551 137.773ZM73.87 144.679C73.233 144.679 72.6867 144.592 72.2312 144.416C71.7788 144.244 71.4187 144.008 71.1509 143.71C70.8832 143.411 70.7093 143.076 70.6293 142.704L72.4482 142.459C72.5036 142.6 72.5913 142.733 72.7113 142.856C72.8313 142.979 72.9898 143.077 73.1868 143.151C73.3868 143.228 73.63 143.267 73.9162 143.267C74.344 143.267 74.6964 143.162 74.9734 142.953C75.2534 142.747 75.3935 142.4 75.3935 141.914V140.617H75.3104C75.2242 140.814 75.0949 141 74.9226 141.175C74.7502 141.351 74.5286 141.494 74.2578 141.605C73.987 141.716 73.6638 141.771 73.2884 141.771C72.7559 141.771 72.2712 141.648 71.8342 141.402C71.4002 141.152 71.054 140.772 70.7955 140.261C70.54 139.747 70.4123 139.098 70.4123 138.313C70.4123 137.51 70.5431 136.839 70.8047 136.3C71.0663 135.762 71.4141 135.359 71.848 135.091C72.285 134.823 72.7636 134.689 73.2837 134.689C73.6808 134.689 74.0131 134.757 74.2809 134.892C74.5487 135.025 74.7641 135.191 74.9272 135.391C75.0934 135.588 75.2211 135.782 75.3104 135.973H75.3842V134.782H77.337V141.942C77.337 142.545 77.1893 143.05 76.8938 143.456C76.5984 143.862 76.189 144.167 75.6658 144.37C75.1457 144.576 74.5471 144.679 73.87 144.679ZM73.9116 140.294C74.2286 140.294 74.4963 140.215 74.7148 140.058C74.9364 139.898 75.1057 139.67 75.2227 139.375C75.3427 139.077 75.4027 138.72 75.4027 138.304C75.4027 137.889 75.3442 137.528 75.2273 137.224C75.1103 136.916 74.9411 136.677 74.7195 136.508C74.4979 136.339 74.2286 136.254 73.9116 136.254C73.5884 136.254 73.3161 136.342 73.0945 136.517C72.8729 136.69 72.7051 136.93 72.5913 137.238C72.4774 137.545 72.4205 137.901 72.4205 138.304C72.4205 138.713 72.4774 139.067 72.5913 139.366C72.7082 139.661 72.8759 139.891 73.0945 140.054C73.3161 140.214 73.5884 140.294 73.9116 140.294ZM84.8018 136.804L83.0014 136.914C82.9706 136.761 82.9045 136.622 82.8029 136.499C82.7013 136.373 82.5675 136.273 82.4013 136.199C82.2382 136.122 82.0427 136.083 81.815 136.083C81.5103 136.083 81.2533 136.148 81.044 136.277C80.8348 136.404 80.7301 136.573 80.7301 136.785C80.7301 136.954 80.7978 137.098 80.9332 137.215C81.0687 137.331 81.301 137.425 81.6303 137.496L82.9137 137.755C83.6031 137.896 84.1171 138.124 84.4556 138.438C84.7942 138.752 84.9634 139.164 84.9634 139.675C84.9634 140.14 84.8265 140.548 84.5526 140.898C84.2817 141.249 83.9093 141.523 83.4354 141.72C82.9645 141.914 82.4213 142.011 81.8058 142.011C80.8671 142.011 80.1192 141.816 79.5621 141.425C79.0082 141.031 78.6835 140.495 78.5881 139.818L80.5224 139.717C80.5808 140.003 80.7224 140.221 80.9471 140.372C81.1718 140.52 81.4595 140.594 81.8104 140.594C82.1551 140.594 82.4321 140.528 82.6413 140.395C82.8537 140.26 82.9614 140.086 82.9645 139.874C82.9614 139.695 82.886 139.549 82.7383 139.435C82.5906 139.318 82.3628 139.229 82.055 139.167L80.8271 138.923C80.1346 138.784 79.6191 138.544 79.2805 138.202C78.9451 137.861 78.7773 137.425 78.7773 136.896C78.7773 136.441 78.9004 136.048 79.1467 135.719C79.396 135.389 79.7453 135.136 80.1946 134.957C80.647 134.779 81.1764 134.689 81.7827 134.689C82.6783 134.689 83.383 134.879 83.897 135.257C84.4141 135.636 84.7157 136.151 84.8018 136.804ZM89.9735 134.782V136.259H85.7032V134.782H89.9735ZM86.6727 133.083H88.6393V139.694C88.6393 139.875 88.667 140.017 88.7224 140.118C88.7778 140.217 88.8547 140.286 88.9532 140.326C89.0548 140.366 89.1717 140.386 89.3041 140.386C89.3964 140.386 89.4887 140.378 89.5811 140.363C89.6734 140.345 89.7442 140.331 89.7934 140.321L90.1027 141.785C90.0042 141.816 89.8657 141.851 89.6872 141.891C89.5087 141.934 89.2918 141.96 89.0363 141.97C88.5624 141.988 88.1469 141.925 87.7899 141.78C87.4359 141.636 87.1605 141.411 86.9635 141.106C86.7665 140.802 86.6696 140.417 86.6727 139.952V133.083ZM93.2765 142.006C92.8241 142.006 92.421 141.928 92.067 141.771C91.7131 141.611 91.433 141.376 91.2268 141.065C91.0237 140.751 90.9221 140.36 90.9221 139.892C90.9221 139.498 90.9945 139.167 91.1391 138.9C91.2838 138.632 91.4807 138.416 91.73 138.253C91.9793 138.09 92.2625 137.967 92.5795 137.884C92.8995 137.801 93.235 137.742 93.5858 137.708C93.9983 137.665 94.3306 137.625 94.583 137.588C94.8354 137.548 95.0185 137.49 95.1324 137.413C95.2462 137.336 95.3032 137.222 95.3032 137.071V137.044C95.3032 136.751 95.2108 136.525 95.0262 136.365C94.8446 136.205 94.5861 136.125 94.2506 136.125C93.8967 136.125 93.6151 136.204 93.4058 136.36C93.1965 136.514 93.058 136.708 92.9903 136.942L91.1714 136.794C91.2638 136.364 91.4453 135.991 91.7162 135.677C91.987 135.36 92.3363 135.117 92.7641 134.948C93.195 134.775 93.6936 134.689 94.2599 134.689C94.6538 134.689 95.0308 134.735 95.3909 134.828C95.7541 134.92 96.0757 135.063 96.3557 135.257C96.6389 135.451 96.862 135.7 97.0251 136.005C97.1882 136.307 97.2698 136.668 97.2698 137.09V141.873H95.4047V140.889H95.3493C95.2355 141.111 95.0831 141.306 94.8923 141.476C94.7015 141.642 94.4722 141.773 94.2045 141.868C93.9367 141.96 93.6274 142.006 93.2765 142.006ZM93.8398 140.649C94.1291 140.649 94.3845 140.592 94.6061 140.478C94.8277 140.361 95.0016 140.204 95.1278 140.008C95.2539 139.811 95.317 139.587 95.317 139.338V138.586C95.2555 138.626 95.1708 138.663 95.0631 138.696C94.9585 138.727 94.84 138.756 94.7077 138.784C94.5753 138.809 94.443 138.832 94.3106 138.853C94.1783 138.872 94.0583 138.889 93.9506 138.904C93.7197 138.938 93.5181 138.992 93.3458 139.066C93.1734 139.14 93.0396 139.24 92.9442 139.366C92.8488 139.489 92.801 139.643 92.801 139.827C92.801 140.095 92.898 140.3 93.0919 140.441C93.2889 140.58 93.5381 140.649 93.8398 140.649ZM104.695 136.804L102.895 136.914C102.864 136.761 102.798 136.622 102.696 136.499C102.595 136.373 102.461 136.273 102.295 136.199C102.132 136.122 101.936 136.083 101.709 136.083C101.404 136.083 101.147 136.148 100.938 136.277C100.728 136.404 100.624 136.573 100.624 136.785C100.624 136.954 100.691 137.098 100.827 137.215C100.962 137.331 101.195 137.425 101.524 137.496L102.807 137.755C103.497 137.896 104.011 138.124 104.349 138.438C104.688 138.752 104.857 139.164 104.857 139.675C104.857 140.14 104.72 140.548 104.446 140.898C104.175 141.249 103.803 141.523 103.329 141.72C102.858 141.914 102.315 142.011 101.699 142.011C100.761 142.011 100.013 141.816 99.4557 141.425C98.9017 141.031 98.577 140.495 98.4816 139.818L100.416 139.717C100.474 140.003 100.616 140.221 100.841 140.372C101.065 140.52 101.353 140.594 101.704 140.594C102.049 140.594 102.326 140.528 102.535 140.395C102.747 140.26 102.855 140.086 102.858 139.874C102.855 139.695 102.78 139.549 102.632 139.435C102.484 139.318 102.256 139.229 101.949 139.167L100.721 138.923C100.028 138.784 99.5126 138.544 99.1741 138.202C98.8386 137.861 98.6709 137.425 98.6709 136.896C98.6709 136.441 98.794 136.048 99.0402 135.719C99.2895 135.389 99.6388 135.136 100.088 134.957C100.541 134.779 101.07 134.689 101.676 134.689C102.572 134.689 103.277 134.879 103.791 135.257C104.308 135.636 104.609 136.151 104.695 136.804ZM109.867 134.782V136.259H105.597V134.782H109.867ZM106.566 133.083H108.533V139.694C108.533 139.875 108.561 140.017 108.616 140.118C108.671 140.217 108.748 140.286 108.847 140.326C108.948 140.366 109.065 140.386 109.198 140.386C109.29 140.386 109.382 140.378 109.475 140.363C109.567 140.345 109.638 140.331 109.687 140.321L109.996 141.785C109.898 141.816 109.759 141.851 109.581 141.891C109.402 141.934 109.185 141.96 108.93 141.97C108.456 141.988 108.04 141.925 107.683 141.78C107.329 141.636 107.054 141.411 106.857 141.106C106.66 140.802 106.563 140.417 106.566 139.952V133.083ZM114.303 142.011C113.574 142.011 112.946 141.863 112.42 141.568C111.897 141.269 111.494 140.848 111.21 140.303C110.927 139.755 110.786 139.107 110.786 138.359C110.786 137.63 110.927 136.99 111.21 136.439C111.494 135.888 111.892 135.459 112.406 135.151C112.923 134.843 113.529 134.689 114.225 134.689C114.693 134.689 115.128 134.765 115.531 134.916C115.938 135.063 116.292 135.286 116.593 135.585C116.898 135.883 117.135 136.259 117.304 136.711C117.473 137.161 117.558 137.687 117.558 138.29V138.83H111.57V137.612H115.707C115.707 137.328 115.645 137.078 115.522 136.859C115.399 136.641 115.228 136.47 115.01 136.347C114.794 136.22 114.544 136.157 114.257 136.157C113.959 136.157 113.694 136.227 113.463 136.365C113.235 136.501 113.057 136.684 112.928 136.914C112.798 137.142 112.732 137.396 112.729 137.676V138.835C112.729 139.186 112.794 139.489 112.923 139.744C113.055 140 113.242 140.197 113.482 140.335C113.722 140.474 114.006 140.543 114.336 140.543C114.554 140.543 114.754 140.512 114.936 140.451C115.117 140.389 115.273 140.297 115.402 140.174C115.531 140.051 115.63 139.9 115.698 139.721L117.517 139.841C117.424 140.278 117.235 140.66 116.949 140.986C116.666 141.309 116.299 141.562 115.85 141.743C115.404 141.922 114.888 142.011 114.303 142.011Z" fill="black"/>
</svg>
