<svg width="240" height="240" viewBox="0 0 240 240" fill="none" xmlns="http://www.w3.org/2000/svg">
<mask id="mask0_337_1391" style="mask-type:alpha" maskUnits="userSpaceOnUse" x="0" y="0" width="240" height="240">
<rect width="240" height="240" fill="#D9D9D9"/>
</mask>
<g mask="url(#mask0_337_1391)">
<path d="M91.498 226.251L86.248 192.751C84.0814 192.084 81.623 190.959 78.873 189.376C76.123 187.793 73.8314 186.251 71.998 184.751L40.748 199.251L11.748 148.001L40.248 127.251C40.0814 126.251 39.9564 125.043 39.873 123.626C39.7897 122.209 39.748 121.001 39.748 120.001C39.748 119.001 39.7897 117.793 39.873 116.376C39.9564 114.959 40.0814 113.751 40.248 112.751L11.748 91.751L40.748 41.001L72.4981 55.251C74.1647 53.9176 76.3314 52.501 78.998 51.001C81.6647 49.501 84.0814 48.4176 86.248 47.751L91.498 13.501H148.498L153.748 47.501C155.915 48.3343 158.373 49.4593 161.123 50.876C163.873 52.2926 166.165 53.751 167.998 55.251L199.498 41.001L228.248 91.751L199.498 112.251C199.665 113.418 199.831 114.709 199.998 116.126C200.165 117.543 200.248 118.834 200.248 120.001C200.248 121.168 200.165 122.418 199.998 123.751C199.831 125.084 199.665 126.334 199.498 127.501L228.248 148.001L199.248 199.251L167.748 184.751C165.915 186.251 163.706 187.793 161.123 189.376C158.54 190.959 156.081 192.084 153.748 192.751L148.498 226.251H91.498ZM119.498 152.501C128.498 152.501 136.165 149.334 142.498 143.001C148.831 136.668 151.998 129.001 151.998 120.001C151.998 111.001 148.831 103.334 142.498 97.001C136.165 90.6676 128.498 87.501 119.498 87.501C110.498 87.501 102.831 90.6676 96.498 97.001C90.1647 103.334 86.998 111.001 86.998 120.001C86.998 129.001 90.1647 136.668 96.498 143.001C102.831 149.334 110.498 152.501 119.498 152.501Z" fill="#1C1B1F" fill-opacity="0.15"/>
</g>
</svg>
