<svg width="240" height="240" viewBox="0 0 240 240" fill="none" xmlns="http://www.w3.org/2000/svg">
<mask id="mask0_337_1415" style="mask-type:alpha" maskUnits="userSpaceOnUse" x="0" y="0" width="240" height="240">
<rect width="240" height="240" fill="#D9D9D9"/>
</mask>
<g mask="url(#mask0_337_1415)">
<path d="M120.498 210.751C112.498 204.584 103.79 199.501 94.373 195.501C84.9564 191.501 75.1647 189.501 64.9981 189.501C58.3314 189.501 51.8314 190.418 45.498 192.251C39.1647 194.084 33.0814 196.584 27.248 199.751C21.9147 202.418 16.748 202.293 11.748 199.376C6.74805 196.459 4.24805 192.084 4.24805 186.251V66.251C4.24805 62.5843 5.03971 59.2093 6.62305 56.126C8.20638 53.0426 10.5814 50.751 13.748 49.251C21.5814 45.4176 29.7897 42.5843 38.373 40.751C46.9564 38.9176 55.6647 38.001 64.498 38.001C74.3314 38.001 83.9564 39.251 93.373 41.751C102.79 44.251 111.665 48.1676 119.998 53.501V186.251C128.498 180.751 137.373 176.459 146.623 173.376C155.873 170.293 165.331 168.751 174.998 168.751C180.998 168.751 187.54 169.418 194.623 170.751C201.706 172.084 208.498 174.584 214.998 178.251V44.501C216.998 45.3343 218.915 46.126 220.748 46.876C222.581 47.626 224.498 48.4176 226.498 49.251C229.665 50.751 231.998 53.0426 233.498 56.126C234.998 59.2093 235.748 62.5843 235.748 66.251V189.251C235.748 194.418 233.248 198.168 228.248 200.501C223.248 202.834 218.081 202.584 212.748 199.751C206.915 196.584 200.831 194.084 194.498 192.251C188.165 190.418 181.665 189.501 174.998 189.501C164.998 189.501 155.415 191.501 146.248 195.501C137.081 199.501 128.498 204.584 120.498 210.751ZM134.998 163.001V68.501L199.998 2.25098V105.001L134.998 163.001Z" fill="#1C1B1F" fill-opacity="0.15"/>
</g>
</svg>
