<svg width="500" height="187" viewBox="0 0 500 187" fill="none" xmlns="http://www.w3.org/2000/svg">
<path d="M37.4227 12.7976H38.411V18.2017C38.411 18.7596 38.2795 19.2578 38.0165 19.6961C37.7561 20.1319 37.3881 20.4759 36.9126 20.7283C36.437 20.9781 35.8791 21.1029 35.2388 21.1029C34.5985 21.1029 34.0405 20.9781 33.5649 20.7283C33.0894 20.4759 32.7201 20.1319 32.457 19.6961C32.1967 19.2578 32.0665 18.7596 32.0665 18.2017V12.7976H33.0548V18.122C33.0548 18.5205 33.1425 18.8752 33.3179 19.186C33.4932 19.4942 33.7429 19.7373 34.0671 19.9153C34.3939 20.0907 34.7844 20.1784 35.2388 20.1784C35.6931 20.1784 36.0836 20.0907 36.4104 19.9153C36.7372 19.7373 36.987 19.4942 37.1597 19.186C37.335 18.8752 37.4227 18.5205 37.4227 18.122V12.7976ZM44.8483 14.8381C44.8004 14.4342 44.6065 14.1207 44.2664 13.8976C43.9263 13.6744 43.5092 13.5628 43.015 13.5628C42.6537 13.5628 42.3375 13.6213 42.0665 13.7382C41.7982 13.8551 41.5883 14.0158 41.4369 14.2204C41.2881 14.4249 41.2137 14.6574 41.2137 14.9178C41.2137 15.1357 41.2655 15.323 41.3691 15.4797C41.4754 15.6338 41.6109 15.7627 41.7756 15.8663C41.9403 15.9672 42.113 16.0509 42.2937 16.1174C42.4744 16.1811 42.6404 16.2329 42.7918 16.2728L43.6208 16.496C43.8333 16.5518 44.0698 16.6288 44.3302 16.7271C44.5932 16.8254 44.8443 16.9596 45.0834 17.1296C45.3252 17.297 45.5244 17.5122 45.6812 17.7752C45.8379 18.0383 45.9163 18.3611 45.9163 18.7437C45.9163 19.1847 45.8007 19.5832 45.5696 19.9392C45.3411 20.2953 45.0063 20.5782 44.5653 20.7881C44.1269 20.998 43.5942 21.1029 42.9672 21.1029C42.3827 21.1029 41.8766 21.0086 41.4488 20.82C41.0237 20.6314 40.689 20.3683 40.4445 20.0309C40.2027 19.6935 40.0659 19.3016 40.034 18.8552H41.0543C41.0808 19.1634 41.1845 19.4185 41.3651 19.6204C41.5484 19.8197 41.7796 19.9685 42.0586 20.0668C42.3402 20.1624 42.6431 20.2102 42.9672 20.2102C43.3445 20.2102 43.6832 20.1491 43.9834 20.0269C44.2837 19.902 44.5215 19.7294 44.6968 19.5088C44.8722 19.2857 44.9598 19.0253 44.9598 18.7277C44.9598 18.4567 44.8841 18.2362 44.7327 18.0662C44.5812 17.8961 44.382 17.758 44.1349 17.6517C43.8878 17.5454 43.6208 17.4524 43.3338 17.3727L42.3296 17.0858C41.6919 16.9025 41.1871 16.6408 40.8152 16.3007C40.4432 15.9606 40.2572 15.5156 40.2572 14.9656C40.2572 14.5086 40.3808 14.1101 40.6278 13.77C40.8776 13.4273 41.2124 13.1616 41.6321 12.973C42.0546 12.7817 42.5262 12.686 43.0469 12.686C43.573 12.686 44.0406 12.7804 44.4497 12.969C44.8589 13.155 45.183 13.41 45.4221 13.7342C45.6639 14.0583 45.7914 14.4263 45.8047 14.8381H44.8483ZM47.5413 20.9595V12.7976H50.3948C50.9633 12.7976 51.4323 12.8959 51.8016 13.0925C52.1709 13.2865 52.4458 13.5482 52.6265 13.8776C52.8072 14.2044 52.8975 14.5671 52.8975 14.9656C52.8975 15.3163 52.8351 15.6059 52.7102 15.8344C52.588 16.0629 52.4259 16.2436 52.224 16.3764C52.0247 16.5092 51.8082 16.6076 51.5744 16.6713V16.751C51.8241 16.767 52.0752 16.8546 52.3276 17.014C52.58 17.1735 52.7912 17.4019 52.9613 17.6995C53.1313 17.9971 53.2163 18.3611 53.2163 18.7915C53.2163 19.2006 53.1233 19.5686 52.9374 19.8954C52.7514 20.2222 52.4578 20.4812 52.0566 20.6725C51.6554 20.8638 51.1334 20.9595 50.4904 20.9595H47.5413ZM48.5296 20.0827H50.4904C51.136 20.0827 51.5943 19.9578 51.8653 19.7081C52.139 19.4557 52.2758 19.1502 52.2758 18.7915C52.2758 18.5152 52.2054 18.2601 52.0646 18.0263C51.9238 17.7898 51.7232 17.6012 51.4628 17.4604C51.2024 17.3169 50.8942 17.2452 50.5382 17.2452H48.5296V20.0827ZM48.5296 16.3844H50.3629C50.6604 16.3844 50.9288 16.3259 51.1679 16.209C51.4097 16.0921 51.601 15.9274 51.7418 15.7148C51.8853 15.5023 51.957 15.2526 51.957 14.9656C51.957 14.6069 51.8321 14.3027 51.5824 14.053C51.3326 13.8006 50.9368 13.6744 50.3948 13.6744H48.5296V16.3844ZM58.2198 16.4402V17.3169H54.649V16.4402H58.2198ZM60.337 20.9595H59.3009L62.2978 12.7976H63.318L66.3149 20.9595H65.2788L62.8398 14.0889H62.776L60.337 20.9595ZM60.7196 17.7713H64.8962V18.648H60.7196V17.7713Z" fill="black"/>
<path d="M178.1 29.9561L151.107 29.9561L151.107 18.4345L151.107 2.96249L178.1 2.96249L178.1 16.4593L178.1 29.9561Z" stroke="black" stroke-width="0.658382"/>
<path d="M150.777 0L150.777 32.9191L124.442 32.9191L98.1068 25.6769L98.1068 7.2422L124.442 -1.15115e-06L150.777 0Z" fill="black"/>
<rect x="96.79" y="13.1675" width="6.58382" height="22.385" transform="rotate(90 96.79 13.1675)" fill="black"/>
<path d="M185.758 16.0278C185.519 16.0278 185.326 16.2211 185.326 16.4595C185.326 16.6979 185.519 16.8911 185.758 16.8911V16.0278ZM256.546 16.4595L252.23 13.9674V18.9515L256.546 16.4595ZM185.758 16.8911H252.661V16.0278H185.758V16.8911Z" fill="black"/>
<rect x="279.149" y="0.560821" width="31.7972" height="15.5869" transform="rotate(90 279.149 0.560821)" stroke="black" stroke-width="0.623474"/>
<rect x="276.655" y="3.05496" width="26.8094" height="10.5991" transform="rotate(90 276.655 3.05496)" stroke="black" stroke-width="0.623474"/>
<path d="M271.355 3.3667L271.355 29.5526" stroke="black" stroke-width="0.623474"/>
<path d="M271.355 5.86035L271.355 9.6012L270.109 9.6012L270.109 5.86035L271.355 5.86035Z" fill="black"/>
<path d="M271.355 11.6797L271.355 15.4205L270.109 15.4205L270.109 11.6797L271.355 11.6797Z" fill="black"/>
<path d="M271.355 17.4985L271.355 21.2394L270.109 21.2394L270.109 17.4985L271.355 17.4985Z" fill="black"/>
<path d="M271.355 23.3179L271.355 27.0587L270.109 27.0587L270.109 23.3179L271.355 23.3179Z" fill="black"/>
<path d="M39.1492 57.4402H40.1376V62.8442C40.1376 63.4022 40.0061 63.9003 39.7431 64.3387C39.4827 64.7744 39.1147 65.1185 38.6391 65.3709C38.1636 65.6206 37.6056 65.7455 36.9653 65.7455C36.325 65.7455 35.7671 65.6206 35.2915 65.3709C34.8159 65.1185 34.4466 64.7744 34.1836 64.3387C33.9232 63.9003 33.793 63.4022 33.793 62.8442V57.4402H34.7814V62.7645C34.7814 63.1631 34.8691 63.5178 35.0444 63.8286C35.2198 64.1368 35.4695 64.3799 35.7936 64.5579C36.1204 64.7333 36.511 64.8209 36.9653 64.8209C37.4196 64.8209 37.8102 64.7333 38.137 64.5579C38.4638 64.3799 38.7135 64.1368 38.8862 63.8286C39.0616 63.5178 39.1492 63.1631 39.1492 62.7645V57.4402ZM46.5748 59.4807C46.527 59.0768 46.333 58.7633 45.993 58.5401C45.6529 58.317 45.2358 58.2054 44.7416 58.2054C44.3803 58.2054 44.0641 58.2638 43.7931 58.3807C43.5247 58.4976 43.3149 58.6584 43.1634 58.8629C43.0146 59.0675 42.9402 59.3 42.9402 59.5604C42.9402 59.7782 42.992 59.9655 43.0957 60.1223C43.2019 60.2764 43.3374 60.4053 43.5022 60.5089C43.6669 60.6098 43.8396 60.6935 44.0203 60.7599C44.2009 60.8237 44.367 60.8755 44.5184 60.9154L45.3473 61.1385C45.5599 61.1943 45.7964 61.2714 46.0567 61.3697C46.3198 61.468 46.5708 61.6022 46.8099 61.7722C47.0517 61.9396 47.251 62.1548 47.4077 62.4178C47.5645 62.6808 47.6429 63.0037 47.6429 63.3862C47.6429 63.8273 47.5273 64.2258 47.2961 64.5818C47.0677 64.9378 46.7329 65.2208 46.2919 65.4307C45.8535 65.6406 45.3208 65.7455 44.6938 65.7455C44.1093 65.7455 43.6031 65.6512 43.1754 65.4626C42.7503 65.2739 42.4155 65.0109 42.1711 64.6735C41.9293 64.3361 41.7925 63.9442 41.7606 63.4978H42.7808C42.8074 63.806 42.911 64.0611 43.0917 64.263C43.275 64.4623 43.5062 64.611 43.7851 64.7093C44.0667 64.805 44.3696 64.8528 44.6938 64.8528C45.071 64.8528 45.4098 64.7917 45.71 64.6695C46.0102 64.5446 46.248 64.3719 46.4234 64.1514C46.5987 63.9282 46.6864 63.6679 46.6864 63.3703C46.6864 63.0993 46.6107 62.8788 46.4592 62.7087C46.3078 62.5387 46.1085 62.4005 45.8614 62.2943C45.6144 62.188 45.3473 62.095 45.0604 62.0153L44.0561 61.7284C43.4185 61.545 42.9137 61.2833 42.5417 60.9433C42.1698 60.6032 41.9838 60.1582 41.9838 59.6082C41.9838 59.1512 42.1073 58.7527 42.3544 58.4126C42.6041 58.0699 42.9389 57.8042 43.3587 57.6156C43.7811 57.4243 44.2527 57.3286 44.7735 57.3286C45.2995 57.3286 45.7671 57.4229 46.1763 57.6116C46.5854 57.7976 46.9096 58.0526 47.1487 58.3767C47.3905 58.7009 47.518 59.0689 47.5313 59.4807H46.5748ZM49.2679 65.6021V57.4402H52.1213C52.6899 57.4402 53.1588 57.5385 53.5281 57.7351C53.8974 57.9291 54.1724 58.1908 54.3531 58.5202C54.5337 58.847 54.6241 59.2097 54.6241 59.6082C54.6241 59.9589 54.5616 60.2485 54.4368 60.477C54.3146 60.7055 54.1525 60.8861 53.9506 61.019C53.7513 61.1518 53.5348 61.2501 53.301 61.3139V61.3936C53.5507 61.4095 53.8018 61.4972 54.0542 61.6566C54.3066 61.816 54.5178 62.0445 54.6878 62.3421C54.8579 62.6397 54.9429 63.0037 54.9429 63.4341C54.9429 63.8432 54.8499 64.2112 54.6639 64.538C54.4779 64.8648 54.1844 65.1238 53.7832 65.3151C53.382 65.5064 52.8599 65.6021 52.217 65.6021H49.2679ZM50.2562 64.7253H52.217C52.8626 64.7253 53.3209 64.6004 53.5919 64.3507C53.8655 64.0983 54.0024 63.7927 54.0024 63.4341C54.0024 63.1577 53.932 62.9027 53.7912 62.6689C53.6503 62.4324 53.4497 62.2438 53.1894 62.103C52.929 61.9595 52.6208 61.8878 52.2648 61.8878H50.2562V64.7253ZM50.2562 61.027H52.0894C52.387 61.027 52.6553 60.9685 52.8945 60.8516C53.1362 60.7347 53.3275 60.57 53.4683 60.3574C53.6118 60.1449 53.6835 59.8951 53.6835 59.6082C53.6835 59.2495 53.5587 58.9453 53.3089 58.6956C53.0592 58.4432 52.6633 58.317 52.1213 58.317H50.2562V61.027ZM59.9464 61.0827V61.9595H56.3756V61.0827H59.9464ZM61.7288 65.6021V57.4402H64.5823C65.1509 57.4402 65.6198 57.5385 65.9891 57.7351C66.3584 57.9291 66.6334 58.1908 66.814 58.5202C66.9947 58.847 67.085 59.2097 67.085 59.6082C67.085 59.9589 67.0226 60.2485 66.8977 60.477C66.7755 60.7055 66.6134 60.8861 66.4115 61.019C66.2123 61.1518 65.9957 61.2501 65.7619 61.3139V61.3936C66.0117 61.4095 66.2627 61.4972 66.5151 61.6566C66.7675 61.816 66.9788 62.0445 67.1488 62.3421C67.3188 62.6397 67.4039 63.0037 67.4039 63.4341C67.4039 63.8432 67.3109 64.2112 67.1249 64.538C66.9389 64.8648 66.6453 65.1238 66.2441 65.3151C65.843 65.5064 65.3209 65.6021 64.6779 65.6021H61.7288ZM62.7172 64.7253H64.6779C65.3235 64.7253 65.7819 64.6004 66.0529 64.3507C66.3265 64.0983 66.4633 63.7927 66.4633 63.4341C66.4633 63.1577 66.3929 62.9027 66.2521 62.6689C66.1113 62.4324 65.9107 62.2438 65.6503 62.103C65.39 61.9595 65.0818 61.8878 64.7258 61.8878H62.7172V64.7253ZM62.7172 61.027H64.5504C64.848 61.027 65.1163 60.9685 65.3554 60.8516C65.5972 60.7347 65.7885 60.57 65.9293 60.3574C66.0728 60.1449 66.1445 59.8951 66.1445 59.6082C66.1445 59.2495 66.0196 58.9453 65.7699 58.6956C65.5202 58.4432 65.1243 58.317 64.5823 58.317H62.7172V61.027Z" fill="black"/>
<path d="M179.06 70.6483L152.067 70.6483L152.067 63.0769L152.067 51.5553L179.06 51.5553L179.06 61.1018L179.06 70.6483Z" stroke="black" stroke-width="0.658382"/>
<path d="M151.737 48.5928L151.737 73.6113L124.085 73.6113L108.284 68.8446L108.284 53.3595L124.085 48.5928L151.737 48.5928Z" fill="black"/>
<rect x="106.968" y="57.8101" width="6.58382" height="31.6023" transform="rotate(90 106.968 57.8101)" fill="black"/>
<path d="M185.949 60.6704C185.711 60.6704 185.518 60.8637 185.518 61.1021C185.518 61.3404 185.711 61.5337 185.949 61.5337V60.6704ZM249.831 61.1021L245.515 58.61V63.5941L249.831 61.1021ZM185.949 61.5337H245.947V60.6704H185.949V61.5337Z" fill="black"/>
<rect x="278.525" y="48.9441" width="24.3155" height="21.8216" transform="rotate(90 278.525 48.9441)" stroke="black" stroke-width="0.623474"/>
<path d="M259.197 51.4382L272.473 51.4382L276.031 54.9964L276.031 67.2077L272.473 70.7659L259.197 70.7659L259.197 51.4382Z" stroke="black" stroke-width="0.623474"/>
<rect x="271.044" y="53.9319" width="14.3399" height="8.10517" transform="rotate(90 271.044 53.9319)" stroke="black" stroke-width="0.623474"/>
<rect x="272.603" y="56.1143" width="2.4939" height="1.24695" transform="rotate(90 272.603 56.1143)" fill="black"/>
<rect x="262.627" y="56.1143" width="2.4939" height="1.24695" transform="rotate(90 262.627 56.1143)" fill="black"/>
<rect x="272.603" y="63.5957" width="2.4939" height="1.24695" transform="rotate(90 272.603 63.5957)" fill="black"/>
<rect x="262.627" y="63.5957" width="2.4939" height="1.24695" transform="rotate(90 262.627 63.5957)" fill="black"/>
<path d="M24.4735 95.4983H25.4618V100.902C25.4618 101.46 25.3303 101.958 25.0673 102.397C24.8069 102.833 24.4389 103.177 23.9634 103.429C23.4878 103.679 22.9298 103.804 22.2895 103.804C21.6492 103.804 21.0913 103.679 20.6157 103.429C20.1401 103.177 19.7708 102.833 19.5078 102.397C19.2474 101.958 19.1173 101.46 19.1173 100.902V95.4983H20.1056V100.823C20.1056 101.221 20.1933 101.576 20.3686 101.887C20.544 102.195 20.7937 102.438 21.1179 102.616C21.4447 102.791 21.8352 102.879 22.2895 102.879C22.7439 102.879 23.1344 102.791 23.4612 102.616C23.788 102.438 24.0377 102.195 24.2104 101.887C24.3858 101.576 24.4735 101.221 24.4735 100.823V95.4983ZM31.899 97.5388C31.8512 97.1349 31.6573 96.8214 31.3172 96.5982C30.9771 96.3751 30.56 96.2635 30.0658 96.2635C29.7045 96.2635 29.3883 96.3219 29.1173 96.4388C28.849 96.5557 28.6391 96.7165 28.4876 96.9211C28.3389 97.1256 28.2645 97.3581 28.2645 97.6185C28.2645 97.8363 28.3163 98.0236 28.4199 98.1804C28.5262 98.3345 28.6617 98.4634 28.8264 98.567C28.9911 98.6679 29.1638 98.7516 29.3445 98.818C29.5251 98.8818 29.6912 98.9336 29.8426 98.9735L30.6716 99.1966C30.8841 99.2524 31.1206 99.3295 31.3809 99.4278C31.644 99.5261 31.895 99.6603 32.1342 99.8303C32.3759 99.9977 32.5752 100.213 32.732 100.476C32.8887 100.739 32.9671 101.062 32.9671 101.444C32.9671 101.885 32.8515 102.284 32.6204 102.64C32.3919 102.996 32.0571 103.279 31.6161 103.489C31.1777 103.699 30.645 103.804 30.018 103.804C29.4335 103.804 28.9273 103.709 28.4996 103.521C28.0745 103.332 27.7397 103.069 27.4953 102.732C27.2535 102.394 27.1167 102.002 27.0848 101.556H28.105C28.1316 101.864 28.2352 102.119 28.4159 102.321C28.5992 102.52 28.8304 102.669 29.1093 102.767C29.391 102.863 29.6938 102.911 30.018 102.911C30.3953 102.911 30.734 102.85 31.0342 102.728C31.3345 102.603 31.5722 102.43 31.7476 102.21C31.9229 101.986 32.0106 101.726 32.0106 101.428C32.0106 101.157 31.9349 100.937 31.7835 100.767C31.632 100.597 31.4328 100.459 31.1857 100.352C30.9386 100.246 30.6716 100.153 30.3846 100.073L29.3803 99.7865C28.7427 99.6031 28.2379 99.3414 27.8659 99.0014C27.494 98.6613 27.308 98.2163 27.308 97.6663C27.308 97.2093 27.4315 96.8108 27.6786 96.4707C27.9284 96.128 28.2631 95.8623 28.6829 95.6737C29.1054 95.4824 29.5769 95.3867 30.0977 95.3867C30.6237 95.3867 31.0913 95.481 31.5005 95.6697C31.9097 95.8557 32.2338 96.1107 32.4729 96.4348C32.7147 96.759 32.8422 97.127 32.8555 97.5388H31.899ZM34.5921 103.66V95.4983H37.4455C38.0141 95.4983 38.483 95.5966 38.8523 95.7932C39.2216 95.9872 39.4966 96.2489 39.6773 96.5783C39.858 96.9051 39.9483 97.2678 39.9483 97.6663C39.9483 98.017 39.8859 98.3066 39.761 98.5351C39.6388 98.7636 39.4767 98.9442 39.2748 99.0771C39.0755 99.2099 38.859 99.3082 38.6252 99.372V99.4517C38.8749 99.4676 39.126 99.5553 39.3784 99.7147C39.6308 99.8741 39.842 100.103 40.0121 100.4C40.1821 100.698 40.2671 101.062 40.2671 101.492C40.2671 101.901 40.1741 102.269 39.9881 102.596C39.8022 102.923 39.5086 103.182 39.1074 103.373C38.7062 103.565 38.1841 103.66 37.5412 103.66H34.5921ZM35.5804 102.783H37.5412C38.1868 102.783 38.6451 102.659 38.9161 102.409C39.1898 102.156 39.3266 101.851 39.3266 101.492C39.3266 101.216 39.2562 100.961 39.1154 100.727C38.9746 100.491 38.774 100.302 38.5136 100.161C38.2532 100.018 37.945 99.9459 37.589 99.9459H35.5804V102.783ZM35.5804 99.0851H37.4137C37.7112 99.0851 37.9796 99.0266 38.2187 98.9097C38.4605 98.7928 38.6518 98.6281 38.7926 98.4155C38.936 98.203 39.0078 97.9532 39.0078 97.6663C39.0078 97.3076 38.8829 97.0034 38.6332 96.7537C38.3834 96.5013 37.9875 96.3751 37.4455 96.3751H35.5804V99.0851ZM45.2706 99.1409V100.018H41.6998V99.1409H45.2706ZM47.053 95.4983H48.2327L51.0064 102.273H51.1021L53.8758 95.4983H55.0555V103.66H54.1309V97.4591H54.0512L51.5006 103.66H50.6079L48.0573 97.4591H47.9776V103.66H47.053V95.4983ZM56.9096 103.66V97.5388H57.8502V103.66H56.9096ZM57.3879 96.5185C57.2045 96.5185 57.0465 96.4561 56.9136 96.3312C56.7834 96.2064 56.7183 96.0562 56.7183 95.8809C56.7183 95.7055 56.7834 95.5554 56.9136 95.4306C57.0465 95.3057 57.2045 95.2433 57.3879 95.2433C57.5712 95.2433 57.7279 95.3057 57.8581 95.4306C57.991 95.5554 58.0574 95.7055 58.0574 95.8809C58.0574 96.0562 57.991 96.2064 57.8581 96.3312C57.7279 96.4561 57.5712 96.5185 57.3879 96.5185ZM60.5133 99.9778V103.66H59.5728V97.5388H60.4814V98.4952H60.5611C60.7046 98.1844 60.9225 97.9346 61.2147 97.746C61.507 97.5547 61.8843 97.4591 62.3465 97.4591C62.761 97.4591 63.1237 97.5441 63.4345 97.7141C63.7454 97.8815 63.9871 98.1366 64.1598 98.4793C64.3325 98.8194 64.4189 99.2498 64.4189 99.7705V103.66H63.4784V99.8343C63.4784 99.3534 63.3535 98.9788 63.1037 98.7104C62.854 98.4394 62.5113 98.3039 62.0755 98.3039C61.7753 98.3039 61.507 98.369 61.2705 98.4992C61.0367 98.6294 60.8521 98.8194 60.7166 99.0691C60.5811 99.3189 60.5133 99.6217 60.5133 99.9778ZM66.1375 103.66V97.5388H67.0781V103.66H66.1375ZM66.6158 96.5185C66.4324 96.5185 66.2744 96.4561 66.1415 96.3312C66.0113 96.2064 65.9462 96.0562 65.9462 95.8809C65.9462 95.7055 66.0113 95.5554 66.1415 95.4306C66.2744 95.3057 66.4324 95.2433 66.6158 95.2433C66.7991 95.2433 66.9558 95.3057 67.086 95.4306C67.2189 95.5554 67.2853 95.7055 67.2853 95.8809C67.2853 96.0562 67.2189 96.2064 67.086 96.3312C66.9558 96.4561 66.7991 96.5185 66.6158 96.5185Z" fill="black"/>
<path fill-rule="evenodd" clip-rule="evenodd" d="M127.333 105.086L127.333 93.2349L124.699 93.2349L124.699 94.5516L123.383 94.5516L123.383 93.2349L122.066 93.2349L122.066 94.5516L120.749 94.5516L120.749 93.2349L119.432 93.2349L119.432 94.5516L118.116 94.5516L118.116 93.2349L116.799 93.2349L116.799 94.5516L115.482 94.5516L115.482 93.2349L114.165 93.2349L114.165 94.5516L112.849 94.5516L112.849 93.2349L108.898 93.2349L108.898 105.086L112.849 105.086L112.849 103.769L114.165 103.769L114.165 105.086L115.482 105.086L115.482 103.769L116.799 103.769L116.799 105.086L118.116 105.086L118.116 103.769L119.432 103.769L119.432 105.086L120.749 105.086L120.749 103.769L122.066 103.769L122.066 105.086L123.383 105.086L123.383 103.769L124.699 103.769L124.699 105.086L127.333 105.086Z" fill="black"/>
<path d="M151.363 92.2472L169.14 92.2472L169.14 106.073L151.363 106.073L151.363 92.2472Z" stroke="black" stroke-width="0.658382"/>
<rect x="151.034" y="89.2847" width="19.7514" height="23.7017" transform="rotate(90 151.034 89.2847)" fill="black"/>
<rect x="107.581" y="95.8687" width="6.58382" height="32.9191" transform="rotate(90 107.581 95.8687)" fill="black"/>
<path d="M176.002 98.7285C175.764 98.7285 175.57 98.9218 175.57 99.1602C175.57 99.3985 175.764 99.5918 176.002 99.5918V98.7285ZM262.329 99.1602L258.013 96.6681V101.652L262.329 99.1602ZM176.002 99.5918H258.444V98.7285H176.002V99.5918Z" fill="black"/>
<path d="M268.861 108.513L268.861 89.8085L278.837 89.8085L278.837 108.513L268.861 108.513Z" stroke="black" stroke-width="0.623474"/>
<path d="M271.193 106.019L271.193 106.181L271.355 106.181L273.849 106.181L273.917 106.181L273.964 106.133L275.163 104.934L276.967 104.934L277.129 104.934L277.129 104.772L277.129 93.5491L277.129 93.387L276.967 93.387L275.163 93.387L273.964 92.1875L273.917 92.14L273.849 92.14L271.355 92.14L271.193 92.14L271.193 92.3021L271.193 106.019Z" stroke="black" stroke-width="0.324207"/>
<path d="M273.85 106.019L273.85 92.3021" stroke="black" stroke-width="0.324207"/>
<path d="M273.85 104.672L273.85 102.727L274.498 102.727L274.498 104.672L273.85 104.672Z" fill="black"/>
<path d="M273.85 101.646L273.85 99.7008L274.498 99.7008L274.498 101.646L273.85 101.646Z" fill="black"/>
<path d="M273.85 98.6201L273.85 96.6749L274.498 96.6749L274.498 98.6201L273.85 98.6201Z" fill="black"/>
<path d="M273.85 95.5942L273.85 93.649L274.498 93.649L274.498 95.5942L273.85 95.5942Z" fill="black"/>
<path d="M16.7039 131.582H17.6923V136.986C17.6923 137.544 17.5608 138.042 17.2977 138.481C17.0374 138.917 16.6694 139.261 16.1938 139.513C15.7182 139.763 15.1603 139.888 14.52 139.888C13.8797 139.888 13.3218 139.763 12.8462 139.513C12.3706 139.261 12.0013 138.917 11.7383 138.481C11.4779 138.042 11.3477 137.544 11.3477 136.986V131.582H12.3361V136.907C12.3361 137.305 12.4237 137.66 12.5991 137.971C12.7745 138.279 13.0242 138.522 13.3483 138.7C13.6751 138.875 14.0657 138.963 14.52 138.963C14.9743 138.963 15.3649 138.875 15.6917 138.7C16.0185 138.522 16.2682 138.279 16.4409 137.971C16.6163 137.66 16.7039 137.305 16.7039 136.907V131.582ZM24.1295 133.623C24.0817 133.219 23.8877 132.905 23.5477 132.682C23.2076 132.459 22.7904 132.347 22.2963 132.347C21.9349 132.347 21.6188 132.406 21.3478 132.523C21.0794 132.64 20.8695 132.8 20.7181 133.005C20.5693 133.21 20.4949 133.442 20.4949 133.702C20.4949 133.92 20.5467 134.108 20.6504 134.264C20.7566 134.418 20.8921 134.547 21.0569 134.651C21.2216 134.752 21.3943 134.836 21.5749 134.902C21.7556 134.966 21.9217 135.018 22.0731 135.057L22.902 135.281C23.1146 135.336 23.351 135.413 23.6114 135.512C23.8744 135.61 24.1255 135.744 24.3646 135.914C24.6064 136.082 24.8057 136.297 24.9624 136.56C25.1192 136.823 25.1976 137.146 25.1976 137.528C25.1976 137.969 25.082 138.368 24.8508 138.724C24.6223 139.08 24.2876 139.363 23.8465 139.573C23.4082 139.783 22.8755 139.888 22.2485 139.888C21.6639 139.888 21.1578 139.793 20.7301 139.605C20.305 139.416 19.9702 139.153 19.7258 138.816C19.484 138.478 19.3472 138.086 19.3153 137.64H20.3355C20.3621 137.948 20.4657 138.203 20.6464 138.405C20.8297 138.604 21.0608 138.753 21.3398 138.851C21.6214 138.947 21.9243 138.995 22.2485 138.995C22.6257 138.995 22.9645 138.934 23.2647 138.812C23.5649 138.687 23.8027 138.514 23.9781 138.293C24.1534 138.07 24.2411 137.81 24.2411 137.512C24.2411 137.241 24.1654 137.021 24.0139 136.851C23.8625 136.681 23.6632 136.543 23.4161 136.436C23.169 136.33 22.902 136.237 22.6151 136.157L21.6108 135.87C20.9732 135.687 20.4684 135.425 20.0964 135.085C19.7244 134.745 19.5385 134.3 19.5385 133.75C19.5385 133.293 19.662 132.895 19.9091 132.555C20.1588 132.212 20.4936 131.946 20.9134 131.758C21.3358 131.566 21.8074 131.471 22.3282 131.471C22.8542 131.471 23.3218 131.565 23.731 131.754C24.1401 131.94 24.4643 132.195 24.7034 132.519C24.9452 132.843 25.0727 133.211 25.086 133.623H24.1295ZM26.8226 139.744V131.582H29.676C30.2446 131.582 30.7135 131.681 31.0828 131.877C31.4521 132.071 31.7271 132.333 31.9078 132.662C32.0884 132.989 32.1788 133.352 32.1788 133.75C32.1788 134.101 32.1163 134.391 31.9915 134.619C31.8692 134.848 31.7072 135.028 31.5053 135.161C31.306 135.294 31.0895 135.392 30.8557 135.456V135.536C31.1054 135.552 31.3565 135.639 31.6089 135.799C31.8613 135.958 32.0725 136.187 32.2425 136.484C32.4126 136.782 32.4976 137.146 32.4976 137.576C32.4976 137.985 32.4046 138.353 32.2186 138.68C32.0326 139.007 31.7391 139.266 31.3379 139.457C30.9367 139.648 30.4146 139.744 29.7717 139.744H26.8226ZM27.8109 138.867H29.7717C30.4173 138.867 30.8756 138.743 31.1466 138.493C31.4202 138.24 31.5571 137.935 31.5571 137.576C31.5571 137.3 31.4867 137.045 31.3458 136.811C31.205 136.575 31.0044 136.386 30.7441 136.245C30.4837 136.102 30.1755 136.03 29.8195 136.03H27.8109V138.867ZM27.8109 135.169H29.6441C29.9417 135.169 30.21 135.111 30.4492 134.994C30.6909 134.877 30.8822 134.712 31.023 134.5C31.1665 134.287 31.2382 134.037 31.2382 133.75C31.2382 133.392 31.1134 133.087 30.8636 132.838C30.6139 132.585 30.218 132.459 29.676 132.459H27.8109V135.169ZM37.5011 135.225V136.102H33.9303V135.225H37.5011ZM39.2835 131.582H40.4632L43.2369 138.357H43.3326L46.1063 131.582H47.2859V139.744H46.3614V133.543H46.2817L43.7311 139.744H42.8384L40.2878 133.543H40.2081V139.744H39.2835V131.582ZM49.1401 139.744V133.623H50.0806V139.744H49.1401ZM49.6183 132.603C49.435 132.603 49.2769 132.54 49.1441 132.415C49.0139 132.29 48.9488 132.14 48.9488 131.965C48.9488 131.79 49.0139 131.639 49.1441 131.515C49.2769 131.39 49.435 131.327 49.6183 131.327C49.8017 131.327 49.9584 131.39 50.0886 131.515C50.2214 131.639 50.2879 131.79 50.2879 131.965C50.2879 132.14 50.2214 132.29 50.0886 132.415C49.9584 132.54 49.8017 132.603 49.6183 132.603ZM54.2901 139.872C53.7162 139.872 53.222 139.736 52.8075 139.465C52.3931 139.194 52.0743 138.821 51.8511 138.345C51.6279 137.87 51.5163 137.326 51.5163 136.715C51.5163 136.094 51.6306 135.545 51.8591 135.069C52.0902 134.591 52.4117 134.218 52.8235 133.95C53.238 133.679 53.7215 133.543 54.2741 133.543C54.7045 133.543 55.0924 133.623 55.4378 133.782C55.7832 133.942 56.0662 134.165 56.2867 134.452C56.5072 134.739 56.644 135.073 56.6972 135.456H55.7567C55.6849 135.177 55.5255 134.93 55.2784 134.715C55.034 134.497 54.7045 134.388 54.2901 134.388C53.9234 134.388 53.6019 134.484 53.3256 134.675C53.052 134.864 52.8381 135.131 52.684 135.476C52.5326 135.819 52.4568 136.221 52.4568 136.683C52.4568 137.156 52.5312 137.568 52.68 137.919C52.8315 138.27 53.044 138.542 53.3177 138.736C53.594 138.93 53.9181 139.027 54.2901 139.027C54.5345 139.027 54.7563 138.984 54.9556 138.899C55.1549 138.814 55.3236 138.692 55.4617 138.533C55.5999 138.373 55.6982 138.182 55.7567 137.959H56.6972C56.644 138.32 56.5125 138.646 56.3026 138.935C56.0954 139.222 55.8204 139.451 55.4777 139.621C55.1376 139.788 54.7417 139.872 54.2901 139.872ZM58.0721 139.744V133.623H58.9807V134.547H59.0445C59.1561 134.244 59.358 133.999 59.6503 133.81C59.9425 133.621 60.272 133.527 60.6386 133.527C60.7077 133.527 60.794 133.528 60.8977 133.531C61.0013 133.534 61.0797 133.538 61.1328 133.543V134.5C61.1009 134.492 61.0278 134.48 60.9136 134.464C60.802 134.445 60.6838 134.436 60.5589 134.436C60.2613 134.436 59.9957 134.498 59.7619 134.623C59.5307 134.745 59.3474 134.915 59.2119 135.133C59.079 135.348 59.0126 135.594 59.0126 135.87V139.744H58.0721ZM64.5482 139.872C63.9955 139.872 63.5107 139.74 63.0935 139.477C62.6791 139.214 62.3549 138.846 62.1211 138.373C61.89 137.9 61.7744 137.348 61.7744 136.715C61.7744 136.078 61.89 135.521 62.1211 135.045C62.3549 134.57 62.6791 134.201 63.0935 133.938C63.5107 133.675 63.9955 133.543 64.5482 133.543C65.1008 133.543 65.5843 133.675 65.9988 133.938C66.4159 134.201 66.7401 134.57 66.9712 135.045C67.205 135.521 67.3219 136.078 67.3219 136.715C67.3219 137.348 67.205 137.9 66.9712 138.373C66.7401 138.846 66.4159 139.214 65.9988 139.477C65.5843 139.74 65.1008 139.872 64.5482 139.872ZM64.5482 139.027C64.968 139.027 65.3133 138.919 65.5843 138.704C65.8553 138.489 66.0559 138.206 66.1861 137.855C66.3163 137.504 66.3814 137.124 66.3814 136.715C66.3814 136.306 66.3163 135.925 66.1861 135.572C66.0559 135.218 65.8553 134.933 65.5843 134.715C65.3133 134.497 64.968 134.388 64.5482 134.388C64.1284 134.388 63.783 134.497 63.512 134.715C63.241 134.933 63.0404 135.218 62.9102 135.572C62.78 135.925 62.7149 136.306 62.7149 136.715C62.7149 137.124 62.78 137.504 62.9102 137.855C63.0404 138.206 63.241 138.489 63.512 138.704C63.783 138.919 64.1284 139.027 64.5482 139.027Z" fill="black"/>
<path d="M169.293 142.815L155.467 142.815L155.467 136.824L155.467 127.672L169.293 127.672L169.293 135.244L169.293 142.815Z" stroke="black" stroke-width="0.658382"/>
<path d="M155.138 124.71L155.138 145.778L131.436 145.778L131.436 124.71L155.138 124.71Z" fill="black"/>
<path d="M131.436 128.66L131.436 141.828L122.219 141.828L122.219 128.66L131.436 128.66Z" fill="black"/>
<rect x="120.901" y="131.294" width="6.58382" height="46.0867" transform="rotate(90 120.901 131.294)" fill="black"/>
<path d="M176.078 134.813C175.84 134.813 175.646 135.006 175.646 135.244C175.646 135.483 175.84 135.676 176.078 135.676V134.813ZM262.405 135.244L258.089 132.752V137.736L262.405 135.244ZM176.078 135.676H258.521V134.813H176.078V135.676Z" fill="black"/>
<rect x="278.525" y="125.58" width="19.3277" height="9.35212" transform="rotate(90 278.525 125.58)" stroke="black" stroke-width="0.623474"/>
<path d="M273.72 128.074L276.031 130.386L276.031 140.103L273.72 142.414L271.043 142.414L271.043 128.074L273.72 128.074Z" stroke="black" stroke-width="0.623474"/>
<line x1="273.537" y1="139.92" x2="273.537" y2="130.568" stroke="black" stroke-width="0.623474" stroke-linecap="square" stroke-dasharray="1.25 2.49"/>
<path d="M6.34456 170.299H7.33291V175.703C7.33291 176.261 7.20139 176.759 6.93837 177.198C6.678 177.633 6.31002 177.977 5.83444 178.23C5.35887 178.48 4.80093 178.604 4.16063 178.604C3.52033 178.604 2.96239 178.48 2.48681 178.23C2.01124 177.977 1.64193 177.633 1.37891 177.198C1.11853 176.759 0.988349 176.261 0.988349 175.703V170.299H1.9767V175.623C1.9767 176.022 2.06437 176.377 2.23973 176.687C2.41508 176.996 2.66482 177.239 2.98896 177.417C3.31575 177.592 3.70631 177.68 4.16063 177.68C4.61495 177.68 5.00551 177.592 5.3323 177.417C5.65909 177.239 5.90884 176.996 6.08153 176.687C6.25688 176.377 6.34456 176.022 6.34456 175.623V170.299ZM13.7701 172.34C13.7223 171.936 13.5284 171.622 13.1883 171.399C12.8482 171.176 12.4311 171.064 11.9369 171.064C11.5756 171.064 11.2594 171.123 10.9884 171.24C10.7201 171.357 10.5102 171.517 10.3587 171.722C10.2099 171.926 10.1356 172.159 10.1356 172.419C10.1356 172.637 10.1874 172.824 10.291 172.981C10.3973 173.135 10.5328 173.264 10.6975 173.368C10.8622 173.469 11.0349 173.552 11.2156 173.619C11.3962 173.683 11.5623 173.734 11.7137 173.774L12.5427 173.997C12.7552 174.053 12.9917 174.13 13.252 174.229C13.5151 174.327 13.7661 174.461 14.0053 174.631C14.247 174.798 14.4463 175.014 14.603 175.277C14.7598 175.54 14.8382 175.863 14.8382 176.245C14.8382 176.686 14.7226 177.085 14.4915 177.441C14.263 177.797 13.9282 178.08 13.4872 178.29C13.0488 178.499 12.5161 178.604 11.8891 178.604C11.3046 178.604 10.7984 178.51 10.3707 178.321C9.94559 178.133 9.61083 177.87 9.3664 177.532C9.12462 177.195 8.98779 176.803 8.95591 176.357H9.97614C10.0027 176.665 10.1063 176.92 10.287 177.122C10.4703 177.321 10.7015 177.47 10.9804 177.568C11.2621 177.664 11.5649 177.712 11.8891 177.712C12.2663 177.712 12.6051 177.651 12.9053 177.528C13.2055 177.404 13.4433 177.231 13.6187 177.01C13.794 176.787 13.8817 176.527 13.8817 176.229C13.8817 175.958 13.806 175.738 13.6546 175.568C13.5031 175.398 13.3038 175.259 13.0568 175.153C12.8097 175.047 12.5427 174.954 12.2557 174.874L11.2514 174.587C10.6138 174.404 10.109 174.142 9.73703 173.802C9.36507 173.462 9.17909 173.017 9.17909 172.467C9.17909 172.01 9.30263 171.612 9.54972 171.271C9.79946 170.929 10.1342 170.663 10.554 170.474C10.9764 170.283 11.448 170.188 11.9688 170.188C12.4948 170.188 12.9624 170.282 13.3716 170.47C13.7808 170.656 14.1049 170.911 14.344 171.236C14.5858 171.56 14.7133 171.928 14.7266 172.34H13.7701ZM16.4632 178.461V170.299H19.3166C19.8852 170.299 20.3541 170.397 20.7234 170.594C21.0927 170.788 21.3677 171.05 21.5484 171.379C21.7291 171.706 21.8194 172.069 21.8194 172.467C21.8194 172.818 21.757 173.107 21.6321 173.336C21.5099 173.564 21.3478 173.745 21.1459 173.878C20.9466 174.011 20.7301 174.109 20.4963 174.173V174.252C20.746 174.268 20.9971 174.356 21.2495 174.516C21.5019 174.675 21.7131 174.903 21.8832 175.201C22.0532 175.499 22.1382 175.863 22.1382 176.293C22.1382 176.702 22.0452 177.07 21.8592 177.397C21.6733 177.724 21.3797 177.983 20.9785 178.174C20.5773 178.365 20.0552 178.461 19.4123 178.461H16.4632ZM17.4515 177.584H19.4123C20.0579 177.584 20.5162 177.459 20.7872 177.21C21.0609 176.957 21.1977 176.652 21.1977 176.293C21.1977 176.017 21.1273 175.762 20.9865 175.528C20.8457 175.291 20.6451 175.103 20.3847 174.962C20.1243 174.818 19.8161 174.747 19.4601 174.747H17.4515V177.584ZM17.4515 173.886H19.2848C19.5823 173.886 19.8507 173.827 20.0898 173.71C20.3316 173.594 20.5228 173.429 20.6637 173.216C20.8071 173.004 20.8789 172.754 20.8789 172.467C20.8789 172.108 20.754 171.804 20.5042 171.554C20.2545 171.302 19.8586 171.176 19.3166 171.176H17.4515V173.886ZM27.1417 173.942V174.818H23.5709V173.942H27.1417ZM27.6449 171.176V170.299H33.7662V171.176H31.1997V178.461H30.2114V171.176H27.6449ZM35.0684 180.756C34.909 180.756 34.7669 180.743 34.642 180.717C34.5171 180.693 34.4308 180.669 34.383 180.645L34.6221 179.816C34.8506 179.874 35.0525 179.896 35.2278 179.88C35.4032 179.864 35.5586 179.785 35.6941 179.645C35.8323 179.506 35.9585 179.282 36.0727 178.971L36.2481 178.493L33.9844 172.34H35.0047L36.6944 177.218H36.7582L38.448 172.34H39.4682L36.8698 179.354C36.7529 179.67 36.6081 179.932 36.4354 180.139C36.2627 180.349 36.0621 180.504 35.8336 180.605C35.6078 180.706 35.3527 180.756 35.0684 180.756ZM40.7096 180.756V172.34H41.6182V173.312H41.7298C41.7989 173.206 41.8946 173.07 42.0168 172.905C42.1416 172.738 42.3196 172.589 42.5508 172.459C42.7846 172.326 43.1008 172.26 43.4993 172.26C44.0147 172.26 44.469 172.389 44.8623 172.646C45.2555 172.904 45.5623 173.269 45.7829 173.742C46.0034 174.215 46.1136 174.773 46.1136 175.416C46.1136 176.064 46.0034 176.626 45.7829 177.102C45.5623 177.575 45.2568 177.942 44.8662 178.202C44.4757 178.46 44.0253 178.588 43.5152 178.588C43.122 178.588 42.8072 178.523 42.5707 178.393C42.3343 178.26 42.1523 178.11 42.0247 177.943C41.8972 177.773 41.7989 177.632 41.7298 177.52H41.6501V180.756H40.7096ZM41.6342 175.4C41.6342 175.863 41.7019 176.27 41.8374 176.624C41.9729 176.974 42.1709 177.249 42.4312 177.449C42.6916 177.645 43.0104 177.744 43.3877 177.744C43.7809 177.744 44.109 177.64 44.3721 177.433C44.6378 177.223 44.837 176.941 44.9699 176.588C45.1054 176.232 45.1731 175.836 45.1731 175.4C45.1731 174.97 45.1067 174.582 44.9738 174.237C44.8437 173.888 44.6457 173.614 44.38 173.412C44.117 173.207 43.7862 173.105 43.3877 173.105C43.0051 173.105 42.6836 173.202 42.4233 173.396C42.1629 173.587 41.9663 173.855 41.8334 174.201C41.7006 174.543 41.6342 174.943 41.6342 175.4ZM50.1148 178.588C49.525 178.588 49.0162 178.458 48.5885 178.198C48.1634 177.935 47.8353 177.568 47.6041 177.098C47.3756 176.625 47.2614 176.075 47.2614 175.448C47.2614 174.821 47.3756 174.268 47.6041 173.79C47.8353 173.309 48.1567 172.935 48.5686 172.666C48.983 172.395 49.4666 172.26 50.0192 172.26C50.338 172.26 50.6529 172.313 50.9637 172.419C51.2746 172.526 51.5575 172.698 51.8126 172.937C52.0676 173.174 52.2709 173.487 52.4223 173.878C52.5738 174.268 52.6495 174.749 52.6495 175.321V175.719H47.9309V174.906H51.693C51.693 174.561 51.6239 174.252 51.4858 173.981C51.3503 173.71 51.1563 173.497 50.9039 173.34C50.6542 173.183 50.3593 173.105 50.0192 173.105C49.6446 173.105 49.3205 173.198 49.0468 173.384C48.7758 173.567 48.5672 173.806 48.4211 174.101C48.275 174.396 48.2019 174.712 48.2019 175.05V175.592C48.2019 176.054 48.2816 176.446 48.441 176.767C48.6031 177.086 48.8276 177.329 49.1145 177.497C49.4015 177.661 49.7349 177.744 50.1148 177.744C50.3619 177.744 50.5851 177.709 50.7844 177.64C50.9863 177.568 51.1603 177.462 51.3064 177.321C51.4526 177.178 51.5655 177 51.6452 176.787L52.5538 177.042C52.4582 177.35 52.2975 177.621 52.0716 177.855C51.8458 178.086 51.5668 178.267 51.2347 178.397C50.9026 178.525 50.5293 178.588 50.1148 178.588ZM57.5872 174.523V175.4H54.0164V174.523H57.5872ZM65.9374 172.85H64.949C64.8906 172.565 64.7883 172.316 64.6422 172.1C64.4987 171.885 64.3234 171.705 64.1161 171.558C63.9115 171.41 63.6844 171.298 63.4346 171.224C63.1849 171.149 62.9245 171.112 62.6535 171.112C62.1594 171.112 61.7117 171.237 61.3105 171.487C60.912 171.736 60.5945 172.104 60.358 172.591C60.1242 173.077 60.0073 173.673 60.0073 174.38C60.0073 175.087 60.1242 175.683 60.358 176.169C60.5945 176.656 60.912 177.024 61.3105 177.273C61.7117 177.523 62.1594 177.648 62.6535 177.648C62.9245 177.648 63.1849 177.611 63.4346 177.536C63.6844 177.462 63.9115 177.352 64.1161 177.206C64.3234 177.057 64.4987 176.875 64.6422 176.66C64.7883 176.442 64.8906 176.192 64.949 175.91H65.9374C65.863 176.327 65.7275 176.701 65.5309 177.03C65.3343 177.36 65.0899 177.64 64.7976 177.871C64.5054 178.1 64.1772 178.274 63.8132 178.393C63.4519 178.513 63.0653 178.573 62.6535 178.573C61.9574 178.573 61.3384 178.402 60.7964 178.062C60.2544 177.722 59.828 177.239 59.5171 176.612C59.2063 175.985 59.0508 175.241 59.0508 174.38C59.0508 173.519 59.2063 172.775 59.5171 172.148C59.828 171.521 60.2544 171.038 60.7964 170.698C61.3384 170.358 61.9574 170.188 62.6535 170.188C63.0653 170.188 63.4519 170.247 63.8132 170.367C64.1772 170.486 64.5054 170.662 64.7976 170.893C65.0899 171.121 65.3343 171.4 65.5309 171.73C65.7275 172.057 65.863 172.43 65.9374 172.85Z" fill="black"/>
<path d="M168.387 183.507L154.561 183.507L154.561 174.978L154.561 164.414L168.387 164.414L168.387 173.063L168.387 183.507Z" stroke="black" stroke-width="0.658382"/>
<rect x="154.231" y="161.452" width="25.0185" height="23.7017" transform="rotate(90 154.231 161.452)" fill="black"/>
<path fill-rule="evenodd" clip-rule="evenodd" d="M130.529 179.887L130.529 168.036L127.896 168.036L127.896 169.352L126.579 169.352L126.579 168.036L125.262 168.036L125.262 169.352L123.945 169.352L123.945 168.036L122.629 168.036L122.629 169.352L121.312 169.352L121.312 168.036L119.995 168.036L119.995 169.352L118.678 169.352L118.678 168.036L117.362 168.036L117.362 169.352L116.045 169.352L116.045 168.036L112.095 168.036L112.095 179.887L116.045 179.887L116.045 178.57L117.362 178.57L117.362 179.887L118.678 179.887L118.678 178.57L119.995 178.57L119.995 179.887L121.312 179.887L121.312 178.57L122.629 178.57L122.629 179.887L123.945 179.887L123.945 178.57L125.262 178.57L125.262 179.887L126.579 179.887L126.579 178.57L127.896 178.57L127.896 179.887L130.529 179.887Z" fill="black"/>
<rect x="110.778" y="170.669" width="6.58382" height="36.8694" transform="rotate(90 110.778 170.669)" fill="black"/>
<path d="M175.625 173.529C175.387 173.529 175.193 173.723 175.193 173.961C175.193 174.199 175.387 174.393 175.625 174.393V173.529ZM261.952 173.961L257.636 171.469V176.453L261.952 173.961ZM175.625 174.393H258.067V173.529H175.625V174.393Z" fill="black"/>
<rect x="278.525" y="162.426" width="23.0686" height="9.35212" transform="rotate(90 278.525 162.426)" stroke="black" stroke-width="0.623474"/>
<rect x="277.434" y="163.518" width="20.8864" height="7.16996" rx="3.58498" transform="rotate(90 277.434 163.518)" stroke="black" stroke-width="0.311737"/>
<rect x="274.94" y="166.011" width="15.8986" height="2.18216" rx="1.09108" transform="rotate(90 274.94 166.011)" fill="black" stroke="black" stroke-width="0.311737"/>
<rect x="4.5" y="120.5" width="283" height="31" rx="4.5" stroke="black" stroke-width="3"/>
<path d="M326.173 87H322.822V77.5455H326.201C327.152 77.5455 327.971 77.7347 328.657 78.1133C329.343 78.4888 329.871 79.0289 330.24 79.7337C330.613 80.4384 330.799 81.2817 330.799 82.2635C330.799 83.2483 330.613 84.0947 330.24 84.8026C329.871 85.5104 329.34 86.0536 328.648 86.4322C327.958 86.8107 327.134 87 326.173 87ZM324.821 85.2873H326.09C326.681 85.2873 327.178 85.1826 327.581 84.9734C327.988 84.761 328.292 84.4332 328.495 83.9901C328.702 83.5438 328.805 82.9683 328.805 82.2635C328.805 81.5649 328.702 80.994 328.495 80.5508C328.292 80.1076 327.989 79.7814 327.586 79.5721C327.183 79.3628 326.686 79.2582 326.095 79.2582H324.821V85.2873ZM334.265 87.1339C333.812 87.1339 333.409 87.0554 333.055 86.8984C332.701 86.7384 332.421 86.503 332.215 86.1921C332.012 85.8782 331.91 85.4873 331.91 85.0195C331.91 84.6256 331.983 84.2947 332.127 84.027C332.272 83.7592 332.469 83.5438 332.718 83.3807C332.968 83.2176 333.251 83.0945 333.568 83.0114C333.888 82.9283 334.223 82.8698 334.574 82.8359C334.987 82.7929 335.319 82.7528 335.571 82.7159C335.824 82.6759 336.007 82.6174 336.121 82.5405C336.235 82.4635 336.291 82.3497 336.291 82.1989V82.1712C336.291 81.8788 336.199 81.6526 336.014 81.4925C335.833 81.3325 335.574 81.2525 335.239 81.2525C334.885 81.2525 334.603 81.331 334.394 81.4879C334.185 81.6418 334.046 81.8357 333.979 82.0696L332.16 81.9219C332.252 81.491 332.434 81.1186 332.704 80.8047C332.975 80.4877 333.325 80.2446 333.752 80.0753C334.183 79.9029 334.682 79.8168 335.248 79.8168C335.642 79.8168 336.019 79.8629 336.379 79.9553C336.742 80.0476 337.064 80.1907 337.344 80.3846C337.627 80.5785 337.85 80.8278 338.013 81.1325C338.177 81.4341 338.258 81.7957 338.258 82.2173V87H336.393V86.0167H336.338C336.224 86.2383 336.071 86.4337 335.881 86.603C335.69 86.7692 335.46 86.9 335.193 86.9954C334.925 87.0877 334.616 87.1339 334.265 87.1339ZM334.828 85.7766C335.117 85.7766 335.373 85.7197 335.594 85.6058C335.816 85.4889 335.99 85.3319 336.116 85.1349C336.242 84.938 336.305 84.7148 336.305 84.4656V83.7131C336.244 83.7531 336.159 83.79 336.051 83.8239C335.947 83.8546 335.828 83.8839 335.696 83.9116C335.564 83.9362 335.431 83.9593 335.299 83.9808C335.167 83.9993 335.047 84.0162 334.939 84.0316C334.708 84.0655 334.506 84.1193 334.334 84.1932C334.162 84.267 334.028 84.3671 333.932 84.4933C333.837 84.6164 333.789 84.7702 333.789 84.9549C333.789 85.2227 333.886 85.4273 334.08 85.5689C334.277 85.7074 334.526 85.7766 334.828 85.7766ZM345.684 81.9311L343.883 82.0419C343.852 81.888 343.786 81.7495 343.685 81.6264C343.583 81.5002 343.449 81.4002 343.283 81.3263C343.12 81.2494 342.925 81.2109 342.697 81.2109C342.392 81.2109 342.135 81.2756 341.926 81.4048C341.717 81.531 341.612 81.7003 341.612 81.9126C341.612 82.0819 341.68 82.225 341.815 82.342C341.95 82.4589 342.183 82.5528 342.512 82.6236L343.796 82.8821C344.485 83.0237 344.999 83.2514 345.337 83.5653C345.676 83.8793 345.845 84.2917 345.845 84.8026C345.845 85.2673 345.708 85.6751 345.434 86.0259C345.164 86.3768 344.791 86.6507 344.317 86.8477C343.846 87.0415 343.303 87.1385 342.688 87.1385C341.749 87.1385 341.001 86.9431 340.444 86.5522C339.89 86.1583 339.565 85.6228 339.47 84.9457L341.404 84.8441C341.463 85.1303 341.604 85.3488 341.829 85.4996C342.054 85.6474 342.341 85.7212 342.692 85.7212C343.037 85.7212 343.314 85.6551 343.523 85.5227C343.736 85.3873 343.843 85.2134 343.846 85.0011C343.843 84.8226 343.768 84.6764 343.62 84.5625C343.472 84.4455 343.245 84.3563 342.937 84.2947L341.709 84.0501C341.016 83.9116 340.501 83.6715 340.162 83.3299C339.827 82.9883 339.659 82.5528 339.659 82.0234C339.659 81.5679 339.782 81.1755 340.028 80.8462C340.278 80.5169 340.627 80.263 341.076 80.0845C341.529 79.906 342.058 79.8168 342.665 79.8168C343.56 79.8168 344.265 80.006 344.779 80.3846C345.296 80.7631 345.598 81.2786 345.684 81.9311ZM350.092 87V79.9091H352.059V87H350.092ZM351.08 78.995C350.788 78.995 350.537 78.8981 350.328 78.7042C350.122 78.5072 350.019 78.2718 350.019 77.9979C350.019 77.727 350.122 77.4947 350.328 77.3008C350.537 77.1038 350.788 77.0053 351.08 77.0053C351.373 77.0053 351.622 77.1038 351.828 77.3008C352.037 77.4947 352.142 77.727 352.142 77.9979C352.142 78.2718 352.037 78.5072 351.828 78.7042C351.622 78.8981 351.373 78.995 351.08 78.995ZM359.534 81.9311L357.734 82.0419C357.703 81.888 357.637 81.7495 357.535 81.6264C357.434 81.5002 357.3 81.4002 357.134 81.3263C356.971 81.2494 356.775 81.2109 356.547 81.2109C356.243 81.2109 355.986 81.2756 355.776 81.4048C355.567 81.531 355.463 81.7003 355.463 81.9126C355.463 82.0819 355.53 82.225 355.666 82.342C355.801 82.4589 356.033 82.5528 356.363 82.6236L357.646 82.8821C358.336 83.0237 358.849 83.2514 359.188 83.5653C359.527 83.8793 359.696 84.2917 359.696 84.8026C359.696 85.2673 359.559 85.6751 359.285 86.0259C359.014 86.3768 358.642 86.6507 358.168 86.8477C357.697 87.0415 357.154 87.1385 356.538 87.1385C355.599 87.1385 354.852 86.9431 354.295 86.5522C353.741 86.1583 353.416 85.6228 353.32 84.9457L355.255 84.8441C355.313 85.1303 355.455 85.3488 355.68 85.4996C355.904 85.6474 356.192 85.7212 356.543 85.7212C356.887 85.7212 357.164 85.6551 357.374 85.5227C357.586 85.3873 357.694 85.2134 357.697 85.0011C357.694 84.8226 357.618 84.6764 357.471 84.5625C357.323 84.4455 357.095 84.3563 356.787 84.2947L355.559 84.0501C354.867 83.9116 354.352 83.6715 354.013 83.3299C353.677 82.9883 353.51 82.5528 353.51 82.0234C353.51 81.5679 353.633 81.1755 353.879 80.8462C354.128 80.5169 354.478 80.263 354.927 80.0845C355.379 79.906 355.909 79.8168 356.515 79.8168C357.411 79.8168 358.115 80.006 358.629 80.3846C359.146 80.7631 359.448 81.2786 359.534 81.9311ZM364.706 79.9091V81.3864H360.436V79.9091H364.706ZM361.405 78.2102H363.372V84.821C363.372 85.0026 363.399 85.1442 363.455 85.2457C363.51 85.3442 363.587 85.4135 363.686 85.4535C363.787 85.4935 363.904 85.5135 364.036 85.5135C364.129 85.5135 364.221 85.5058 364.313 85.4904C364.406 85.4719 364.477 85.4581 364.526 85.4489L364.835 86.9123C364.737 86.9431 364.598 86.9785 364.42 87.0185C364.241 87.0616 364.024 87.0877 363.769 87.0969C363.295 87.1154 362.879 87.0523 362.522 86.9077C362.168 86.763 361.893 86.5384 361.696 86.2337C361.499 85.929 361.402 85.5443 361.405 85.0795V78.2102ZM368.996 87V79.9091H370.962V87H368.996ZM369.984 78.995C369.691 78.995 369.44 78.8981 369.231 78.7042C369.025 78.5072 368.922 78.2718 368.922 77.9979C368.922 77.727 369.025 77.4947 369.231 77.3008C369.44 77.1038 369.691 77.0053 369.984 77.0053C370.276 77.0053 370.525 77.1038 370.732 77.3008C370.941 77.4947 371.045 77.727 371.045 77.9979C371.045 78.2718 370.941 78.5072 370.732 78.7042C370.525 78.8981 370.276 78.995 369.984 78.995ZM374.504 82.9006V87H372.538V77.5455H374.449V81.1602H374.532C374.692 80.7416 374.951 80.4138 375.308 80.1768C375.665 79.9368 376.112 79.8168 376.651 79.8168C377.143 79.8168 377.573 79.9245 377.939 80.1399C378.308 80.3523 378.595 80.6585 378.798 81.0586C379.004 81.4556 379.105 81.9311 379.102 82.4851V87H377.136V82.8359C377.139 82.3989 377.028 82.0588 376.803 81.8157C376.582 81.5726 376.271 81.451 375.871 81.451C375.603 81.451 375.366 81.5079 375.16 81.6218C374.957 81.7357 374.797 81.9019 374.68 82.1204C374.566 82.3358 374.507 82.5959 374.504 82.9006ZM380.65 87V79.9091H382.557V81.1463H382.631C382.76 80.7062 382.977 80.3738 383.281 80.1491C383.586 79.9214 383.937 79.8075 384.334 79.8075C384.432 79.8075 384.539 79.8137 384.653 79.826C384.766 79.8383 384.866 79.8552 384.953 79.8768V81.6218C384.86 81.5941 384.733 81.5695 384.569 81.5479C384.406 81.5264 384.257 81.5156 384.122 81.5156C383.832 81.5156 383.574 81.5787 383.346 81.7049C383.121 81.828 382.943 82.0004 382.811 82.2219C382.681 82.4435 382.617 82.699 382.617 82.9883V87H380.65ZM389.015 87V77.5455H391.014V85.3519H395.067V87H389.015ZM398.376 87.1339C397.924 87.1339 397.521 87.0554 397.167 86.8984C396.813 86.7384 396.533 86.503 396.326 86.1921C396.123 85.8782 396.022 85.4873 396.022 85.0195C396.022 84.6256 396.094 84.2947 396.239 84.027C396.383 83.7592 396.58 83.5438 396.83 83.3807C397.079 83.2176 397.362 83.0945 397.679 83.0114C397.999 82.9283 398.335 82.8698 398.685 82.8359C399.098 82.7929 399.43 82.7528 399.683 82.7159C399.935 82.6759 400.118 82.6174 400.232 82.5405C400.346 82.4635 400.403 82.3497 400.403 82.1989V82.1712C400.403 81.8788 400.31 81.6526 400.126 81.4925C399.944 81.3325 399.686 81.2525 399.35 81.2525C398.996 81.2525 398.715 81.331 398.505 81.4879C398.296 81.6418 398.158 81.8357 398.09 82.0696L396.271 81.9219C396.363 81.491 396.545 81.1186 396.816 80.8047C397.087 80.4877 397.436 80.2446 397.864 80.0753C398.295 79.9029 398.793 79.8168 399.359 79.8168C399.753 79.8168 400.13 79.8629 400.491 79.9553C400.854 80.0476 401.175 80.1907 401.455 80.3846C401.738 80.5785 401.962 80.8278 402.125 81.1325C402.288 81.4341 402.369 81.7957 402.369 82.2173V87H400.504V86.0167H400.449C400.335 86.2383 400.183 86.4337 399.992 86.603C399.801 86.7692 399.572 86.9 399.304 86.9954C399.036 87.0877 398.727 87.1339 398.376 87.1339ZM398.939 85.7766C399.229 85.7766 399.484 85.7197 399.706 85.6058C399.927 85.4889 400.101 85.3319 400.227 85.1349C400.354 84.938 400.417 84.7148 400.417 84.4656V83.7131C400.355 83.7531 400.27 83.79 400.163 83.8239C400.058 83.8546 399.94 83.8839 399.807 83.9116C399.675 83.9362 399.543 83.9593 399.41 83.9808C399.278 83.9993 399.158 84.0162 399.05 84.0316C398.819 84.0655 398.618 84.1193 398.445 84.1932C398.273 84.267 398.139 84.3671 398.044 84.4933C397.948 84.6164 397.901 84.7702 397.901 84.9549C397.901 85.2227 397.998 85.4273 398.191 85.5689C398.388 85.7074 398.638 85.7766 398.939 85.7766ZM406.508 87.1154C405.969 87.1154 405.482 86.9769 405.045 86.6999C404.611 86.4199 404.266 86.009 404.011 85.4673C403.758 84.9226 403.632 84.2547 403.632 83.4638C403.632 82.6513 403.763 81.9757 404.024 81.4371C404.286 80.8955 404.634 80.4908 405.068 80.223C405.505 79.9522 405.983 79.8168 406.503 79.8168C406.9 79.8168 407.231 79.8845 407.496 80.0199C407.764 80.1522 407.979 80.3184 408.142 80.5185C408.309 80.7154 408.435 80.9093 408.521 81.1001H408.581V77.5455H410.543V87H408.604V85.8643H408.521C408.429 86.0613 408.298 86.2567 408.128 86.4506C407.962 86.6415 407.745 86.8 407.478 86.9261C407.213 87.0523 406.89 87.1154 406.508 87.1154ZM407.131 85.5504C407.448 85.5504 407.716 85.4643 407.935 85.2919C408.156 85.1165 408.325 84.8718 408.442 84.5579C408.562 84.244 408.622 83.8762 408.622 83.4545C408.622 83.0329 408.564 82.6667 408.447 82.3558C408.33 82.045 408.161 81.8049 407.939 81.6357C407.718 81.4664 407.448 81.3817 407.131 81.3817C406.808 81.3817 406.536 81.4695 406.314 81.6449C406.093 81.8203 405.925 82.0634 405.811 82.3743C405.697 82.6851 405.64 83.0452 405.64 83.4545C405.64 83.867 405.697 84.2317 405.811 84.5487C405.928 84.8626 406.096 85.1088 406.314 85.2873C406.536 85.4627 406.808 85.5504 407.131 85.5504ZM415.391 87.1385C414.662 87.1385 414.034 86.9908 413.508 86.6953C412.985 86.3968 412.581 85.9751 412.298 85.4304C412.015 84.8826 411.874 84.2347 411.874 83.4869C411.874 82.7575 412.015 82.1173 412.298 81.5664C412.581 81.0155 412.98 80.5862 413.494 80.2784C414.011 79.9706 414.617 79.8168 415.313 79.8168C415.781 79.8168 416.216 79.8922 416.619 80.043C417.026 80.1907 417.379 80.4138 417.681 80.7124C417.986 81.0109 418.223 81.3864 418.392 81.8388C418.561 82.2881 418.646 82.8144 418.646 83.4176V83.9577H412.658V82.739H416.795C416.795 82.4558 416.733 82.205 416.61 81.9865C416.487 81.768 416.316 81.5972 416.098 81.4741C415.882 81.3479 415.631 81.2848 415.345 81.2848C415.047 81.2848 414.782 81.354 414.551 81.4925C414.323 81.628 414.145 81.8111 414.016 82.0419C413.886 82.2696 413.82 82.5236 413.817 82.8036V83.9624C413.817 84.3132 413.882 84.6164 414.011 84.8718C414.143 85.1272 414.33 85.3242 414.57 85.4627C414.81 85.6012 415.094 85.6705 415.424 85.6705C415.642 85.6705 415.842 85.6397 416.024 85.5781C416.205 85.5166 416.361 85.4242 416.49 85.3011C416.619 85.178 416.718 85.0272 416.786 84.8487L418.604 84.9688C418.512 85.4058 418.323 85.7874 418.037 86.1136C417.753 86.4368 417.387 86.6892 416.938 86.8707C416.492 87.0492 415.976 87.1385 415.391 87.1385ZM425.829 81.9311L424.029 82.0419C423.998 81.888 423.932 81.7495 423.83 81.6264C423.729 81.5002 423.595 81.4002 423.429 81.3263C423.266 81.2494 423.07 81.2109 422.842 81.2109C422.538 81.2109 422.281 81.2756 422.071 81.4048C421.862 81.531 421.757 81.7003 421.757 81.9126C421.757 82.0819 421.825 82.225 421.961 82.342C422.096 82.4589 422.328 82.5528 422.658 82.6236L423.941 82.8821C424.63 83.0237 425.144 83.2514 425.483 83.5653C425.821 83.8793 425.991 84.2917 425.991 84.8026C425.991 85.2673 425.854 85.6751 425.58 86.0259C425.309 86.3768 424.937 86.6507 424.463 86.8477C423.992 87.0415 423.449 87.1385 422.833 87.1385C421.894 87.1385 421.147 86.9431 420.589 86.5522C420.036 86.1583 419.711 85.6228 419.615 84.9457L421.55 84.8441C421.608 85.1303 421.75 85.3488 421.974 85.4996C422.199 85.6474 422.487 85.7212 422.838 85.7212C423.182 85.7212 423.459 85.6551 423.669 85.5227C423.881 85.3873 423.989 85.2134 423.992 85.0011C423.989 84.8226 423.913 84.6764 423.766 84.5625C423.618 84.4455 423.39 84.3563 423.082 84.2947L421.854 84.0501C421.162 83.9116 420.646 83.6715 420.308 83.3299C419.972 82.9883 419.805 82.5528 419.805 82.0234C419.805 81.5679 419.928 81.1755 420.174 80.8462C420.423 80.5169 420.773 80.263 421.222 80.0845C421.674 79.906 422.204 79.8168 422.81 79.8168C423.706 79.8168 424.41 80.006 424.924 80.3846C425.441 80.7631 425.743 81.2786 425.829 81.9311ZM431.001 79.9091V81.3864H426.731V79.9091H431.001ZM427.7 78.2102H429.667V84.821C429.667 85.0026 429.694 85.1442 429.75 85.2457C429.805 85.3442 429.882 85.4135 429.981 85.4535C430.082 85.4935 430.199 85.5135 430.331 85.5135C430.424 85.5135 430.516 85.5058 430.608 85.4904C430.701 85.4719 430.772 85.4581 430.821 85.4489L431.13 86.9123C431.032 86.9431 430.893 86.9785 430.715 87.0185C430.536 87.0616 430.319 87.0877 430.064 87.0969C429.59 87.1154 429.174 87.0523 428.817 86.9077C428.463 86.763 428.188 86.5384 427.991 86.2337C427.794 85.929 427.697 85.5443 427.7 85.0795V78.2102ZM435.437 87.1385C434.708 87.1385 434.08 86.9908 433.554 86.6953C433.031 86.3968 432.627 85.9751 432.344 85.4304C432.061 84.8826 431.919 84.2347 431.919 83.4869C431.919 82.7575 432.061 82.1173 432.344 81.5664C432.627 81.0155 433.026 80.5862 433.54 80.2784C434.057 79.9706 434.663 79.8168 435.359 79.8168C435.827 79.8168 436.262 79.8922 436.665 80.043C437.071 80.1907 437.425 80.4138 437.727 80.7124C438.032 81.0109 438.269 81.3864 438.438 81.8388C438.607 82.2881 438.692 82.8144 438.692 83.4176V83.9577H432.704V82.739H436.841C436.841 82.4558 436.779 82.205 436.656 81.9865C436.533 81.768 436.362 81.5972 436.144 81.4741C435.928 81.3479 435.677 81.2848 435.391 81.2848C435.093 81.2848 434.828 81.354 434.597 81.4925C434.369 81.628 434.191 81.8111 434.062 82.0419C433.932 82.2696 433.866 82.5236 433.863 82.8036V83.9624C433.863 84.3132 433.928 84.6164 434.057 84.8718C434.189 85.1272 434.375 85.3242 434.616 85.4627C434.856 85.6012 435.14 85.6705 435.47 85.6705C435.688 85.6705 435.888 85.6397 436.07 85.5781C436.251 85.5166 436.407 85.4242 436.536 85.3011C436.665 85.178 436.764 85.0272 436.831 84.8487L438.65 84.9688C438.558 85.4058 438.369 85.7874 438.082 86.1136C437.799 86.4368 437.433 86.6892 436.984 86.8707C436.537 87.0492 436.022 87.1385 435.437 87.1385ZM443.179 87.1385C442.453 87.1385 441.828 86.9846 441.305 86.6768C440.785 86.366 440.385 85.9351 440.104 85.3842C439.828 84.8333 439.689 84.1993 439.689 83.4822C439.689 82.7559 439.829 82.1188 440.109 81.571C440.392 81.0201 440.794 80.5908 441.314 80.283C441.834 79.9722 442.453 79.8168 443.17 79.8168C443.788 79.8168 444.33 79.9291 444.795 80.1538C445.26 80.3784 445.627 80.6939 445.898 81.1001C446.169 81.5064 446.318 81.9834 446.346 82.5312H444.49C444.438 82.1773 444.299 81.8926 444.075 81.6772C443.853 81.4587 443.562 81.3494 443.202 81.3494C442.897 81.3494 442.631 81.4325 442.403 81.5987C442.179 81.7618 442.003 82.0004 441.877 82.3143C441.751 82.6282 441.688 83.0083 441.688 83.4545C441.688 83.907 441.749 84.2917 441.873 84.6087C441.999 84.9257 442.176 85.1673 442.403 85.3335C442.631 85.4996 442.897 85.5827 443.202 85.5827C443.427 85.5827 443.628 85.5366 443.807 85.4442C443.988 85.3519 444.138 85.218 444.255 85.0426C444.375 84.8641 444.453 84.6502 444.49 84.4009H446.346C446.315 84.9426 446.167 85.4196 445.903 85.832C445.641 86.2414 445.28 86.5614 444.818 86.7923C444.356 87.0231 443.81 87.1385 443.179 87.1385ZM449.387 84.9595L449.392 82.6005H449.678L451.949 79.9091H454.207L451.155 83.473H450.689L449.387 84.9595ZM447.605 87V77.5455H449.572V87H447.605ZM452.037 87L449.95 83.9116L451.261 82.522L454.341 87H452.037ZM458.111 87.1385C457.382 87.1385 456.754 86.9908 456.228 86.6953C455.704 86.3968 455.301 85.9751 455.018 85.4304C454.735 84.8826 454.593 84.2347 454.593 83.4869C454.593 82.7575 454.735 82.1173 455.018 81.5664C455.301 81.0155 455.7 80.5862 456.214 80.2784C456.731 79.9706 457.337 79.8168 458.033 79.8168C458.5 79.8168 458.936 79.8922 459.339 80.043C459.745 80.1907 460.099 80.4138 460.401 80.7124C460.706 81.0109 460.943 81.3864 461.112 81.8388C461.281 82.2881 461.366 82.8144 461.366 83.4176V83.9577H455.378V82.739H459.514C459.514 82.4558 459.453 82.205 459.33 81.9865C459.207 81.768 459.036 81.5972 458.817 81.4741C458.602 81.3479 458.351 81.2848 458.065 81.2848C457.766 81.2848 457.502 81.354 457.271 81.4925C457.043 81.628 456.865 81.8111 456.735 82.0419C456.606 82.2696 456.54 82.5236 456.537 82.8036V83.9624C456.537 84.3132 456.601 84.6164 456.731 84.8718C456.863 85.1272 457.049 85.3242 457.289 85.4627C457.529 85.6012 457.814 85.6705 458.143 85.6705C458.362 85.6705 458.562 85.6397 458.744 85.5781C458.925 85.5166 459.081 85.4242 459.21 85.3011C459.339 85.178 459.438 85.0272 459.505 84.8487L461.324 84.9688C461.232 85.4058 461.043 85.7874 460.756 86.1136C460.473 86.4368 460.107 86.6892 459.658 86.8707C459.211 87.0492 458.696 87.1385 458.111 87.1385ZM462.649 87V79.9091H464.556V81.1463H464.63C464.759 80.7062 464.976 80.3738 465.28 80.1491C465.585 79.9214 465.936 79.8075 466.333 79.8075C466.431 79.8075 466.538 79.8137 466.652 79.826C466.765 79.8383 466.865 79.8552 466.952 79.8768V81.6218C466.859 81.5941 466.732 81.5695 466.568 81.5479C466.405 81.5264 466.256 81.5156 466.121 81.5156C465.831 81.5156 465.573 81.5787 465.345 81.7049C465.12 81.828 464.942 82.0004 464.81 82.2219C464.68 82.4435 464.616 82.699 464.616 82.9883V87H462.649Z" fill="black"/>
<path d="M291 137.5L300.925 143.402L301.073 131.856L291 137.5ZM367.5 92C367.5 107.957 360.628 118.948 348.836 126.051C336.969 133.198 320.056 136.439 299.994 136.616L300.011 138.616C320.218 138.438 337.553 135.181 349.868 127.764C362.257 120.302 369.5 108.663 369.5 92H367.5Z" fill="black"/>
</svg>
