<?xml version="1.0" encoding="UTF-8"?><svg id="line" xmlns="http://www.w3.org/2000/svg" viewBox="0 0 64 64"><defs><style>.cls-1{stroke-width:0px;}</style></defs><path class="cls-1" d="m55.58203,24.74854c-1.75189-2.70929-4.84308-3.50696-6.6532-3.73804.06531-.32416.10107-.62878.11218-.89771.11426-2.79395-1.85547-5.6582-4.58301-6.66309-2.49316-.91846-10.78516-4.34033-12.79492-9.79541-.35825-.98883-1.88981-.7505-1.93748.31354-.00197.03021-.28615,3.06781-7.46486,6.28558-3.87402,1.73682-3.6582,4.46338-3.38574,5.55518.00751.03003.02228.05951.03033.08948-1.64771.66766-5.48755,2.573-5.73315,5.79376-1.6554.41064-5.12329,1.67432-5.81573,5.16754-.76618,3.61627.51864,7.88985,3.3841,10.35102,0-.00001,5.40887,20.00396,5.40887,20.00396.60254,2.229,2.63672,3.78564,4.94531,3.78564h21.7998c2.30957,0,4.34277-1.55664,4.94531-3.78564,0,0,5.75879-21.29205,5.75879-21.29205,3.37095-2.42201,4.27002-7.78417,1.9834-11.17377Zm-37.50195,31.94336l-4.84332-17.91235c1.44086.60962,3.01746.83911,4.58112.63385l1.28955,6.6955c.27681,1.29152,2.19008.91178,1.96483-.37797.00001.00004-1.31048-6.80416-1.31048-6.80416,1.36468-.50789,3.23417-1.29948,4.26288-1.56337,0,.00002,2.78894,21.63661,2.78894,21.63661h-3.17889l-1.88373-9.76953c-.26743-1.28779-2.19152-.91575-1.96288.37895,0-.00004,1.81066,9.39058,1.81066,9.39058-1.56787.154-3.11322-.74063-3.51868-2.30811Zm16.06641-15.37012c1.26044.03814,2.66814-.63169,3.89414-1.87316.00002.00005-2.52189,19.55138-2.52189,19.55138,0,0-2.34296,0-2.34296,0v-17.78455c.32312.06226.64648.10632.9707.10632Zm10.74658-3.97131l-4.17615,21.64954h-3.18079l2.74078-21.24829c1.59113-.89868,3.08124-1.02228,4.61615-.40125Zm-13.71729,21.64954s-2.34485,0-2.34485,0l-2.77594-21.53601c1.53859.7106,3.53396,2.33006,5.12082,3.05508-.00003.00004-.00003,18.48093-.00003,18.48093Zm14.73438-2.30811c-.37801,1.40945-1.70229,2.36757-3.15729,2.3081,0,0,4.07001-21.09911,4.07001-21.09911,1.83325.24634,3.49121-.28699,4.34357-.64307l-5.25629,19.43408Zm8.62793-25.43115c-.59072,1.8736-1.94069,3.26128-3.74122,3.9658-.02538.01418-2.56444,1.39455-4.91991.35598-2.3711-1.05447-4.80696-.79121-7.17713.7912-.74572.48566-1.49645,1.08557-2.25549,1.82257-2.57745,2.50483-4.84777.22636-7.50294-1.36708-3.70374-2.77342-5.80281-1.31291-10.02053.27689-3.30856,1.19078-7.05661-.44594-8.73337-3.80678-.98242-1.96826-1.27539-4.00439-.87012-6.05127.44965-2.26611,2.86615-3.21564,4.16748-3.5683,1.84705,4.52362,11.56952,7.82806,15.36572,7.98383,1.31649.03112,1.39267-1.92144.08199-1.99805-6.44592-.56442-21.2025-7.0094-9.17476-11.94905,2.393,3.62783,8.59234,6.55928,13.91015,6.19612,1.30057-.11175,1.19093-2.05239-.13676-1.99511-5.6191.37938-11.915-3.38966-12.71578-6.59376-.33203-1.33105.42871-2.42285,2.26367-3.24512,4.56738-2.04785,6.72461-4.12939,7.74121-5.67188,3.10449,4.85156,9.89941,7.79688,12.94629,8.91992,3.83529,1.55758,4.55977,6.47125.56963,8.40581-.25518-2.99681-2.76043-5.23503-11.19365-6.44243-3.80078-.5459-6.19141-2.00195-6.91211-4.20996-.41713-1.23483-2.29098-.64427-1.90037.62016.67771,2.07954,2.70896,4.73335,8.5283,5.56929,9.00452,1.28949,9.66174,3.49622,9.51373,5.29889-7.86912,2.64858-16.51198.24491-16.21005.20682-1.24576-.40908-1.88823,1.44196-.65325,1.8903.20308.0703,3.46968,1.17284,8.32027,1.17284,3.96166.0362,12.06102-.98415,14.32556-4.89771.76904.05823,2.15381.25965,3.466.91791-.33826,1.54126-1.69354,5.41534-6.80817,5.8089-1.31585.12445-1.14975,2.07652.15434,1.99413,5.58626-.42968,7.63253-4.2597,8.36238-6.544,1.49724,1.58822,1.88739,3.97904,1.20886,6.14313Z"/></svg>