<svg width="350" height="250" viewBox="0 0 350 250" fill="none" xmlns="http://www.w3.org/2000/svg">
<rect x="5" y="5" width="340" height="240" rx="30" stroke="#4DA4B8" stroke-width="10"/>
<path d="M232 32C235.314 32 238 34.6863 238 38V212C238 215.314 235.314 218 232 218H119C115.686 218 113 215.314 113 212V38C113 34.6863 115.686 32 119 32H232ZM175.5 163C165.283 163 157 171.283 157 181.5C157 191.717 165.283 200 175.5 200C185.717 200 194 191.717 194 181.5C194 171.283 185.717 163 175.5 163ZM124 182L148 195.856V168.144L124 182ZM203 195.856L227 182L203 168.144V195.856ZM127 142H223V46H127V142Z" fill="#4DA4B8"/>
</svg>
