<svg width="350" height="250" viewBox="0 0 350 250" fill="none" xmlns="http://www.w3.org/2000/svg">
<rect x="5" y="5" width="340" height="240" rx="30" stroke="#4DA4B8" stroke-width="10"/>
<mask id="path-2-inside-1_37_155" fill="white">
<path d="M110 192C110 186.477 114.477 182 120 182H232V201C232 206.523 227.523 211 222 211H120C114.477 211 110 206.523 110 201V192Z"/>
</mask>
<path d="M232 182H237V177H232V182ZM120 182V187H232V182V177H120V182ZM232 182H227V201H232H237V182H232ZM222 211V206H120V211V216H222V211ZM110 201H115V192H110H105V201H110ZM120 211V206C117.239 206 115 203.761 115 201H110H105C105 209.284 111.716 216 120 216V211ZM232 201H227C227 203.761 224.761 206 222 206V211V216C230.284 216 237 209.284 237 201H232ZM120 182V177C111.716 177 105 183.716 105 192H110H115C115 189.239 117.239 187 120 187V182Z" fill="#4DA4B8" mask="url(#path-2-inside-1_37_155)"/>
<path d="M122 189.5C120.619 189.5 119.5 190.619 119.5 192C119.5 193.381 120.619 194.5 122 194.5L122 189.5ZM122 192L122 194.5L229 194.5L229 192L229 189.5L122 189.5L122 192Z" fill="#4DA4B8"/>
<path d="M122 198.5C120.619 198.5 119.5 199.619 119.5 201C119.5 202.381 120.619 203.5 122 203.5L122 198.5ZM122 201L122 203.5L229 203.5L229 201L229 198.5L122 198.5L122 201Z" fill="#4DA4B8"/>
<path d="M231 42C236.523 42 241 46.4772 241 52V177.5C241 182.747 236.747 187 231.5 187H118.25C116.511 187 115.091 188.366 115.004 190.083L114.996 190.417C114.909 192.134 113.489 193.5 111.75 193.5H110V52C110 46.4772 114.477 42 120 42H231ZM171.343 82C170.183 82 169.186 82.8268 168.971 83.9639L167.521 91.6309C167.447 92.0302 167.167 92.3591 166.794 92.4893C165.832 92.8226 164.877 93.22 163.959 93.666C163.608 93.8342 163.189 93.7975 162.862 93.5771L156.404 89.1699C155.446 88.5173 154.158 88.6387 153.337 89.458L147.459 95.3379C146.64 96.1573 146.519 97.4469 147.173 98.4033L151.577 104.861C151.801 105.189 151.835 105.61 151.667 105.957C151.221 106.877 150.825 107.83 150.49 108.793C150.36 109.168 150.032 109.446 149.633 109.521L141.967 110.97C140.826 111.185 140 112.182 140 113.342V121.657C140 122.817 140.826 123.815 141.965 124.03L149.633 125.479C150.032 125.554 150.36 125.834 150.49 126.205C150.824 127.169 151.219 128.122 151.667 129.042C151.835 129.391 151.801 129.811 151.577 130.139L147.173 136.597C146.519 137.553 146.64 138.843 147.459 139.662L153.337 145.542C154.156 146.36 155.446 146.485 156.404 145.829L162.862 141.425C163.192 141.199 163.61 141.168 163.959 141.334C164.874 141.778 165.829 142.174 166.794 142.511C167.167 142.641 167.447 142.97 167.521 143.369L168.971 151.035C169.186 152.174 170.183 153 171.343 153H179.657C180.815 153 181.812 152.174 182.029 151.035L183.477 143.369C183.553 142.97 183.831 142.641 184.204 142.511C185.167 142.176 186.122 141.78 187.042 141.334C187.389 141.166 187.81 141.201 188.138 141.423L194.596 145.829C195.552 146.482 196.842 146.361 197.663 145.542L203.541 139.662C204.36 138.843 204.482 137.555 203.829 136.597L199.423 130.139C199.199 129.811 199.164 129.391 199.334 129.042C199.777 128.129 200.173 127.174 200.512 126.207C200.64 125.834 200.97 125.554 201.369 125.479L209.035 124.03C210.174 123.815 211 122.817 211 121.657V113.342C211 112.182 210.174 111.185 209.035 110.97L201.369 109.521C200.97 109.446 200.64 109.168 200.512 108.793C200.173 107.825 199.777 106.87 199.333 105.957C199.165 105.61 199.199 105.189 199.423 104.861L203.829 98.4033C204.482 97.4452 204.36 96.1555 203.541 95.3379L197.663 89.458C196.844 88.6388 195.554 88.5185 194.596 89.1709L188.138 93.5752C187.81 93.7991 187.389 93.8344 187.042 93.666C186.122 93.22 185.167 92.8226 184.204 92.4893C183.831 92.3591 183.553 92.0302 183.477 91.6309L182.029 83.9639C181.812 82.8268 180.815 82 179.657 82H171.343ZM175.5 102.794C183.609 102.794 190.207 109.39 190.207 117.499C190.207 125.61 183.609 132.206 175.5 132.206C167.391 132.206 160.793 125.61 160.793 117.499C160.793 109.39 167.391 102.794 175.5 102.794Z" fill="#4DA4B8"/>
</svg>
