<svg width="463" height="171" viewBox="0 0 463 171" fill="none" xmlns="http://www.w3.org/2000/svg">
<path fill-rule="evenodd" clip-rule="evenodd" d="M56.0769 4.33833C60.9469 8.55833 64.3069 12.8383 65.0769 19.3383C65.1169 21.6683 65.1269 24.0083 65.0769 26.3383C68.6369 24.8183 70.9869 22.6883 73.7669 20.0283C82.0969 12.3783 89.1269 9.01834 100.397 9.19833C104.617 9.41833 107.567 9.89833 110.697 12.8883C115.397 18.1583 117.257 22.2483 118.077 29.3383H120.077L120.077 29.3381C120.744 28.644 121.106 28.2669 121.449 27.8735C121.858 27.4054 122.24 26.9142 123.077 25.8387L123.077 25.8383C130.277 17.4283 138.837 10.2483 150.167 8.99834C155.787 8.82834 160.377 8.92833 165.077 12.3383C170.657 18.0783 172.407 23.6983 172.307 31.4583C171.914 36.479 170.656 41.2725 169.383 46.1247C169.294 46.4622 169.205 46.8001 169.117 47.1383C168.817 48.3483 168.517 49.5483 168.197 50.7783C167.463 53.6987 166.712 56.6132 165.96 59.5263L165.959 59.5318C165.842 59.987 165.724 60.442 165.607 60.8971C165.494 61.3375 165.38 61.7779 165.267 62.2183L163.317 69.8683C162.117 74.5783 160.917 79.2883 159.707 83.9983C158.367 89.2083 157.047 94.4183 155.747 99.6383C155.188 101.893 154.621 104.143 154.054 106.394L154.052 106.402C153.737 107.653 153.421 108.905 153.107 110.158L151.547 116.368C151.367 117.068 151.189 117.768 151.012 118.468C150.834 119.168 150.657 119.868 150.477 120.568L150.476 120.572C149.247 125.435 148.632 127.867 148.043 130.305C147.454 132.743 146.892 135.189 145.767 140.078C145.607 140.818 145.447 141.558 145.277 142.318C144.897 146.148 145.957 148.158 148.077 151.338C154.063 152.115 157.391 149.846 162.171 146.587L162.227 146.548C171.627 139.268 177.267 130.098 183.317 120.048C191.117 107.178 200.967 93.5883 215.957 88.7283C223.757 87.2883 231.417 87.3083 238.197 91.7183C242.217 95.1883 244.577 99.0283 245.697 104.218C244.067 112.398 239.627 119.238 233.077 124.338C230.507 125.978 227.897 127.188 225.077 128.338C224.287 128.688 223.497 129.038 222.687 129.398C214.677 132.668 206.607 133.528 198.077 134.338C196.237 140.038 197.947 146.028 200.517 151.278C204.397 156.398 207.767 157.808 214.197 158.838C222.967 157.708 230.327 152.728 236.557 146.658C238.077 145.338 238.077 145.338 239.576 144.339L239.577 144.338C239.632 144.301 239.686 144.267 239.737 144.234C240.073 144.018 240.334 143.85 240.577 143.338C241.622 141.335 242.969 139.592 244.327 137.834C245.01 136.951 245.695 136.064 246.347 135.138C251.027 127.558 254.297 119.528 257.267 111.148C257.452 110.636 257.637 110.121 257.824 109.601L257.841 109.555L257.847 109.539C257.995 109.125 258.145 108.709 258.297 108.288C259.727 104.308 261.077 100.468 261.917 96.3183C262.491 94.8437 262.781 94.0988 263.274 93.5298C263.777 92.949 264.492 92.5515 265.937 91.7483C266.522 91.5944 267.107 91.4404 267.696 91.2851C268.255 91.1378 268.817 90.9892 269.387 90.8383C271.077 90.3611 271.087 90.3584 272.788 89.8766L272.817 89.8683C275.987 89.3483 278.017 89.4683 281.077 90.3383C282.277 94.5283 281.697 96.3883 280.077 100.338C279.637 102.248 279.247 104.168 278.897 106.088C278.814 106.524 278.733 106.959 278.652 107.395L278.651 107.403C278.526 108.074 278.4 108.749 278.267 109.438C278.067 110.578 277.857 111.718 277.637 112.898C276.427 119.548 275.167 126.138 273.437 132.678C272.217 137.408 271.697 141.518 271.767 146.398C271.767 147.018 271.769 147.638 271.772 148.263C271.774 148.898 271.777 149.538 271.777 150.188C271.837 153.498 271.837 153.498 274.077 156.338L274.077 156.338C281.497 157.208 287.567 154.288 293.377 149.898C301.847 142.118 305.547 129.858 306.247 118.658C306.287 113.308 305.907 108.498 304.517 103.308C304.369 102.644 304.27 102.204 304.205 101.759C304.077 100.884 304.077 99.9898 304.077 97.3383C305.967 96.6583 307.867 95.9983 309.767 95.3383C310.817 94.9683 311.877 94.5983 312.967 94.2183C315.967 93.3683 318.007 92.8083 321.077 93.3383C321.962 94.2604 322.432 94.7509 322.867 95.2712C323.361 95.8625 323.809 96.4924 324.767 97.838L324.767 97.8383C326.597 99.9789 327.497 101.031 328.616 101.734C329.698 102.413 330.985 102.765 333.517 103.458L333.517 103.458C339.763 102.891 345.465 99.5265 350.903 96.3185L350.905 96.3175C351.978 95.6841 353.042 95.0568 354.097 94.4583C362.507 89.7183 370.747 85.9383 380.597 87.8183C385.197 89.1983 388.437 91.1383 392.077 94.3383H394.077C394.607 93.3583 395.137 92.3783 395.687 91.3583C396.871 89.8626 397.468 89.1076 398.242 88.6549C399.031 88.1936 400.004 88.0461 401.967 87.7483C403.417 87.7883 404.877 87.8583 406.327 87.9583L406.882 87.9806C407.445 88.0032 408.007 88.0258 408.587 88.0483C410.417 88.1183 412.247 88.2283 414.077 88.3383C412.787 98.8083 411.517 108.988 408.127 119.018C406.817 123.168 405.797 127.348 404.827 131.588C404.716 132.04 404.608 132.495 404.5 132.954L404.498 132.961C404.432 133.242 404.365 133.525 404.297 133.808C403.157 138.918 402.387 144.108 403.077 149.338C404.687 152.508 404.687 152.508 407.177 152.808C415.777 152.918 420.497 149.908 426.637 144.148C439.167 130.938 445.587 114.788 445.417 96.6383C444.737 90.0683 442.157 85.1483 437.197 80.8383C430.877 77.7983 425.197 77.0483 418.317 77.0983C417.457 77.0883 416.597 77.0883 415.707 77.0883C412.853 77.0784 409.998 77.0883 407.134 77.0983H407.132L407.117 77.0983C405.057 77.0983 403.007 77.0983 400.947 77.0883C396.517 77.0883 392.087 77.0883 387.657 77.0983C380.647 77.0983 373.637 77.0883 366.627 77.0783C346.687 77.0383 326.757 77.0183 306.827 77.0283C295.807 77.0383 284.797 77.0283 273.777 76.9983C266.817 76.9783 259.857 76.9783 252.897 76.9983C248.557 77.0083 244.217 76.9983 239.867 76.9783C237.867 76.9683 235.867 76.9683 233.857 76.9883C209.677 77.1283 209.677 77.1283 200.947 69.4683C196.847 65.0283 195.937 61.3583 195.957 55.3383C195.947 54.2883 195.947 53.2383 195.947 52.1483V52.1482C196.008 50.8239 196.041 50.1237 196.162 49.4395C196.299 48.6719 196.548 47.9244 197.077 46.3383H200.077C200.287 46.8683 200.497 47.3983 200.707 47.9483C203.197 53.6483 205.347 55.8683 211.077 58.3383C216.017 59.4283 220.777 59.4683 225.807 59.4383H228.427L237.117 59.4083C238.158 59.4033 239.199 59.4008 240.239 59.3983C241.279 59.3958 242.318 59.3933 243.357 59.3883C247.837 59.3783 252.317 59.3683 256.787 59.3483C263.856 59.3284 270.925 59.3184 277.984 59.3084L278.047 59.3083C298.197 59.2683 318.347 59.2283 338.497 59.1683C349.627 59.1283 360.757 59.1083 371.887 59.0983C377.777 59.0883 383.657 59.0783 389.547 59.0483C395.087 59.0283 400.627 59.0183 406.167 59.0183C408.184 59.0183 410.191 59.0085 412.208 58.9985L412.247 58.9983C441.207 58.8183 441.207 58.8183 452.197 69.3783C459.687 77.3783 462.757 83.7883 462.457 94.7783C462.452 95.4359 462.449 95.7684 462.448 96.1009C462.447 96.4408 462.447 96.7808 462.447 97.4683C462.317 107.098 460.177 115.008 456.017 123.648C455.617 124.478 455.217 125.308 454.807 126.158C451.307 133.248 447.277 139.348 442.077 145.338C441.417 146.118 440.757 146.908 440.077 147.718C428.837 159.998 412.687 168.628 396.037 169.438C390.707 169.258 387.647 167.868 383.767 164.088C381.767 160.828 380.947 158.048 380.077 154.338C376.23 154.865 374.297 156.728 371.632 159.297C371.512 159.413 371.39 159.53 371.267 159.648C364.417 165.988 358.177 169.858 348.657 169.748C342.297 168.738 336.747 165.208 332.517 160.458C327.377 149.298 328.987 138.658 333.077 127.338C334.517 124.318 336.077 121.468 337.807 118.608C338.997 116.478 339.627 114.718 340.077 112.338L340.046 112.352C339.312 112.68 338.938 112.848 338.563 113.017C338.178 113.191 337.793 113.366 337.017 113.718C331.597 115.998 326.767 117.448 320.847 117.388L319.514 117.378L318.137 117.368C317.457 117.358 316.777 117.348 316.077 117.338C315.956 117.764 315.84 118.193 315.722 118.627L315.722 118.628C315.654 118.877 315.586 119.127 315.517 119.378C314.647 122.498 313.767 125.608 312.887 128.718C312.597 129.778 312.307 130.838 312.007 131.928C308.137 145.488 302.367 157.028 290.077 164.778C282.537 168.878 274.757 171.998 266.077 170.338C257.727 167.298 250.287 163.578 246.077 155.338L245.077 152.338C241.117 153.718 238.247 155.578 234.957 158.148C224.267 166.108 214.357 169.358 201.077 168.338C193.117 166.388 186.307 160.788 181.637 154.148C180.327 151.788 179.487 149.988 179.077 147.338C174.569 147.475 172.603 149.594 169.883 152.525C169.629 152.799 169.367 153.081 169.097 153.368C165.747 156.635 161.9 159.165 158.016 161.72C157.703 161.926 157.39 162.132 157.077 162.338C156.347 162.838 155.617 163.338 154.867 163.858C150.917 166.488 147.917 168.058 143.077 168.338C142.157 168.398 141.237 168.458 140.287 168.528C133.607 168.788 129.387 168.518 124.077 164.338C120.607 160.318 120.737 156.418 121.077 151.338C121.527 148.448 122.197 145.638 122.907 142.808L122.909 142.8C123.187 141.618 123.188 141.615 123.477 140.398C124.087 137.878 124.707 135.358 125.327 132.838L126.527 127.858C128.437 119.918 130.407 111.998 132.397 104.078C133.838 98.3289 135.245 92.5795 136.652 86.8301L136.694 86.6575C136.962 85.5645 137.229 84.4714 137.497 83.3783C137.807 82.1083 138.117 80.8408 138.427 79.5733C138.737 78.3058 139.047 77.0383 139.357 75.7683C140.31 71.8685 141.262 67.9589 142.215 64.0492L142.237 63.9583L145.057 52.4383C145.347 51.2583 145.637 50.0683 145.927 48.8483C146.197 47.7583 146.467 46.6683 146.737 45.5483L146.739 45.5395C146.916 44.8323 147.006 44.4739 147.094 44.1152C147.185 43.7479 147.275 43.3805 147.457 42.6383C147.777 41.4523 147.931 40.8779 148.144 40.3254C148.343 39.8065 148.593 39.307 149.077 38.3383C149.227 36.6983 149.297 35.0483 149.327 33.3983L149.329 33.335C149.367 32.088 149.368 32.0664 149.407 30.7483C149.257 28.3083 149.257 28.3083 147.827 26.5283C145.2 24.7401 143.116 25.0675 140.23 25.5213L140.226 25.5219C139.982 25.5602 139.733 25.5994 139.477 25.6383C135.207 26.8783 132.287 29.3383 129.077 32.3383C128.631 32.7498 128.406 32.9573 128.181 33.1655C127.953 33.3772 127.726 33.5897 127.267 34.0183C112.031 49.8026 106.648 76.2989 101.908 99.629C100.6 106.067 99.3405 112.264 97.9369 117.928C96.8699 122.179 95.7351 126.4 94.5978 130.63C94.4242 131.276 94.2505 131.922 94.0769 132.568C93.2269 135.778 92.4169 138.998 91.6269 142.218C89.3969 151.348 86.7769 160.338 84.0769 169.338H64.0769C63.1069 165.448 63.0169 164.618 64.0769 161.048C64.2645 160.418 64.4464 159.782 64.6312 159.137C64.6671 159.011 64.703 158.885 64.7392 158.759C64.765 158.669 64.7909 158.579 64.8169 158.488C64.9295 158.109 65.0421 157.728 65.1554 157.344L65.1569 157.339C65.3149 156.804 65.4742 156.265 65.6369 155.718C67.9669 147.528 70.0769 139.328 71.9569 131.028C74.1269 121.428 76.3669 111.858 78.6769 102.298C78.8468 101.599 79.0167 100.897 79.1865 100.195C79.3567 99.4919 79.5268 98.7889 79.6969 98.0883C81.7269 89.6583 83.8769 81.2683 86.1269 72.8983C87.5469 67.5883 88.8769 62.2483 90.1969 56.8983C90.4047 56.0912 90.6061 55.2841 90.8113 54.4617L90.9669 53.8383C91.2069 52.8633 91.4494 51.8883 91.6919 50.9133C91.9344 49.9383 92.1769 48.9633 92.4169 47.9883L92.6273 47.1511L92.628 47.1483C92.9779 45.7558 93.329 44.3586 93.6869 42.9683C95.7569 35.0383 95.7569 35.0383 93.5169 27.3983C91.1869 25.1083 91.1869 25.1083 87.9569 24.6483C79.9069 26.0783 73.7069 30.7383 69.0769 37.3383C68.0569 38.9983 67.0569 40.6583 66.0769 42.3383L64.0769 44.3383L64.0768 44.3387C63.6868 45.2042 63.4823 45.6581 63.3009 46.1209C63.1008 46.6312 62.9287 47.1525 62.567 48.2482L62.5669 48.2483C62.3972 48.7443 62.2233 49.2446 62.0479 49.7491C61.9545 50.0176 61.8607 50.2874 61.7669 50.5583C61.4969 51.3483 61.2269 52.1483 60.9569 52.9583C60.9082 53.0992 60.8595 53.2398 60.8108 53.3803C60.7662 53.509 60.7216 53.6376 60.6769 53.7661C60.4903 54.3039 60.3036 54.8417 60.1169 55.3883C59.6782 56.6472 59.2476 57.91 58.8174 59.1718L58.8164 59.1748C58.5703 59.8966 58.3243 60.6181 58.0769 61.3383C57.9483 61.7129 57.9264 61.8627 57.9091 61.9812C57.8847 62.1483 57.8694 62.2534 57.5769 62.8384L56.5769 64.8384C56.1426 66.8649 55.7612 68.7465 55.3959 70.5483C54.4994 74.9702 53.7003 78.912 52.4569 83.3383C52.0178 84.9145 51.5848 86.4906 51.1532 88.0619L51.1529 88.0629L50.7969 89.3583C50.6118 90.0388 50.4267 90.7167 50.2416 91.3946C50.0567 92.0717 49.8718 92.7488 49.6869 93.4283C47.9469 99.7483 46.3369 106.098 44.7669 112.458C44.5369 113.388 44.3069 114.318 44.0669 115.268C43.9712 115.658 43.8754 116.048 43.7796 116.438C43.6554 116.945 43.5312 117.452 43.4069 117.958L43.4068 117.959C43.1868 118.856 42.9669 119.754 42.7469 120.648C42.1725 122.963 41.5912 125.27 41.0087 127.582L40.6569 128.978C39.6269 133.088 38.6269 137.208 37.6469 141.328C36.9669 144.158 36.2869 146.978 35.5969 149.808C35.2469 151.258 34.8969 152.718 34.5569 154.178C34.0569 156.308 33.5369 158.438 33.0169 160.568C32.7169 161.818 32.4169 163.068 32.1069 164.368C31.6239 165.761 31.3674 166.501 30.9219 167.1C30.4173 167.778 29.6702 168.276 28.0769 169.338C27.1373 169.447 26.6413 169.504 26.1437 169.531C25.5875 169.562 25.0292 169.554 23.8469 169.538L22.6544 169.528L21.4169 169.518C20.221 169.49 20.1693 169.488 19.0461 169.462L18.8869 169.458C18.0663 169.458 17.2362 169.449 16.3872 169.439H16.3862L16.3269 169.438L16.2213 169.437L16.2135 169.437C14.1709 169.407 12.1191 169.378 10.0769 169.338C8.96693 165.258 9.26693 162.518 10.3169 158.448C10.5908 157.371 10.8647 156.302 11.1462 155.203L11.147 155.2L11.2269 154.888C11.3886 154.261 11.5526 153.637 11.7179 153.007L11.7182 153.006C11.8902 152.351 12.0636 151.691 12.2369 151.018C12.5869 149.668 12.9369 148.318 13.2869 146.958C14.0269 144.068 14.7769 141.178 15.5269 138.298C16.5063 134.53 17.4789 130.755 18.4502 126.984L18.4516 126.979L19.0469 124.668C20.2269 120.048 21.4169 115.428 22.6069 110.808C26.2569 96.6883 29.8069 82.5483 33.3269 68.3983C33.6642 67.0406 34.0033 65.6828 34.3428 64.3242L34.3446 64.3166L34.3447 64.3163C34.7696 62.6156 35.1948 60.9135 35.6169 59.2083C36.0969 57.3083 36.5669 55.4083 37.0369 53.4983C38.1769 48.9183 39.3369 44.3483 40.5469 39.7783C40.72 39.1159 40.8074 38.7809 40.8952 38.446C40.9849 38.1035 41.0749 37.761 41.2569 37.0683C41.6869 35.3983 42.1369 33.7283 42.5969 32.0683C43.9469 26.8683 44.7969 21.7083 44.0769 16.3383C42.2869 13.4683 41.0969 11.8483 38.0769 10.3383C33.4369 9.87834 29.7969 10.1983 25.7769 12.7583C18.9569 19.0983 16.6669 28.4883 15.8969 37.4283C15.7669 41.0483 16.2369 44.3383 17.0769 47.8383C18.3869 53.3583 19.2169 58.0583 16.5769 63.3383C13.5469 65.7683 11.7869 66.0783 7.97693 65.8283C6.07693 65.3383 6.07692 65.3383 3.69693 63.1483C0.516925 57.6283 -0.933072 53.4383 0.636928 47.0483C1.43693 44.3683 2.29693 41.7283 3.19693 39.0883C3.52693 38.1483 3.84693 37.2083 4.17693 36.2283C9.02692 22.3983 17.5269 8.94833 31.0069 2.10834C39.5869 -1.08167 48.4669 -0.891663 56.0769 4.33833ZM386.374 97.2525C389.424 99.2025 390.754 100.373 391.924 103.883C392.135 108.582 390.915 112.561 389.559 116.983L389.559 116.983L389.394 117.523C389.311 117.802 389.227 118.081 389.142 118.361L389.068 118.607C388.893 119.188 388.716 119.771 388.544 120.363C387.734 123.033 386.914 125.683 386.074 128.343C385.724 129.493 385.364 130.653 384.994 131.843C381.474 142.393 375.374 151.343 365.454 156.773C360.934 157.843 358.164 157.883 353.954 155.773C349.924 152.363 347.454 149.223 346.764 143.983C346.394 129.133 352.354 113.163 362.574 102.403C369.224 96.2825 377.604 93.7625 386.374 97.2525ZM231.077 104.718C229.857 100.588 228.837 99.3784 225.077 97.3384C216.997 96.3084 211.777 100.028 206.037 105.258C200.077 111.568 197.357 117.708 197.077 126.338C199.197 126.478 201.327 126.568 203.457 126.648C212.497 126.628 218.457 124.048 225.017 117.898C228.797 113.768 231.077 110.478 231.077 104.718Z" fill="#FAFAFA"/>
</svg>
