<svg width="279" height="26" viewBox="0 0 279 26" fill="none" xmlns="http://www.w3.org/2000/svg">
<path d="M6.34456 9.29909H7.33291V14.7031C7.33291 15.2611 7.20139 15.7592 6.93837 16.1976C6.678 16.6333 6.31002 16.9774 5.83444 17.2298C5.35887 17.4795 4.80093 17.6044 4.16063 17.6044C3.52033 17.6044 2.96239 17.4795 2.48681 17.2298C2.01124 16.9774 1.64193 16.6333 1.37891 16.1976C1.11853 15.7592 0.988349 15.2611 0.988349 14.7031V9.29909H1.9767V14.6234C1.9767 15.0219 2.06437 15.3766 2.23973 15.6875C2.41508 15.9957 2.66482 16.2388 2.98896 16.4168C3.31575 16.5921 3.70631 16.6798 4.16063 16.6798C4.61495 16.6798 5.00551 16.5921 5.3323 16.4168C5.65909 16.2388 5.90884 15.9957 6.08153 15.6875C6.25688 15.3766 6.34456 15.0219 6.34456 14.6234V9.29909ZM13.7701 11.3396C13.7223 10.9357 13.5284 10.6222 13.1883 10.399C12.8482 10.1759 12.4311 10.0643 11.9369 10.0643C11.5756 10.0643 11.2594 10.1227 10.9884 10.2396C10.7201 10.3565 10.5102 10.5173 10.3587 10.7218C10.2099 10.9264 10.1356 11.1589 10.1356 11.4193C10.1356 11.6371 10.1874 11.8244 10.291 11.9812C10.3973 12.1353 10.5328 12.2641 10.6975 12.3678C10.8622 12.4687 11.0349 12.5524 11.2156 12.6188C11.3962 12.6826 11.5623 12.7344 11.7137 12.7743L12.5427 12.9974C12.7552 13.0532 12.9917 13.1303 13.252 13.2286C13.5151 13.3269 13.7661 13.461 14.0053 13.6311C14.247 13.7985 14.4463 14.0137 14.603 14.2767C14.7598 14.5397 14.8382 14.8625 14.8382 15.2451C14.8382 15.6862 14.7226 16.0847 14.4915 16.4407C14.263 16.7967 13.9282 17.0797 13.4872 17.2896C13.0488 17.4995 12.5161 17.6044 11.8891 17.6044C11.3046 17.6044 10.7984 17.5101 10.3707 17.3215C9.94559 17.1328 9.61083 16.8698 9.3664 16.5324C9.12462 16.1949 8.98779 15.8031 8.95591 15.3567H9.97614C10.0027 15.6649 10.1063 15.92 10.287 16.1219C10.4703 16.3211 10.7015 16.4699 10.9804 16.5682C11.2621 16.6639 11.5649 16.7117 11.8891 16.7117C12.2663 16.7117 12.6051 16.6506 12.9053 16.5284C13.2055 16.4035 13.4433 16.2308 13.6187 16.0103C13.794 15.7871 13.8817 15.5268 13.8817 15.2292C13.8817 14.9582 13.806 14.7377 13.6546 14.5676C13.5031 14.3976 13.3038 14.2594 13.0568 14.1532C12.8097 14.0469 12.5427 13.9539 12.2557 13.8742L11.2514 13.5872C10.6138 13.4039 10.109 13.1422 9.73703 12.8021C9.36507 12.4621 9.17909 12.017 9.17909 11.4671C9.17909 11.0101 9.30263 10.6116 9.54972 10.2715C9.79946 9.92877 10.1342 9.66308 10.554 9.47444C10.9764 9.28315 11.448 9.1875 11.9688 9.1875C12.4948 9.1875 12.9624 9.28182 13.3716 9.47046C13.7808 9.65644 14.1049 9.9115 14.344 10.2356C14.5858 10.5598 14.7133 10.9277 14.7266 11.3396H13.7701ZM16.4632 17.4609V9.29909H19.3166C19.8852 9.29909 20.3541 9.3974 20.7234 9.594C21.0927 9.78795 21.3677 10.0497 21.5484 10.3791C21.7291 10.7059 21.8194 11.0686 21.8194 11.4671C21.8194 11.8178 21.757 12.1074 21.6321 12.3359C21.5099 12.5644 21.3478 12.745 21.1459 12.8779C20.9466 13.0107 20.7301 13.109 20.4963 13.1728V13.2525C20.746 13.2684 20.9971 13.3561 21.2495 13.5155C21.5019 13.6749 21.7131 13.9034 21.8832 14.201C22.0532 14.4985 22.1382 14.8625 22.1382 15.2929C22.1382 15.7021 22.0452 16.0701 21.8592 16.3969C21.6733 16.7237 21.3797 16.9827 20.9785 17.174C20.5773 17.3653 20.0552 17.4609 19.4123 17.4609H16.4632ZM17.4515 16.5842H19.4123C20.0579 16.5842 20.5162 16.4593 20.7872 16.2096C21.0609 15.9572 21.1977 15.6516 21.1977 15.2929C21.1977 15.0166 21.1273 14.7616 20.9865 14.5278C20.8457 14.2913 20.6451 14.1027 20.3847 13.9619C20.1243 13.8184 19.8161 13.7467 19.4601 13.7467H17.4515V16.5842ZM17.4515 12.8858H19.2848C19.5823 12.8858 19.8507 12.8274 20.0898 12.7105C20.3316 12.5936 20.5228 12.4289 20.6637 12.2163C20.8071 12.0038 20.8789 11.754 20.8789 11.4671C20.8789 11.1084 20.754 10.8042 20.5042 10.5545C20.2545 10.3021 19.8586 10.1759 19.3166 10.1759H17.4515V12.8858ZM27.1417 12.9416V13.8184H23.5709V12.9416H27.1417ZM27.6449 10.1759V9.29909H33.7662V10.1759H31.1997V17.4609H30.2114V10.1759H27.6449ZM35.0684 19.7565C34.909 19.7565 34.7669 19.7432 34.642 19.7166C34.5171 19.6927 34.4308 19.6688 34.383 19.6449L34.6221 18.8159C34.8506 18.8744 35.0525 18.8956 35.2278 18.8797C35.4032 18.8638 35.5586 18.7854 35.6941 18.6446C35.8323 18.5064 35.9585 18.2819 36.0727 17.9711L36.2481 17.4928L33.9844 11.3396H35.0047L36.6944 16.2175H36.7582L38.448 11.3396H39.4682L36.8698 18.3536C36.7529 18.6698 36.6081 18.9315 36.4354 19.1387C36.2627 19.3486 36.0621 19.5041 35.8336 19.605C35.6078 19.706 35.3527 19.7565 35.0684 19.7565ZM40.7096 19.7565V11.3396H41.6182V12.312H41.7298C41.7989 12.2057 41.8946 12.0702 42.0168 11.9055C42.1416 11.7381 42.3196 11.5893 42.5508 11.4591C42.7846 11.3263 43.1008 11.2598 43.4993 11.2598C44.0147 11.2598 44.469 11.3887 44.8623 11.6464C45.2555 11.9041 45.5623 12.2695 45.7829 12.7424C46.0034 13.2153 46.1136 13.7732 46.1136 14.4162C46.1136 15.0645 46.0034 15.6264 45.7829 16.102C45.5623 16.5749 45.2568 16.9415 44.8662 17.2019C44.4757 17.4596 44.0253 17.5885 43.5152 17.5885C43.122 17.5885 42.8072 17.5234 42.5707 17.3932C42.3343 17.2603 42.1523 17.1102 42.0247 16.9429C41.8972 16.7728 41.7989 16.632 41.7298 16.5204H41.6501V19.7565H40.7096ZM41.6342 14.4002C41.6342 14.8625 41.7019 15.2704 41.8374 15.6237C41.9729 15.9744 42.1709 16.2494 42.4312 16.4487C42.6916 16.6453 43.0104 16.7436 43.3877 16.7436C43.7809 16.7436 44.109 16.64 44.3721 16.4327C44.6378 16.2228 44.837 15.9412 44.9699 15.5879C45.1054 15.2318 45.1731 14.836 45.1731 14.4002C45.1731 13.9698 45.1067 13.5819 44.9738 13.2365C44.8437 12.8885 44.6457 12.6135 44.38 12.4116C44.117 12.207 43.7862 12.1047 43.3877 12.1047C43.0051 12.1047 42.6836 12.2017 42.4233 12.3957C42.1629 12.5869 41.9663 12.8553 41.8334 13.2007C41.7006 13.5434 41.6342 13.9433 41.6342 14.4002ZM50.1148 17.5885C49.525 17.5885 49.0162 17.4583 48.5885 17.1979C48.1634 16.9349 47.8353 16.5682 47.6041 16.098C47.3756 15.6251 47.2614 15.0751 47.2614 14.4481C47.2614 13.8211 47.3756 13.2684 47.6041 12.7902C47.8353 12.3093 48.1567 11.9347 48.5686 11.6663C48.983 11.3953 49.4666 11.2598 50.0192 11.2598C50.338 11.2598 50.6529 11.313 50.9637 11.4193C51.2746 11.5255 51.5575 11.6982 51.8126 11.9373C52.0676 12.1738 52.2709 12.4873 52.4223 12.8779C52.5738 13.2684 52.6495 13.7493 52.6495 14.3205V14.7191H47.9309V13.9061H51.693C51.693 13.5607 51.6239 13.2525 51.4858 12.9815C51.3503 12.7105 51.1563 12.4966 50.9039 12.3399C50.6542 12.1831 50.3593 12.1047 50.0192 12.1047C49.6446 12.1047 49.3205 12.1977 49.0468 12.3837C48.7758 12.567 48.5672 12.8061 48.4211 13.101C48.275 13.396 48.2019 13.7121 48.2019 14.0495V14.5915C48.2019 15.0538 48.2816 15.4457 48.441 15.7672C48.6031 16.086 48.8276 16.3291 49.1145 16.4965C49.4015 16.6612 49.7349 16.7436 50.1148 16.7436C50.3619 16.7436 50.5851 16.709 50.7844 16.64C50.9863 16.5682 51.1603 16.462 51.3064 16.3211C51.4526 16.1777 51.5655 15.9997 51.6452 15.7871L52.5538 16.0422C52.4582 16.3504 52.2975 16.6214 52.0716 16.8552C51.8458 17.0863 51.5668 17.267 51.2347 17.3972C50.9026 17.5247 50.5293 17.5885 50.1148 17.5885ZM57.5872 13.5235V14.4002H54.0164V13.5235H57.5872ZM65.9374 11.8497H64.949C64.8906 11.5654 64.7883 11.3156 64.6422 11.1004C64.4987 10.8852 64.3234 10.7046 64.1161 10.5584C63.9115 10.4097 63.6844 10.2981 63.4346 10.2237C63.1849 10.1493 62.9245 10.1121 62.6535 10.1121C62.1594 10.1121 61.7117 10.237 61.3105 10.4867C60.912 10.7364 60.5945 11.1044 60.358 11.5906C60.1242 12.0768 60.0073 12.6733 60.0073 13.38C60.0073 14.0867 60.1242 14.6832 60.358 15.1694C60.5945 15.6556 60.912 16.0236 61.3105 16.2733C61.7117 16.5231 62.1594 16.6479 62.6535 16.6479C62.9245 16.6479 63.1849 16.6107 63.4346 16.5364C63.6844 16.462 63.9115 16.3517 64.1161 16.2056C64.3234 16.0568 64.4987 15.8748 64.6422 15.6596C64.7883 15.4417 64.8906 15.192 64.949 14.9104H65.9374C65.863 15.3275 65.7275 15.7008 65.5309 16.0302C65.3343 16.3597 65.0899 16.64 64.7976 16.8711C64.5054 17.0996 64.1772 17.2736 63.8132 17.3932C63.4519 17.5127 63.0653 17.5725 62.6535 17.5725C61.9574 17.5725 61.3384 17.4025 60.7964 17.0624C60.2544 16.7223 59.828 16.2388 59.5171 15.6118C59.2063 14.9848 59.0508 14.2408 59.0508 13.38C59.0508 12.5192 59.2063 11.7753 59.5171 11.1483C59.828 10.5212 60.2544 10.0377 60.7964 9.69762C61.3384 9.35754 61.9574 9.1875 62.6535 9.1875C63.0653 9.1875 63.4519 9.24728 63.8132 9.36684C64.1772 9.4864 64.5054 9.66175 64.7976 9.8929C65.0899 10.1214 65.3343 10.4004 65.5309 10.7298C65.7275 11.0566 65.863 11.4299 65.9374 11.8497Z" fill="black"/>
<path fill-rule="evenodd" clip-rule="evenodd" d="M154.231 22.8364L168.716 22.8364L168.716 3.08496L154.231 3.08496L154.231 22.8364ZM154.89 14.3074L157.32 14.3074L157.32 12.3921L161.144 12.3921L161.144 14.3074L165.095 14.3074L165.095 12.3921L168.057 12.3921L168.057 22.178L154.89 22.178L154.89 14.3074ZM168.057 11.7337L168.057 3.74334L154.89 3.74334L154.89 13.649L156.661 13.649L156.661 11.7337L161.803 11.7337L161.803 13.649L164.436 13.649L164.436 11.7337L168.057 11.7337Z" fill="black"/>
<rect x="154.231" y="0.45166" width="25.0185" height="23.7017" transform="rotate(90 154.231 0.45166)" fill="black"/>
<path fill-rule="evenodd" clip-rule="evenodd" d="M130.529 18.8865L130.529 7.03564L127.896 7.03564L127.896 8.35241L126.579 8.35241L126.579 7.03564L125.262 7.03564L125.262 8.35241L123.945 8.35241L123.945 7.03564L122.629 7.03564L122.629 8.35241L121.312 8.35241L121.312 7.03564L119.995 7.03564L119.995 8.35241L118.678 8.35241L118.678 7.03564L117.362 7.03564L117.362 8.35241L116.045 8.35241L116.045 7.03564L112.095 7.03564L112.095 18.8865L116.045 18.8865L116.045 17.5698L117.362 17.5698L117.362 18.8865L118.678 18.8865L118.678 17.5698L119.995 17.5698L119.995 18.8865L121.312 18.8865L121.312 17.5698L122.629 17.5698L122.629 18.8865L123.945 18.8865L123.945 17.5698L125.262 17.5698L125.262 18.8865L126.579 18.8865L126.579 17.5698L127.896 17.5698L127.896 18.8865L130.529 18.8865Z" fill="black"/>
<rect x="110.778" y="9.66895" width="6.58382" height="36.8694" transform="rotate(90 110.778 9.66895)" fill="black"/>
<path d="M175.625 12.5293C175.387 12.5293 175.193 12.7226 175.193 12.9609C175.193 13.1993 175.387 13.3926 175.625 13.3926V12.5293ZM261.952 12.9609L257.636 10.4689V15.453L261.952 12.9609ZM175.625 13.3926H258.067V12.5293H175.625V13.3926Z" fill="black"/>
<rect x="278.525" y="1.42648" width="23.0686" height="9.35212" transform="rotate(90 278.525 1.42648)" stroke="black" stroke-width="0.623474"/>
<rect x="277.434" y="2.51768" width="20.8864" height="7.16996" rx="3.58498" transform="rotate(90 277.434 2.51768)" stroke="black" stroke-width="0.311737"/>
<rect x="274.94" y="5.01134" width="15.8986" height="2.18216" rx="1.09108" transform="rotate(90 274.94 5.01134)" fill="black" stroke="black" stroke-width="0.311737"/>
</svg>
