<svg width="262" height="21" viewBox="0 0 262 21" fill="none" xmlns="http://www.w3.org/2000/svg">
<path d="M6.47347 6.49831H7.46181V11.9023C7.46181 12.4603 7.3303 12.9584 7.06727 13.3968C6.8069 13.8325 6.43893 14.1766 5.96335 14.429C5.48777 14.6788 4.92984 14.8036 4.28953 14.8036C3.64923 14.8036 3.09129 14.6788 2.61572 14.429C2.14014 14.1766 1.77084 13.8325 1.50781 13.3968C1.24744 12.9584 1.11725 12.4603 1.11725 11.9023V6.49831H2.1056V11.8226C2.1056 12.2212 2.19328 12.5759 2.36863 12.8867C2.54398 13.1949 2.79373 13.438 3.11786 13.616C3.44466 13.7914 3.83521 13.879 4.28953 13.879C4.74386 13.879 5.13441 13.7914 5.46121 13.616C5.788 13.438 6.03774 13.1949 6.21044 12.8867C6.38579 12.5759 6.47347 12.2212 6.47347 11.8226V6.49831ZM13.899 8.53877C13.8512 8.13493 13.6573 7.82142 13.3172 7.59825C12.9771 7.37507 12.56 7.26348 12.0658 7.26348C11.7045 7.26348 11.3883 7.32193 11.1173 7.43884C10.849 7.55574 10.6391 7.71648 10.4876 7.92105C10.3389 8.12563 10.2645 8.35811 10.2645 8.61848C10.2645 8.83634 10.3163 9.02365 10.4199 9.1804C10.5262 9.3345 10.6617 9.46336 10.8264 9.56697C10.9911 9.66793 11.1638 9.75162 11.3445 9.81805C11.5251 9.88181 11.6912 9.93362 11.8426 9.97347L12.6716 10.1966C12.8841 10.2524 13.1206 10.3295 13.3809 10.4278C13.644 10.5261 13.895 10.6603 14.1342 10.8303C14.3759 10.9977 14.5752 11.2129 14.732 11.4759C14.8887 11.7389 14.9671 12.0618 14.9671 12.4443C14.9671 12.8854 14.8515 13.2839 14.6204 13.6399C14.3919 13.9959 14.0571 14.2789 13.6161 14.4888C13.1777 14.6987 12.645 14.8036 12.018 14.8036C11.4335 14.8036 10.9273 14.7093 10.4996 14.5207C10.0745 14.332 9.73973 14.069 9.4953 13.7316C9.25353 13.3942 9.1167 13.0023 9.08482 12.5559H10.105C10.1316 12.8641 10.2352 13.1192 10.4159 13.3211C10.5992 13.5204 10.8304 13.6692 11.1093 13.7675C11.391 13.8631 11.6938 13.9109 12.018 13.9109C12.3953 13.9109 12.734 13.8498 13.0342 13.7276C13.3345 13.6027 13.5722 13.43 13.7476 13.2095C13.9229 12.9863 14.0106 12.726 14.0106 12.4284C14.0106 12.1574 13.9349 11.9369 13.7835 11.7668C13.632 11.5968 13.4328 11.4587 13.1857 11.3524C12.9386 11.2461 12.6716 11.1531 12.3846 11.0734L11.3803 10.7865C10.7427 10.6031 10.2379 10.3414 9.86593 10.0014C9.49397 9.66129 9.30799 9.21627 9.30799 8.6663C9.30799 8.20932 9.43154 7.81079 9.67862 7.47072C9.92837 7.12798 10.2631 6.8623 10.6829 6.67366C11.1054 6.48237 11.5769 6.38672 12.0977 6.38672C12.6237 6.38672 13.0913 6.48104 13.5005 6.66968C13.9097 6.85566 14.2338 7.11071 14.4729 7.43485C14.7147 7.75899 14.8422 8.12696 14.8555 8.53877H13.899ZM16.5921 14.6602V6.49831H19.4455C20.0141 6.49831 20.483 6.59661 20.8523 6.79322C21.2216 6.98717 21.4966 7.24887 21.6773 7.57832C21.858 7.90511 21.9483 8.26777 21.9483 8.6663C21.9483 9.017 21.8859 9.3066 21.761 9.53509C21.6388 9.76358 21.4767 9.94425 21.2748 10.0771C21.0755 10.2099 20.859 10.3082 20.6252 10.372V10.4517C20.8749 10.4676 21.126 10.5553 21.3784 10.7147C21.6308 10.8741 21.842 11.1026 22.0121 11.4002C22.1821 11.6978 22.2671 12.0618 22.2671 12.4922C22.2671 12.9013 22.1741 13.2693 21.9881 13.5961C21.8022 13.9229 21.5086 14.1819 21.1074 14.3732C20.7062 14.5645 20.1841 14.6602 19.5412 14.6602H16.5921ZM17.5804 13.7834H19.5412C20.1868 13.7834 20.6451 13.6585 20.9161 13.4088C21.1898 13.1564 21.3266 12.8508 21.3266 12.4922C21.3266 12.2159 21.2562 11.9608 21.1154 11.727C20.9746 11.4905 20.774 11.3019 20.5136 11.1611C20.2532 11.0176 19.945 10.9459 19.589 10.9459H17.5804V13.7834ZM17.5804 10.0851H19.4137C19.7112 10.0851 19.9796 10.0266 20.2187 9.90971C20.4605 9.79281 20.6518 9.62808 20.7926 9.41553C20.936 9.20298 21.0078 8.95324 21.0078 8.6663C21.0078 8.30763 20.8829 8.00342 20.6332 7.75367C20.3834 7.50127 19.9875 7.37507 19.4455 7.37507H17.5804V10.0851ZM27.2706 10.1409V11.0176H23.6998V10.1409H27.2706ZM29.053 6.49831H30.2327L33.0064 13.2733H33.1021L35.8758 6.49831H37.0555V14.6602H36.1309V8.45907H36.0512L33.5006 14.6602H32.6079L30.0573 8.45907H29.9776V14.6602H29.053V6.49831ZM38.9096 14.6602V8.53877H39.8502V14.6602H38.9096ZM39.3879 7.51854C39.2045 7.51854 39.0465 7.45611 38.9136 7.33123C38.7834 7.20636 38.7183 7.05625 38.7183 6.8809C38.7183 6.70554 38.7834 6.55543 38.9136 6.43056C39.0465 6.30569 39.2045 6.24325 39.3879 6.24325C39.5712 6.24325 39.7279 6.30569 39.8581 6.43056C39.991 6.55543 40.0574 6.70554 40.0574 6.8809C40.0574 7.05625 39.991 7.20636 39.8581 7.33123C39.7279 7.45611 39.5712 7.51854 39.3879 7.51854ZM42.5133 10.9778V14.6602H41.5728V8.53877H42.4814V9.49524H42.5611C42.7046 9.18439 42.9225 8.93464 43.2147 8.74601C43.507 8.55471 43.8843 8.45907 44.3465 8.45907C44.761 8.45907 45.1237 8.54409 45.4345 8.71412C45.7454 8.88151 45.9871 9.13656 46.1598 9.4793C46.3325 9.81937 46.4189 10.2498 46.4189 10.7705V14.6602H45.4784V10.8343C45.4784 10.3534 45.3535 9.97878 45.1037 9.71044C44.854 9.43944 44.5113 9.30394 44.0755 9.30394C43.7753 9.30394 43.507 9.36904 43.2705 9.49922C43.0367 9.62941 42.8521 9.81937 42.7166 10.0691C42.5811 10.3189 42.5133 10.6217 42.5133 10.9778ZM48.1375 14.6602V8.53877H49.0781V14.6602H48.1375ZM48.6158 7.51854C48.4324 7.51854 48.2744 7.45611 48.1415 7.33123C48.0113 7.20636 47.9462 7.05625 47.9462 6.8809C47.9462 6.70554 48.0113 6.55543 48.1415 6.43056C48.2744 6.30569 48.4324 6.24325 48.6158 6.24325C48.7991 6.24325 48.9558 6.30569 49.086 6.43056C49.2189 6.55543 49.2853 6.70554 49.2853 6.8809C49.2853 7.05625 49.2189 7.20636 49.086 7.33123C48.9558 7.45611 48.7991 7.51854 48.6158 7.51854Z" fill="black"/>
<path fill-rule="evenodd" clip-rule="evenodd" d="M109.333 16.0857L109.333 4.23486L106.699 4.23486L106.699 5.55163L105.383 5.55163L105.383 4.23486L104.066 4.23486L104.066 5.55163L102.749 5.55163L102.749 4.23486L101.432 4.23486L101.432 5.55163L100.116 5.55163L100.116 4.23486L98.7989 4.23486L98.7989 5.55163L97.4821 5.55163L97.4821 4.23486L96.1654 4.23486L96.1654 5.55163L94.8486 5.55163L94.8486 4.23486L90.8983 4.23486L90.8983 16.0857L94.8486 16.0857L94.8486 14.769L96.1654 14.769L96.1654 16.0857L97.4821 16.0857L97.4821 14.769L98.7989 14.769L98.7989 16.0857L100.116 16.0857L100.116 14.769L101.432 14.769L101.432 16.0857L102.749 16.0857L102.749 14.769L104.066 14.769L104.066 16.0857L105.383 16.0857L105.383 14.769L106.699 14.769L106.699 16.0857L109.333 16.0857Z" fill="black"/>
<path fill-rule="evenodd" clip-rule="evenodd" d="M149.164 15.098L149.164 5.2223L144.556 5.2223L144.556 15.098L149.164 15.098ZM145.214 5.88069L148.506 5.88069L148.506 14.4396L145.214 14.4396L145.214 5.88069Z" fill="black"/>
<path fill-rule="evenodd" clip-rule="evenodd" d="M133.034 17.4024L151.469 17.4024L151.469 2.91797L133.034 2.91797L133.034 17.4024ZM150.81 3.57635L150.81 16.744L133.692 16.744L133.692 3.57635L150.81 3.57635Z" fill="black"/>
<rect x="133.034" y="0.284668" width="19.7514" height="23.7017" transform="rotate(90 133.034 0.284668)" fill="black"/>
<rect x="89.5811" y="6.86865" width="6.58382" height="32.9191" transform="rotate(90 89.5811 6.86865)" fill="black"/>
<path d="M158.002 9.72852C157.764 9.72852 157.57 9.92177 157.57 10.1602C157.57 10.3985 157.764 10.5918 158.002 10.5918V9.72852ZM244.329 10.1602L240.013 7.6681V12.6522L244.329 10.1602ZM158.002 10.5918H240.444V9.72852H158.002V10.5918Z" fill="black"/>
<path d="M250.861 19.5127L250.861 0.808465L260.837 0.808465L260.837 19.5127L250.861 19.5127Z" stroke="black" stroke-width="0.623474"/>
<path d="M253.193 17.0186L253.193 17.1807L253.355 17.1807L255.849 17.1807L255.917 17.1807L255.964 17.1332L257.163 15.9337L258.967 15.9337L259.129 15.9337L259.129 15.7716L259.129 4.54907L259.129 4.38696L258.967 4.38696L257.163 4.38696L255.964 3.18749L255.917 3.14001L255.849 3.14001L253.355 3.14001L253.193 3.14001L253.193 3.30212L253.193 17.0186Z" stroke="black" stroke-width="0.324207"/>
<path d="M255.85 17.0186L255.85 3.30212" stroke="black" stroke-width="0.324207"/>
<path d="M255.85 15.6719L255.85 13.7266L256.498 13.7266L256.498 15.6719L255.85 15.6719Z" fill="black"/>
<path d="M255.85 12.646L255.85 10.7008L256.498 10.7008L256.498 12.646L255.85 12.646Z" fill="black"/>
<path d="M255.85 9.62012L255.85 7.67488L256.498 7.67488L256.498 9.62012L255.85 9.62012Z" fill="black"/>
<path d="M255.85 6.59424L255.85 4.649L256.498 4.649L256.498 6.59424L255.85 6.59424Z" fill="black"/>
</svg>
