<svg width="269" height="22" viewBox="0 0 269 22" fill="none" xmlns="http://www.w3.org/2000/svg">
<path d="M6.70394 7.58229H7.69228V12.9863C7.69228 13.5443 7.56077 14.0424 7.29774 14.4808C7.03737 14.9165 6.6694 15.2606 6.19382 15.513C5.71824 15.7627 5.1603 15.8876 4.52 15.8876C3.8797 15.8876 3.32176 15.7627 2.84619 15.513C2.37061 15.2606 2.00131 14.9165 1.73828 14.4808C1.47791 14.0424 1.34772 13.5443 1.34772 12.9863V7.58229H2.33607V12.9066C2.33607 13.3052 2.42375 13.6598 2.5991 13.9707C2.77445 14.2789 3.0242 14.522 3.34833 14.7C3.67513 14.8754 4.06568 14.963 4.52 14.963C4.97433 14.963 5.36488 14.8754 5.69167 14.7C6.01847 14.522 6.26821 14.2789 6.44091 13.9707C6.61626 13.6598 6.70394 13.3052 6.70394 12.9066V7.58229ZM14.1295 9.62276C14.0817 9.21891 13.8877 8.90541 13.5477 8.68223C13.2076 8.45906 12.7904 8.34747 12.2963 8.34747C11.9349 8.34747 11.6188 8.40592 11.3478 8.52282C11.0794 8.63972 10.8695 8.80046 10.7181 9.00504C10.5693 9.20962 10.4949 9.44209 10.4949 9.70246C10.4949 9.92032 10.5467 10.1076 10.6504 10.2644C10.7566 10.4185 10.8921 10.5473 11.0569 10.651C11.2216 10.7519 11.3943 10.8356 11.5749 10.902C11.7556 10.9658 11.9217 11.0176 12.0731 11.0575L12.902 11.2806C13.1146 11.3364 13.351 11.4135 13.6114 11.5118C13.8744 11.6101 14.1255 11.7443 14.3646 11.9143C14.6064 12.0817 14.8057 12.2969 14.9624 12.5599C15.1192 12.8229 15.1976 13.1457 15.1976 13.5283C15.1976 13.9694 15.082 14.3679 14.8508 14.7239C14.6223 15.0799 14.2876 15.3629 13.8465 15.5728C13.4082 15.7827 12.8755 15.8876 12.2485 15.8876C11.6639 15.8876 11.1578 15.7933 10.7301 15.6047C10.305 15.416 9.9702 15.153 9.72577 14.8156C9.484 14.4782 9.34717 14.0863 9.31529 13.6399H10.3355C10.3621 13.9481 10.4657 14.2032 10.6464 14.4051C10.8297 14.6044 11.0608 14.7531 11.3398 14.8514C11.6214 14.9471 11.9243 14.9949 12.2485 14.9949C12.6257 14.9949 12.9645 14.9338 13.2647 14.8116C13.5649 14.6867 13.8027 14.514 13.9781 14.2935C14.1534 14.0703 14.2411 13.81 14.2411 13.5124C14.2411 13.2414 14.1654 13.0209 14.0139 12.8508C13.8625 12.6808 13.6632 12.5426 13.4161 12.4364C13.169 12.3301 12.902 12.2371 12.6151 12.1574L11.6108 11.8705C10.9732 11.6871 10.4684 11.4254 10.0964 11.0854C9.72444 10.7453 9.53846 10.3003 9.53846 9.75028C9.53846 9.29331 9.66201 8.89478 9.90909 8.5547C10.1588 8.21197 10.4936 7.94628 10.9134 7.75765C11.3358 7.56635 11.8074 7.47071 12.3282 7.47071C12.8542 7.47071 13.3218 7.56502 13.731 7.75366C14.1401 7.93964 14.4643 8.1947 14.7034 8.51883C14.9452 8.84297 15.0727 9.21094 15.086 9.62276H14.1295ZM16.8226 15.7441V7.58229H19.676C20.2446 7.58229 20.7135 7.6806 21.0828 7.87721C21.4521 8.07116 21.7271 8.33285 21.9078 8.6623C22.0884 8.9891 22.1788 9.35176 22.1788 9.75028C22.1788 10.101 22.1163 10.3906 21.9915 10.6191C21.8692 10.8476 21.7072 11.0282 21.5053 11.1611C21.306 11.2939 21.0895 11.3922 20.8557 11.456V11.5357C21.1054 11.5516 21.3565 11.6393 21.6089 11.7987C21.8613 11.9581 22.0725 12.1866 22.2425 12.4842C22.4126 12.7818 22.4976 13.1457 22.4976 13.5762C22.4976 13.9853 22.4046 14.3533 22.2186 14.6801C22.0326 15.0069 21.7391 15.2659 21.3379 15.4572C20.9367 15.6485 20.4146 15.7441 19.7717 15.7441H16.8226ZM17.8109 14.8674H19.7717C20.4173 14.8674 20.8756 14.7425 21.1466 14.4928C21.4202 14.2404 21.5571 13.9348 21.5571 13.5762C21.5571 13.2998 21.4867 13.0448 21.3458 12.811C21.205 12.5745 21.0044 12.3859 20.7441 12.2451C20.4837 12.1016 20.1755 12.0299 19.8195 12.0299H17.8109V14.8674ZM17.8109 11.169H19.6441C19.9417 11.169 20.21 11.1106 20.4492 10.9937C20.6909 10.8768 20.8822 10.7121 21.023 10.4995C21.1665 10.287 21.2382 10.0372 21.2382 9.75028C21.2382 9.39161 21.1134 9.0874 20.8636 8.83766C20.6139 8.58526 20.218 8.45906 19.676 8.45906H17.8109V11.169ZM27.5011 11.2248V12.1016H23.9303V11.2248H27.5011ZM29.2835 7.58229H30.4632L33.2369 14.3573H33.3326L36.1063 7.58229H37.2859V15.7441H36.3614V9.54305H36.2817L33.7311 15.7441H32.8384L30.2878 9.54305H30.2081V15.7441H29.2835V7.58229ZM39.1401 15.7441V9.62276H40.0806V15.7441H39.1401ZM39.6183 8.60253C39.435 8.60253 39.2769 8.54009 39.1441 8.41522C39.0139 8.29035 38.9488 8.14023 38.9488 7.96488C38.9488 7.78953 39.0139 7.63942 39.1441 7.51454C39.2769 7.38967 39.435 7.32724 39.6183 7.32724C39.8017 7.32724 39.9584 7.38967 40.0886 7.51454C40.2214 7.63942 40.2879 7.78953 40.2879 7.96488C40.2879 8.14023 40.2214 8.29035 40.0886 8.41522C39.9584 8.54009 39.8017 8.60253 39.6183 8.60253ZM44.2901 15.8717C43.7162 15.8717 43.222 15.7362 42.8075 15.4652C42.3931 15.1942 42.0743 14.8209 41.8511 14.3453C41.6279 13.8697 41.5163 13.3264 41.5163 12.7153C41.5163 12.0936 41.6306 11.545 41.8591 11.0694C42.0902 10.5912 42.4117 10.2179 42.8235 9.94955C43.238 9.67855 43.7215 9.54305 44.2741 9.54305C44.7045 9.54305 45.0924 9.62276 45.4378 9.78217C45.7832 9.94158 46.0662 10.1648 46.2867 10.4517C46.5072 10.7386 46.644 11.0734 46.6972 11.456H45.7567C45.6849 11.177 45.5255 10.9299 45.2784 10.7147C45.034 10.4969 44.7045 10.3879 44.2901 10.3879C43.9234 10.3879 43.6019 10.4836 43.3256 10.6749C43.052 10.8635 42.8381 11.1305 42.684 11.4759C42.5326 11.8186 42.4568 12.2212 42.4568 12.6834C42.4568 13.1564 42.5312 13.5682 42.68 13.9189C42.8315 14.2696 43.044 14.5419 43.3177 14.7359C43.594 14.9298 43.9181 15.0268 44.2901 15.0268C44.5345 15.0268 44.7563 14.9843 44.9556 14.8993C45.1549 14.8142 45.3236 14.692 45.4617 14.5326C45.5999 14.3732 45.6982 14.1819 45.7567 13.9587H46.6972C46.644 14.3201 46.5125 14.6455 46.3026 14.9351C46.0954 15.2221 45.8204 15.4506 45.4777 15.6206C45.1376 15.788 44.7417 15.8717 44.2901 15.8717ZM48.0721 15.7441V9.62276H48.9807V10.5473H49.0445C49.1561 10.2445 49.358 9.9987 49.6503 9.81006C49.9425 9.62143 50.272 9.52711 50.6386 9.52711C50.7077 9.52711 50.794 9.52844 50.8977 9.53109C51.0013 9.53375 51.0797 9.53774 51.1328 9.54305V10.4995C51.1009 10.4915 51.0278 10.4796 50.9136 10.4636C50.802 10.4451 50.6838 10.4358 50.5589 10.4358C50.2613 10.4358 49.9957 10.4982 49.7619 10.6231C49.5307 10.7453 49.3474 10.9153 49.2119 11.1332C49.079 11.3484 49.0126 11.5941 49.0126 11.8705V15.7441H48.0721ZM54.5482 15.8717C53.9955 15.8717 53.5107 15.7402 53.0935 15.4771C52.6791 15.2141 52.3549 14.8461 52.1211 14.3732C51.89 13.9003 51.7744 13.3477 51.7744 12.7153C51.7744 12.0777 51.89 11.5211 52.1211 11.0455C52.3549 10.5699 52.6791 10.2006 53.0935 9.93759C53.5107 9.67456 53.9955 9.54305 54.5482 9.54305C55.1008 9.54305 55.5843 9.67456 55.9988 9.93759C56.4159 10.2006 56.7401 10.5699 56.9712 11.0455C57.205 11.5211 57.3219 12.0777 57.3219 12.7153C57.3219 13.3477 57.205 13.9003 56.9712 14.3732C56.7401 14.8461 56.4159 15.2141 55.9988 15.4771C55.5843 15.7402 55.1008 15.8717 54.5482 15.8717ZM54.5482 15.0268C54.968 15.0268 55.3133 14.9192 55.5843 14.704C55.8553 14.4888 56.0559 14.2058 56.1861 13.8551C56.3163 13.5044 56.3814 13.1245 56.3814 12.7153C56.3814 12.3062 56.3163 11.9249 56.1861 11.5716C56.0559 11.2182 55.8553 10.9326 55.5843 10.7147C55.3133 10.4969 54.968 10.3879 54.5482 10.3879C54.1284 10.3879 53.783 10.4969 53.512 10.7147C53.241 10.9326 53.0404 11.2182 52.9102 11.5716C52.78 11.9249 52.7149 12.3062 52.7149 12.7153C52.7149 13.1245 52.78 13.5044 52.9102 13.8551C53.0404 14.2058 53.241 14.4888 53.512 14.704C53.783 14.9192 54.1284 15.0268 54.5482 15.0268Z" fill="black"/>
<path fill-rule="evenodd" clip-rule="evenodd" d="M145.138 19.1444L159.622 19.1444L159.622 3.34326L145.138 3.34326L145.138 19.1444ZM145.796 13.1531L148.226 13.1531L148.226 11.573L152.051 11.573L152.051 13.1531L156.001 13.1531L156.001 11.573L158.964 11.573L158.964 18.486L145.796 18.486L145.796 13.1531ZM158.964 10.9147L158.964 4.00164L145.796 4.00164L145.796 12.4948L147.567 12.4948L147.567 10.9147L152.709 10.9147L152.709 12.4948L155.343 12.4948L155.343 10.9147L158.964 10.9147Z" fill="black"/>
<path d="M145.138 0.709961L145.138 21.7782L121.436 21.7782L121.436 0.70996L145.138 0.709961Z" fill="black"/>
<path d="M121.436 4.66025L121.436 17.8279L112.219 17.8279L112.219 4.66025L121.436 4.66025Z" fill="black"/>
<rect x="110.901" y="7.29395" width="6.58382" height="46.0867" transform="rotate(90 110.901 7.29395)" fill="black"/>
<path d="M166.078 10.8125C165.84 10.8125 165.646 11.0058 165.646 11.2441C165.646 11.4825 165.84 11.6758 166.078 11.6758V10.8125ZM252.405 11.2441L248.089 8.75209V13.7362L252.405 11.2441ZM166.078 11.6758H248.521V10.8125H166.078V11.6758Z" fill="black"/>
<rect x="268.525" y="1.58029" width="19.3277" height="9.35212" transform="rotate(90 268.525 1.58029)" stroke="black" stroke-width="0.623474"/>
<path d="M263.72 4.07443L266.031 6.38572L266.031 16.1031L263.72 18.4143L261.043 18.4143L261.043 4.07443L263.72 4.07443Z" stroke="black" stroke-width="0.623474"/>
<line x1="263.537" y1="15.9202" x2="263.537" y2="6.56808" stroke="black" stroke-width="0.623474" stroke-linecap="square" stroke-dasharray="1.25 2.49"/>
</svg>
