<svg width="240" height="240" viewBox="0 0 240 240" fill="none" xmlns="http://www.w3.org/2000/svg">
<mask id="mask0_337_1392" style="mask-type:alpha" maskUnits="userSpaceOnUse" x="0" y="0" width="240" height="240">
<rect width="240" height="240" fill="#D9D9D9"/>
</mask>
<g mask="url(#mask0_337_1392)">
<path d="M126 120.001L93.5 152.501L109 168.501L157.25 120.001L109 71.501L93.5 87.501L126 120.001ZM120 226.251C105.333 226.251 91.5008 223.494 78.5025 217.981C65.5058 212.466 54.2217 204.881 44.65 195.226C35.0783 185.571 27.535 174.298 22.02 161.408C16.5067 148.517 13.75 134.726 13.75 120.036C13.75 105.179 16.5067 91.2935 22.02 78.3785C27.535 65.4651 35.0908 54.2176 44.6875 44.636C54.2825 35.056 65.5667 27.4718 78.54 21.8835C91.5133 16.2952 105.333 13.501 120 13.501C134.667 13.501 148.445 16.2885 161.335 21.8635C174.223 27.4401 185.508 35.0076 195.188 44.566C204.868 54.1243 212.506 65.3635 218.102 78.2835C223.701 91.2051 226.5 105.111 226.5 120.001C226.5 134.714 223.706 148.527 218.118 161.438C212.529 174.35 204.903 185.623 195.24 195.258C185.575 204.892 174.286 212.466 161.372 217.981C148.458 223.494 134.667 226.251 120 226.251Z" fill="#1C1B1F" fill-opacity="0.15"/>
</g>
</svg>
