<svg width="240" height="240" viewBox="0 0 240 240" fill="none" xmlns="http://www.w3.org/2000/svg">
<mask id="mask0_337_1396" style="mask-type:alpha" maskUnits="userSpaceOnUse" x="0" y="0" width="240" height="240">
<rect width="240" height="240" fill="#D9D9D9"/>
</mask>
<g mask="url(#mask0_337_1396)">
<path d="M4.50195 213.251L120.002 13.501L235.502 213.251H4.50195ZM121.047 180.251C123.28 180.251 125.248 179.385 126.949 177.653C128.651 175.922 129.502 173.939 129.502 171.706C129.502 169.473 128.636 167.547 126.904 165.928C125.173 164.31 123.19 163.501 120.957 163.501C118.724 163.501 116.756 164.325 115.054 165.973C113.353 167.622 112.502 169.563 112.502 171.796C112.502 174.029 113.368 175.997 115.099 177.698C116.831 179.4 118.814 180.251 121.047 180.251ZM113.502 153.001H128.502V99.001H113.502V153.001Z" fill="#1C1B1F" fill-opacity="0.15"/>
</g>
</svg>
