<svg width="40" height="34" viewBox="0 0 40 34" fill="none" xmlns="http://www.w3.org/2000/svg">
<g clip-path="url(#clip0_126_178)">
<path d="M0.650391 33.0499H39.2004L19.9204 0.649902L0.650391 33.0499Z" fill="#1D1D1B"/>
<mask id="mask0_126_178" style="mask-type:luminance" maskUnits="userSpaceOnUse" x="0" y="0" width="40" height="34">
<path d="M39.85 0H0V33.7H39.85V0Z" fill="white"/>
</mask>
<g mask="url(#mask0_126_178)">
<path d="M0.650391 33.0499L19.9204 0.649902L39.2004 33.0499H0.650391Z" stroke="#FBEA23" stroke-width="1.29" stroke-linejoin="round"/>
</g>
<path fill-rule="evenodd" clip-rule="evenodd" d="M1.5498 32.5499L19.9098 1.3999L38.2598 32.5499H1.5498Z" fill="#FBEA23"/>
<path d="M1.5498 32.5499L19.9098 1.3999L38.2598 32.5499H1.5498Z" stroke="#1D1D1B" stroke-width="0.12" stroke-linejoin="round"/>
<mask id="mask1_126_178" style="mask-type:luminance" maskUnits="userSpaceOnUse" x="0" y="0" width="40" height="34">
<path d="M39.85 0H0V33.7H39.85V0Z" fill="white"/>
</mask>
<g mask="url(#mask1_126_178)">
<path fill-rule="evenodd" clip-rule="evenodd" d="M1.66992 32.5499L20.0099 1.35986L38.3399 32.5499H1.66992ZM25.4199 10.5699C23.8199 11.3999 23.6699 12.3699 21.8199 12.3699C19.9699 12.3699 18.7299 12.8999 16.8999 13.1399C15.5299 13.1799 14.5399 14.0999 13.4199 14.7099L12.4999 14.1599L10.4499 17.6399L11.3699 18.2599C10.7699 19.4799 9.83992 20.6199 9.55992 21.9199C10.0299 25.7499 10.7099 30.7899 11.7399 30.6799C12.7699 30.5699 13.3199 30.3099 13.4999 29.7699C13.6799 29.2299 12.1299 22.9199 13.3999 22.2499C14.4999 21.3299 15.3599 21.5199 16.3399 21.5199C16.6499 21.5199 16.9499 22.2499 17.2599 22.2499C16.5599 23.4699 15.8499 23.9599 15.1499 25.1799C14.9399 26.4199 14.4999 27.6099 14.4999 28.8899C14.4999 30.1699 15.0699 31.2599 16.3399 30.6699C17.0699 30.2099 17.3099 29.8899 18.1499 28.8899C18.9899 27.8899 20.0499 26.0299 21.8199 25.1799L35.4299 32.5399H38.3399L35.9399 28.4199L25.4299 22.2699V21.5299C26.8799 20.3099 28.3399 19.0899 29.8099 17.8699C28.3499 15.4299 26.8899 12.9899 25.4299 10.5599" fill="#1D1D1B"/>
</g>
</g>
<defs>
<clipPath id="clip0_126_178">
<rect width="39.85" height="33.7" fill="white"/>
</clipPath>
</defs>
</svg>
