<svg width="37" height="37" viewBox="0 0 37 37" fill="none" xmlns="http://www.w3.org/2000/svg">
<g clip-path="url(#clip0_126_65)">
<mask id="mask0_126_65" style="mask-type:luminance" maskUnits="userSpaceOnUse" x="0" y="0" width="37" height="37">
<path d="M36.44 0H0.5V37H36.44V0Z" fill="white"/>
</mask>
<g mask="url(#mask0_126_65)">
<path d="M36.44 1.37C35.71 2 35.08 2.74 34.4 3.42C32.52 5.34 30.66 7.28 28.79 9.2C28.74 9.25 28.7 9.3 28.67 9.34C28.69 9.43 28.76 9.41 28.81 9.41C29.3233 9.42333 29.58 9.68 29.58 10.18C29.58 11.04 29.58 11.91 29.58 12.77C29.58 13.04 29.49 13.11 29.25 13.1C28.29 13.08 27.33 13.1 26.37 13.1C26.09 13.1 25.99 13.15 25.96 13.46C25.66 17.56 25.35 21.67 25.03 25.77C25.01 26.07 25.09 26.27 25.29 26.47C28.29 29.66 31.28 32.87 34.28 36.07C34.47 36.27 34.44 36.36 34.26 36.54C33.79 36.99 33.8 37 33.35 36.52C31.49 34.53 29.63 32.54 27.77 30.55C27.7 30.48 27.65 30.38 27.51 30.34C27.84 31.31 27.82 32.26 27.33 33.17C26.64 34.44 25.55 35.09 24.1 35.02C22.71 34.96 21.72 34.26 21.12 33.02C21 32.78 20.9 32.69 20.62 32.69C18.74 32.71 16.87 32.69 14.99 32.69C14.72 32.69 14.61 32.75 14.63 33.03C14.65 33.51 14.63 33.99 14.63 34.47C14.63 34.68 14.6 34.78 14.35 34.77C13.83 34.75 13.31 34.77 12.79 34.77C12.6 34.77 12.53 34.71 12.54 34.52C12.54 34 12.54 33.48 12.54 32.96C12.54 32.76 12.49 32.67 12.28 32.69C12.02 32.71 11.75 32.69 11.48 32.69C10.91 32.69 10.85 32.63 10.83 32.05C10.78 30.91 10.74 29.77 10.69 28.63C10.69 28.43 10.66 28.24 10.65 28.02C10.17 28.48 9.7 28.91 9.25 29.38C6.88 31.82 4.51 34.27 2.16 36.72C1.93 36.96 1.81 36.92 1.61 36.7C1.21 36.28 1.19 36.28 1.61 35.85C4.48 32.89 7.34 29.92 10.21 26.98C10.51 26.68 10.59 26.38 10.58 25.97C10.46 23.5 10.36 21.01 10.27 18.53C10.17 16.28 10.08 14.02 10 11.77C10 11.56 9.9 11.43 9.77 11.29C7.17 8.5 4.53 5.68 1.91 2.86C1.43 2.36 0.96 1.87 0.5 1.37V0.02C0.64 0.05 0.71 0.18 0.8 0.28C3.72 3.39 6.62 6.52 9.54 9.63C9.65 9.74 9.74 9.89 9.93 9.96C9.91 9.38 9.87 8.83 9.86 8.29C9.86 8.04 9.75 8 9.52 7.99C9.15 7.99 8.66 8.17 8.46 7.91C8.28 7.67 8.44 7.19 8.4 6.82C8.36 6.46 8.49 6.36 8.84 6.39C8.99 6.41 9.22 6.52 9.31 6.25C9.64 5.36 10.35 4.84 11.16 4.48C11.68 4.26 11.97 3.99 11.84 3.4C11.79 3.17 11.91 3.1 12.13 3.11C12.61 3.13 13.09 3.11 13.57 3.11C13.79 3.11 13.96 3.11 13.92 3.41C13.89 3.65 14.07 3.55 14.19 3.54C14.88 3.44 15.56 3.39 16.26 3.42C16.56 3.44 16.69 3.36 16.63 3.06C16.57 2.74 16.73 2.69 17.01 2.7C18.45 2.72 19.89 2.72 21.32 2.7C21.74 2.7 21.9 2.81 21.82 3.22C21.76 3.58 21.9 3.67 22.27 3.68C23.97 3.77 25.59 4.11 26.93 5.28C27.08 5.41 27.14 5.34 27.25 5.25C27.75 4.82 28.41 4.85 28.81 5.32C29.19 5.78 29.12 6.42 28.63 6.84C28.52 6.94 28.45 7.02 28.45 7.17C28.45 7.43 28.58 7.78 28.39 7.93C28.2 8.1 27.85 7.96 27.58 7.99H27.42C26.6867 7.99 26.31 8.36 26.29 9.1V9.3C26.29 9.36 26.32 9.39 26.37 9.41C26.59 9.51 27.26 9.38 27.45 9.19C30.2 6.36 32.94 3.51 35.68 0.68C35.91 0.44 36.1 0.12 36.44 0C36.44 0.47 36.44 0.93 36.44 1.37ZM16.26 31.75C17.64 31.75 19.02 31.75 20.41 31.75C20.69 31.75 20.78 31.7 20.8 31.39C20.91 29.92 21.65 28.79 23.05 28.37C23.84 28.13 24.04 27.78 24.02 27.05C24.02 26.71 23.96 26.46 23.72 26.21C21.93 24.32 20.16 22.42 18.39 20.51C18.16 20.26 18.05 20.29 17.85 20.51C15.84 22.61 13.81 24.7 11.79 26.79C11.64 26.95 11.58 27.1 11.59 27.32C11.65 28.68 11.72 30.05 11.75 31.42C11.75 31.7 11.83 31.77 12.11 31.77C13.5 31.74 14.88 31.75 16.26 31.75ZM21.65 15.18C21.5 15.18 21.45 15.16 21.4 15.16C19.79 15.16 18.18 15.16 16.57 15.16C16.32 15.16 16.21 15.11 16.23 14.84C16.25 14.39 16.25 13.94 16.23 13.48C16.21 13.21 16.32 13.15 16.56 13.15C18.6 13.15 20.63 13.15 22.67 13.15C22.94 13.15 23.07 13.21 23.02 13.49C23.02 13.55 23 13.63 23.02 13.57C23.67 12.91 24.36 12.28 25.05 11.66C25.17 11.55 25.17 11.41 25.18 11.25C25.25 10.27 25.31 9.29 25.4 8.31C25.43 8.01 25.34 7.96 25.06 7.96C20.43 7.96 15.8 7.96 11.17 7.96C10.9 7.96 10.79 8.02 10.81 8.31C10.86 9.13 10.89 9.95 10.92 10.78C10.92 11 11.01 11.17 11.16 11.34C11.83 12.04 12.48 12.75 13.15 13.46C14.74 15.16 16.33 16.85 17.91 18.56C18.09 18.76 18.2 18.76 18.37 18.56C18.66 18.23 18.99 17.91 19.31 17.59C20.08 16.8 20.84 16.01 21.65 15.16M11.52 25.51C11.99 25.07 12.47 24.66 12.91 24.21C14.36 22.73 15.79 21.24 17.24 19.75C17.42 19.57 17.42 19.47 17.24 19.28C15.69 17.64 14.16 15.98 12.62 14.34C12.11 13.8 11.6 13.25 11.09 12.7C11.07 12.71 11.03 12.72 11.01 12.74C11.19 17.01 11.35 21.28 11.53 25.51M25.03 13.14C24.88 13.28 24.8 13.35 24.73 13.42C22.84 15.38 20.94 17.34 19.04 19.29C18.84 19.5 18.87 19.61 19.04 19.8C20.21 21.04 21.36 22.28 22.53 23.52C23.04 24.07 23.56 24.61 24.14 25.24C24.44 21.18 24.74 17.21 25.03 13.14ZM26.52 6.4C26.25 5.83 25.8 5.58 25.33 5.38C24.29 4.91 23.17 4.73 22.05 4.6C21.91 4.58 21.8 4.6 21.83 4.77C21.87 5.05 21.71 5.06 21.5 5.06C20 5.06 18.5 5.04 17 5.06C16.69 5.06 16.59 4.97 16.64 4.68C16.69 4.38 16.56 4.33 16.28 4.35C15.61 4.41 14.93 4.46 14.26 4.56C13.98 4.6 13.91 4.7 13.93 4.97C13.95 5.31 13.96 5.66 13.93 6C13.9 6.34 14.02 6.42 14.34 6.42C17.56 6.4 20.78 6.42 23.99 6.42C24.8 6.42 25.62 6.42 26.52 6.42M24.22 33.29C25.19 33.29 25.97 32.52 25.96 31.55C25.96 30.61 25.18 29.83 24.24 29.82C23.28 29.8 22.48 30.6 22.48 31.56C22.48 32.53 23.25 33.29 24.23 33.29M28.77 11.27V10.52C28.77 10.43 28.77 10.31 28.64 10.32C28.21 10.34 27.73 10.15 27.42 10.65C27.35 10.76 27.24 10.84 27.15 10.94C26.91 11.18 26.7 11.89 26.88 12.13C27.06 12.37 27.37 12.19 27.61 12.23C27.67 12.23 27.74 12.23 27.81 12.23C28.45 12.23 28.77 11.91 28.77 11.27ZM19.24 4.25C19.74 4.25 20.25 4.23 20.76 4.25C21.07 4.27 21.03 4.08 21.02 3.9C21.02 3.74 21.11 3.52 20.78 3.52C19.74 3.54 18.7 3.54 17.67 3.52C17.35 3.52 17.43 3.73 17.43 3.9C17.43 4.08 17.38 4.28 17.68 4.26C18.19 4.23 18.71 4.24 19.23 4.24M11.14 6.4C11.26 6.4 11.38 6.38 11.5 6.4C11.79 6.44 11.88 6.31 11.84 6.04C11.81 5.79 11.94 5.41 11.78 5.33C11.54 5.22 11.3 5.51 11.06 5.65C10.99 5.69 10.93 5.74 10.87 5.79C10.7 5.94 10.45 6.12 10.51 6.32C10.56 6.5 10.86 6.36 11.05 6.39C11.08 6.41 11.11 6.39 11.13 6.39M25.75 28.39C25.45 28.11 25.25 27.81 24.94 27.6C24.78 28.21 24.79 28.21 25.75 28.39Z" fill="black"/>
<path d="M25.3801 31.5802C25.3801 32.2302 24.8901 32.7102 24.2501 32.7102C23.6401 32.7102 23.1301 32.2102 23.1201 31.6002C23.1201 30.9802 23.6301 30.4702 24.2701 30.4702C24.8901 30.4702 25.3701 30.9602 25.3801 31.5802Z" fill="black"/>
</g>
</g>
<defs>
<clipPath id="clip0_126_65">
<rect width="35.94" height="37" fill="white" transform="translate(0.5)"/>
</clipPath>
</defs>
</svg>
