<svg width="40" height="35" viewBox="0 0 40 35" fill="none" xmlns="http://www.w3.org/2000/svg">
<g clip-path="url(#clip0_126_141)">
<mask id="mask0_126_141" style="mask-type:luminance" maskUnits="userSpaceOnUse" x="0" y="0" width="40" height="35">
<path d="M39.69 0H0V34.76H39.69V0Z" fill="white"/>
</mask>
<g mask="url(#mask0_126_141)">
<path fill-rule="evenodd" clip-rule="evenodd" d="M1.58 34.76C0.71 34.76 0 34.06 0 33.19C0 32.86 0.1 32.55 0.28 32.29L18.48 0.77C18.75 0.31 19.26 0 19.84 0C20.49 0 21.05 0.39 21.29 0.96L39.48 32.42C39.61 32.65 39.69 32.91 39.69 33.19C39.69 34.07 38.98 34.77 38.11 34.77H1.58V34.76Z" fill="#FBEA23"/>
<path fill-rule="evenodd" clip-rule="evenodd" d="M38.5203 32.8298C38.6003 32.9198 38.6503 33.0398 38.6503 33.1798C38.6503 33.4698 38.4103 33.6998 38.1303 33.6998H1.58031C1.30031 33.6798 1.07031 33.4398 1.07031 33.1698C1.07031 33.0298 1.12031 32.9098 1.21031 32.8198L19.3603 1.4198C19.4303 1.2098 19.6303 1.0498 19.8603 1.0498C20.0403 1.0498 20.2103 1.1498 20.3003 1.2998L38.5203 32.8298ZM19.8503 5.5398L34.6903 31.1998H5.04031L19.8503 5.5398Z" fill="#1D1D1B"/>
<path d="M38.1303 33.6998C38.4103 33.6998 38.6503 33.4698 38.6503 33.1798C38.6503 33.0398 38.6003 32.9198 38.5203 32.8298L20.3003 1.2998C20.2103 1.1498 20.0403 1.0498 19.8603 1.0498C19.6303 1.0498 19.4303 1.2098 19.3603 1.4198L1.21031 32.8198C1.12031 32.9098 1.07031 33.0298 1.07031 33.1698C1.07031 33.4398 1.30031 33.6798 1.58031 33.6998H38.1303ZM38.1303 33.6998H38.1203M19.8503 5.5398L34.6903 31.1998H5.04031L19.8503 5.5398Z" stroke="#1D1D1B" stroke-width="0.08" stroke-miterlimit="2.61" stroke-linecap="round"/>
<path fill-rule="evenodd" clip-rule="evenodd" d="M12.6797 28.5001H27.1997V29.6001H12.6797V28.5001ZM23.3597 15.6401L24.1797 16.2101C23.2697 17.8401 22.8097 19.4401 24.0497 21.2401C25.2897 23.0401 25.6797 25.4501 24.0897 27.6901L23.2697 27.0301C24.5997 25.2101 24.4497 23.4801 23.2097 21.5501C21.9697 19.6101 22.0897 17.6201 23.3597 15.6501M19.7297 15.6401L20.5497 16.2101C19.6397 17.8401 19.1797 19.4401 20.4197 21.2401C21.6497 23.0401 22.0497 25.4501 20.4597 27.6901L19.6397 27.0301C20.9697 25.2101 20.8197 23.4801 19.5797 21.5501C18.3397 19.6101 18.4597 17.6201 19.7297 15.6501M16.1197 15.6201L16.9197 16.1901C16.0097 17.8201 15.5497 19.4201 16.8097 21.2001C18.0297 23.0201 18.4397 25.4101 16.8497 27.6501L16.0097 27.0001C17.3397 25.1801 17.1897 23.4301 15.9697 21.5001C14.7097 19.5601 14.8297 17.5901 16.1197 15.6201Z" fill="#1D1D1B"/>
</g>
</g>
<defs>
<clipPath id="clip0_126_141">
<rect width="39.69" height="34.76" fill="white"/>
</clipPath>
</defs>
</svg>
