<svg width="41" height="41" viewBox="0 0 41 41" fill="none" xmlns="http://www.w3.org/2000/svg">
<path d="M38.8474 20.4995C38.8474 30.6216 30.6332 38.8331 20.5077 38.8331C10.3822 38.8331 2.16797 30.6216 2.16797 20.4995C2.16797 10.3775 10.3822 2.16602 20.5077 2.16602C30.6332 2.16602 38.8474 10.3775 38.8474 20.4995Z" fill="#1D71B8"/>
<path d="M23.3374 10.0857C23.3374 11.6755 22.0534 12.959 20.4631 12.959C18.8728 12.959 17.5889 11.6755 17.5889 10.0857C17.5889 8.4959 18.8728 7.2124 20.4631 7.2124C22.0534 7.2124 23.3374 8.4959 23.3374 10.0857Z" fill="white"/>
<path d="M15.5322 16.8537L23.2504 14.7534V29.1927C23.2504 30.1699 24.0382 30.9575 25.0158 30.9721H25.5264V32.0514H15.6927V30.9575H16.1888C17.2247 30.9429 18.0709 30.097 18.0709 29.0614V28.5801L18.0563 20.7917V20.4708C18.0563 19.0998 16.9329 17.9913 15.5614 17.9913V16.8828L15.5322 16.8537Z" fill="white"/>
<path d="M40.0139 20.4999C40.0139 31.2637 31.2744 40.0002 20.5069 40.0002C9.73946 40.0002 1 31.2637 1 20.4999C1 9.73602 9.73946 0.999512 20.5069 0.999512C31.2744 0.999512 40.0139 9.73602 40.0139 20.4999Z" stroke="black" stroke-width="0.56" stroke-miterlimit="10"/>
</svg>
