<svg width="63" height="38" viewBox="0 0 63 38" fill="none" xmlns="http://www.w3.org/2000/svg">
<g clip-path="url(#clip0_126_192)">
<path d="M62.86 0H0.5V37.75H62.86V0Z" fill="#FFED00"/>
<mask id="mask0_126_192" style="mask-type:luminance" maskUnits="userSpaceOnUse" x="0" y="0" width="63" height="38">
<path d="M62.86 0H0.5V37.75H62.86V0Z" fill="white"/>
</mask>
<g mask="url(#mask0_126_192)">
<path d="M18.6797 34.4898C17.0097 34.4898 15.3497 34.4898 13.6797 34.4898C11.1797 34.4898 8.67972 34.5198 6.17972 34.5298C5.56972 34.5298 4.94972 34.5298 4.33972 34.5498C3.71972 34.5698 3.29972 34.2298 2.89972 33.8298C2.72972 33.6598 2.75972 32.8398 2.89972 32.5998C3.55972 31.5598 4.21972 30.5198 4.85972 29.4698C5.69972 28.1098 6.52972 26.7498 7.34972 25.3798C7.89972 24.4598 8.41972 23.5198 8.96972 22.5998C9.66972 21.4398 10.3897 20.2898 11.0897 19.1198C11.6397 18.1998 12.1797 17.2698 12.7397 16.3598C13.4297 15.2198 14.1397 14.0798 14.8297 12.9398C15.2497 12.2498 15.6597 11.5498 16.0697 10.8598C16.5897 9.98982 17.0797 9.09982 17.6697 8.26982C18.1697 7.56982 19.3097 7.53982 19.8397 8.41982C20.3497 9.26982 20.8597 10.1198 21.3697 10.9698C21.9897 11.9898 22.6197 13.0098 23.2397 14.0398C23.9097 15.1598 24.5597 16.2798 25.2297 17.3998C25.8997 18.5198 26.5897 19.6198 27.2597 20.7298C27.7897 21.6198 28.2897 22.5198 28.8197 23.4098C29.1597 23.9798 29.5497 24.5298 29.8897 25.0998C30.2697 25.7398 30.6197 26.3998 30.9997 27.0398C31.6397 28.1098 32.2897 29.1798 32.9297 30.2398C33.4097 31.0398 33.9197 31.8198 34.3797 32.6198C34.8397 33.4398 34.1597 34.4598 33.1597 34.4698C31.9897 34.4798 30.8197 34.4698 29.6497 34.4698C26.2597 34.4698 22.8697 34.4698 19.4797 34.4698C19.2097 34.4698 18.9497 34.4998 18.6797 34.5098V34.4598V34.4898ZM30.6797 31.8698L30.7197 31.7498C30.3197 31.0598 29.9397 30.3698 29.5297 29.6898C28.1397 27.3598 26.7297 25.0398 25.3397 22.7198C24.7097 21.6698 24.0897 20.6198 23.4597 19.5698C22.6897 18.2998 21.9097 17.0298 21.1397 15.7598C20.4097 14.5398 19.6997 13.3198 18.9797 12.0998C18.7597 11.7298 18.6397 11.7198 18.4097 12.0998C17.8197 13.0598 17.2397 14.0298 16.6497 14.9898C15.9297 16.1598 15.2197 17.3298 14.5097 18.4998C13.6297 19.9498 12.7597 21.3998 11.8897 22.8598C11.2097 23.9898 10.5297 25.1098 9.85972 26.2398C9.28972 27.1898 8.72972 28.1398 8.15972 29.0898C7.64972 29.9498 7.12972 30.8098 6.60972 31.6598C6.49972 31.8298 6.52972 31.9298 6.73972 31.9398C7.20972 31.9398 7.68972 31.9398 8.15972 31.9398C9.86972 31.9398 11.5697 31.9398 13.2797 31.9398C15.3097 31.9398 17.3297 31.9398 19.3597 31.9398C19.3697 31.9398 19.3797 31.9298 19.3997 31.9098C19.2997 31.8998 19.2097 31.8898 19.0997 31.8798H30.6997L30.6797 31.8698Z" fill="#1D1D1B"/>
<path d="M41.5294 24.79C41.5494 24.6 41.5894 24.51 41.5694 24.43C41.3894 23.54 41.9494 23.14 42.6194 22.81C42.7094 22.77 42.7794 22.65 42.8394 22.56C42.9294 22.41 43.0294 22.25 43.0694 22.07C43.2694 21.29 43.9194 21.21 44.5394 21.1C44.6094 20.89 44.6594 20.67 44.7594 20.48C44.8394 20.35 44.9894 20.25 45.1094 20.14C45.2094 20.05 45.3094 19.97 45.3994 19.88C45.3194 19.81 45.2594 19.72 45.1694 19.66C44.0994 18.99 43.0294 18.33 41.9694 17.64C41.3794 17.26 40.7994 16.84 40.5394 16.13C40.2094 15.19 40.7494 14.42 41.6794 14.26C42.0794 14.19 42.4494 14.26 42.8394 14.3C43.1394 14.33 43.4194 14.45 43.7194 14.53C43.8094 14.55 43.9094 14.57 44.0294 14.6C43.8394 14.21 43.6694 13.86 43.4894 13.52C43.3994 13.36 43.2994 13.29 43.0994 13.42C42.7094 13.67 42.2894 13.88 41.8994 14.13C41.6394 14.3 41.5694 14.19 41.5594 13.95C41.5594 13.48 41.5394 13 41.5594 12.53C41.5694 12.25 41.4594 12.15 41.1894 12.17C40.8294 12.2 40.4794 12.23 40.1194 12.24C39.9594 12.24 39.6994 12.2 39.6594 12.11C39.5994 11.97 39.6594 11.75 39.7394 11.6C39.9094 11.28 40.0994 10.98 40.3194 10.7C40.4994 10.47 40.3994 10.35 40.1994 10.24C39.8694 10.07 39.5294 9.91004 39.1894 9.74004C38.8594 9.57004 38.8394 9.34004 39.1694 9.14004C39.5094 8.93004 39.8394 8.72004 40.1894 8.54004C40.4494 8.40004 40.4194 8.22004 40.3094 8.02004C40.1194 7.69004 39.9094 7.38004 39.7294 7.04004C39.5594 6.74004 39.6194 6.65004 39.9694 6.65004C40.3694 6.65004 40.7794 6.65004 41.1894 6.65004C41.4794 6.66004 41.5894 6.54004 41.5794 6.26004C41.5794 5.82004 41.5694 5.38004 41.5794 4.94004C41.5894 4.56004 41.6594 4.51004 41.9994 4.70004C42.3394 4.89004 42.6794 5.08004 43.0094 5.29004C43.2994 5.48004 43.4294 5.44004 43.5894 5.14004C43.7794 4.78004 43.9994 4.44004 44.1994 4.08004C44.2494 3.99004 44.2794 3.88004 44.3194 3.79004C44.3794 3.81004 44.4494 3.84004 44.5094 3.86004C44.7594 4.32004 44.9994 4.78004 45.2694 5.22004C45.3194 5.31004 45.4794 5.40004 45.5694 5.38004C45.7394 5.34004 45.8994 5.24004 46.0594 5.14004C46.3194 4.99004 46.5694 4.82004 46.8294 4.67004C46.9094 4.62004 47.0394 4.57004 47.0994 4.60004C47.1594 4.64004 47.1894 4.78004 47.1894 4.87004C47.1894 5.40004 47.1894 5.93004 47.1894 6.51004C47.5394 6.53004 47.8594 6.56004 48.1794 6.55004C48.4894 6.55004 48.7994 6.51004 49.1294 6.49004C49.2594 6.99004 48.8994 7.30004 48.7494 7.67004C48.6994 7.80004 48.5794 7.91004 48.4894 8.03004C48.2994 8.29004 48.4194 8.45004 48.7094 8.59004C49.1294 8.78004 49.5094 9.06004 49.8894 9.32004C49.9094 9.34004 49.8794 9.53004 49.8294 9.56004C49.4394 9.77004 49.0394 9.98004 48.6294 10.16C48.3794 10.27 48.3294 10.44 48.4694 10.69C48.7094 11.09 48.9394 11.5 49.1494 11.93C49.2494 12.12 49.0994 12.23 48.9194 12.24C48.6794 12.24 48.4394 12.22 48.1894 12.21C48.0994 12.21 48.0094 12.18 47.9194 12.17C47.2694 12.11 47.1794 12.19 47.1794 12.83C47.1794 13.15 47.1894 13.48 47.1794 13.8C47.1794 14.19 47.0894 14.23 46.7594 14.05C46.3794 13.84 45.9794 13.66 45.6094 13.43C45.4194 13.31 45.3194 13.4 45.2494 13.53C45.0194 13.96 44.7994 14.4 44.6194 14.77C45.1994 15.07 45.7694 15.37 46.3494 15.65C46.8794 15.92 47.4294 16.15 47.9594 16.43C48.5094 16.72 49.0494 17.05 49.5794 17.38C50.2194 17.77 50.8594 18.17 51.5094 18.55C51.6794 18.65 51.8894 18.72 52.0894 18.73C53.0694 18.77 53.7794 19.28 54.2994 20.05C54.7094 20.65 55.0594 21.3 55.4494 21.93C55.6994 22.34 55.9294 22.76 56.2194 23.14C56.3694 23.33 56.6294 23.45 56.8594 23.57C56.9094 23.6 57.0494 23.56 57.0994 23.5C57.2194 23.38 57.3494 23.26 57.4194 23.11C57.5394 22.84 57.7094 22.9 57.8994 23.01C58.6294 23.45 59.3694 23.9 60.0994 24.36C60.4494 24.58 60.7694 24.84 61.1094 25.07C61.2194 25.15 61.3494 25.22 61.4694 25.27C61.7794 25.4 61.8494 25.59 61.6894 25.87C61.1894 26.71 60.6794 27.54 60.1794 28.38C59.2594 29.95 58.3494 31.53 57.4394 33.1C57.3394 33.28 57.2294 33.46 57.1494 33.64C57.0394 33.91 56.8294 33.96 56.5894 33.9C56.4094 33.86 56.2294 33.81 56.0694 33.73C55.6594 33.53 55.2494 33.32 54.8594 33.09C54.7594 33.04 54.6294 32.89 54.6494 32.82C54.7994 32.3 54.3494 32.18 54.0794 31.98C53.7294 31.72 53.3394 31.53 52.9894 31.27C52.8994 31.2 52.8494 30.99 52.8794 30.87C52.9394 30.64 53.0694 30.43 53.1594 30.21C53.2594 29.98 53.2594 29.83 52.9794 29.69C52.5394 29.46 52.0694 29.46 51.5994 29.44C50.8494 29.4 50.0894 29.43 49.3594 29.32C48.4494 29.18 47.5994 28.81 46.8194 28.3C46.5694 28.14 46.3094 27.99 46.0394 27.87C45.9194 27.82 45.7294 27.8 45.6094 27.86C45.2494 28.03 44.9094 27.98 44.5394 27.86C43.2994 27.47 42.5094 26.56 41.8094 25.55C41.6494 25.84 41.4794 26.15 41.3194 26.46C40.9894 27.11 40.0594 27.06 39.6694 26.52C39.2594 25.96 39.0994 25.38 39.3794 24.68C39.5694 24.19 39.5894 23.63 39.6494 23.09C39.6994 22.65 39.9194 22.43 40.3594 22.52C40.4694 22.55 40.5794 22.7 40.6494 22.82C40.7294 22.95 40.7694 23.1 40.8294 23.25C41.0094 23.7 41.1994 24.15 41.3894 24.6C41.4094 24.65 41.4494 24.68 41.5494 24.8M48.3194 26.13C48.3194 26.13 48.2894 26.07 48.2794 26.04C48.2294 26.1 48.1694 26.16 48.1394 26.23C47.9294 26.83 47.4494 26.91 46.9194 26.87C46.8694 26.87 46.8194 26.84 46.7794 26.86C46.7094 26.88 46.6294 26.92 46.5994 26.98C46.5794 27.01 46.6294 27.12 46.6694 27.15C46.9194 27.33 47.1694 27.51 47.4394 27.65C47.8394 27.86 48.2494 28.06 48.6794 28.21C49.6294 28.56 50.6194 28.63 51.6194 28.6C51.7294 28.6 51.8494 28.51 51.9494 28.54C52.4994 28.67 53.0894 28.59 53.5994 28.91C53.6594 28.95 53.8694 28.87 53.9194 28.78C54.2194 28.33 54.4994 27.87 54.7694 27.4C55.2894 26.52 55.7994 25.65 56.3094 24.77C56.4094 24.6 56.3994 24.45 56.1894 24.34C56.0594 24.28 55.9294 24.19 55.8194 24.09C55.2294 23.55 54.8894 22.84 54.5694 22.14C54.2794 21.52 53.9494 20.94 53.4994 20.43C53.3294 20.23 53.1394 20.03 52.9094 19.9C52.2094 19.5 51.4594 19.64 50.7294 19.78C50.1594 19.89 49.6194 20.08 49.0694 20.26C48.5394 20.43 48.0094 20.63 47.4894 20.84C47.4094 20.87 47.3194 21.1 47.3494 21.16C47.5494 21.44 47.7794 21.7 48.0094 21.96C48.2594 22.24 48.6394 22.17 48.9494 22.28C49.4894 22.47 49.9794 22.24 50.4794 22.2C50.9494 22.16 51.4094 22.03 51.8794 21.96C51.9694 21.95 52.1594 22.05 52.1594 22.11C52.1594 22.24 52.1194 22.45 52.0294 22.49C51.6194 22.72 51.1894 22.9 50.7694 23.09C50.6194 23.16 50.4394 23.23 50.5394 23.43C50.7494 23.83 50.9494 24.25 51.2194 24.62C51.8194 25.44 52.7194 25.68 53.6594 25.85C53.7594 25.87 53.8394 25.96 53.9294 26.01C53.8694 26.09 53.8394 26.21 53.7594 26.24C53.0394 26.55 52.3094 26.42 51.6194 26.16C51.2094 26 50.8794 25.65 50.4994 25.38C50.2794 25.69 50.0894 26.12 49.5694 26.13C49.1394 26.13 48.7194 26.13 48.2894 26.12M50.2294 18.89C49.4394 18.42 48.7494 18 48.0494 17.59C47.4494 17.24 46.8694 16.89 46.2494 16.59C45.5294 16.24 44.7894 15.94 44.0494 15.64C43.4894 15.41 42.9394 15.18 42.2994 15.2C41.9094 15.21 41.6294 15.36 41.5494 15.71C41.5094 15.89 41.6494 16.19 41.7994 16.32C42.2994 16.75 42.8294 17.13 43.3594 17.53C44.4594 18.34 45.6594 18.96 46.8894 19.53C47.3194 19.73 47.6594 19.74 48.0594 19.59C48.1594 19.55 48.2494 19.51 48.3494 19.48C48.8894 19.33 49.4394 19.18 49.9894 19.03C50.0594 19.01 50.1294 18.96 50.2394 18.9M57.9594 24.17C57.6994 24.6 57.4394 25.01 57.1994 25.42C56.8194 26.07 56.4394 26.71 56.0594 27.37C55.7194 27.97 55.3894 28.57 55.0494 29.16C54.8494 29.51 54.6194 29.85 54.4094 30.19C54.3194 30.34 54.2894 30.46 54.4794 30.56C54.6894 30.67 54.8994 30.8 55.0994 30.93C55.3094 31.06 55.4894 31.05 55.6294 30.83C55.8694 30.47 56.1194 30.11 56.3494 29.74C56.8494 28.95 57.3494 28.17 57.8494 27.38C58.3494 26.59 58.8394 25.79 59.3394 24.98C58.8794 24.71 58.4394 24.46 57.9694 24.18M46.4694 21.07C46.4894 20.55 46.4294 20.51 46.0594 20.7C45.4094 21.04 45.4094 21.38 45.7494 21.95C46.1794 22.66 46.6794 23.32 47.1994 23.97C47.6394 24.53 48.2094 24.95 48.8394 25.29C49.1494 25.47 49.3594 25.35 49.5694 25.15C49.8594 24.87 50.0294 24.54 49.9294 24.12C49.7994 23.56 49.3994 23.22 48.8794 23.09C48.2594 22.94 47.6794 22.81 47.1494 22.37C46.6694 21.97 46.5994 21.48 46.4794 21.06M44.5194 22.07C44.4094 22.13 44.3194 22.17 44.2594 22.22C43.8594 22.57 43.7594 22.96 44.0694 23.47C44.4894 24.17 44.9094 24.9 45.6394 25.36C45.9594 25.56 46.2794 25.75 46.6194 25.91C46.9294 26.06 47.2694 25.94 47.3994 25.63C47.4294 25.55 47.4094 25.37 47.3694 25.35C46.8194 25.12 46.6294 24.56 46.2694 24.15C45.7794 23.59 45.3894 22.96 44.9394 22.37C44.8394 22.24 44.6794 22.17 44.5294 22.07M42.3994 24.44C42.4694 24.65 42.4794 24.78 42.5394 24.88C42.8594 25.36 43.0594 25.89 43.5794 26.26C44.0394 26.58 44.4594 26.92 44.9994 27.03C45.1794 27.07 45.4394 26.96 45.6094 26.84C45.8194 26.68 45.6094 26.52 45.4994 26.42C45.0494 25.95 44.5694 25.51 44.1294 25.03C43.8594 24.74 43.6194 24.42 43.3994 24.09C43.1994 23.79 43.0394 23.7 42.7594 23.93C42.5894 24.07 42.4994 24.29 42.3794 24.45M44.3594 10.04C44.8194 10.05 45.0694 9.82004 45.0694 9.39004C45.0694 8.94004 44.8594 8.74004 44.3394 8.73004C43.9894 8.73004 43.6894 9.03004 43.6894 9.38004C43.6894 9.79004 43.9394 10.03 44.3694 10.04" fill="#1D1D1B"/>
<path d="M29.6493 7.61002C29.8893 7.72002 30.0893 7.78002 30.2593 7.88002C30.7893 8.19002 31.3193 8.51002 31.8393 8.84002C32.0093 8.95002 32.0993 8.92002 32.1993 8.75002C32.5293 8.14002 32.8593 7.54002 33.1793 6.93002C33.3393 6.63002 33.5393 6.60002 33.7193 6.89002C33.9793 7.32002 34.2093 7.77002 34.4593 8.21002C34.5793 8.42002 34.6993 8.63002 34.8493 8.82002C34.8893 8.87002 35.0293 8.91002 35.0893 8.88002C35.3393 8.76002 35.5693 8.62002 35.8093 8.48002C36.2293 8.22002 36.6393 7.95002 37.0693 7.70002C37.2793 7.58002 37.3293 7.73002 37.3293 7.91002C37.3293 8.56002 37.3293 9.20002 37.3293 9.85002C37.3293 10.31 37.3793 10.37 37.8493 10.36C38.3393 10.36 38.8393 10.29 39.3293 10.29C39.5693 10.29 39.8093 10.37 40.0393 10.44C40.0693 10.45 40.0993 10.63 40.0693 10.69C39.8793 11.02 39.6693 11.35 39.4593 11.68C39.2893 11.95 39.1093 12.21 38.9493 12.49C38.8293 12.68 38.8293 12.83 39.0893 12.95C39.6693 13.24 40.2393 13.57 40.8093 13.88C41.0193 14 41.0293 14.19 40.8793 14.33C40.6693 14.53 40.4393 14.7 40.1893 14.84C39.8293 15.05 39.4493 15.24 39.0593 15.42C38.8393 15.52 38.8193 15.66 38.9293 15.83C39.0693 16.08 39.2493 16.31 39.3893 16.56C39.5993 16.92 39.7893 17.28 39.9793 17.65C40.0993 17.89 40.0093 17.98 39.7393 17.97C39.0693 17.95 38.3993 17.97 37.7293 17.96C37.4293 17.96 37.3193 18.07 37.3293 18.37C37.3493 18.95 37.3393 19.53 37.3393 20.1C37.3393 20.31 37.3393 20.51 37.3393 20.78C37.1193 20.7 36.9593 20.67 36.8293 20.59C36.2793 20.26 35.7293 19.93 35.1993 19.58C34.9893 19.44 34.8593 19.49 34.7493 19.67C34.5393 20.02 34.3493 20.37 34.1493 20.72C33.9993 20.99 33.8593 21.27 33.6893 21.53C33.5593 21.73 33.3693 21.71 33.2293 21.46C32.9693 21 32.7293 20.54 32.4693 20.08C32.0693 19.36 32.0493 19.36 31.3493 19.81C30.9493 20.06 30.5593 20.31 30.1493 20.53C29.7693 20.74 29.6593 20.66 29.6693 20.23C29.6693 19.61 29.6693 18.98 29.6893 18.36C29.6893 18.07 29.6093 17.94 29.2893 17.95C28.6693 17.98 28.0393 17.97 27.4193 17.98C26.9893 17.99 26.8893 17.84 27.1093 17.46C27.4193 16.92 27.7493 16.4 28.0793 15.87C28.2093 15.65 28.1793 15.54 27.9393 15.42C27.3593 15.13 26.7893 14.8 26.2293 14.47C26.1293 14.41 26.0393 14.27 26.0293 14.16C26.0293 14.07 26.1393 13.94 26.2293 13.89C26.8193 13.56 27.4093 13.24 28.0093 12.93C28.2193 12.82 28.2293 12.68 28.1193 12.51C27.8093 12 27.5093 11.48 27.1893 10.98C26.9193 10.55 26.9393 10.44 27.4293 10.41C28.0393 10.37 28.6593 10.39 29.2693 10.41C29.5793 10.42 29.7093 10.35 29.6993 10.01C29.6793 9.24002 29.6993 8.47002 29.6993 7.61002M34.4593 14.23C34.4593 13.71 33.9593 13.19 33.4293 13.22C32.8993 13.26 32.4293 13.63 32.4093 14.22C32.3893 14.77 32.8793 15.25 33.4493 15.27C33.9293 15.28 34.4593 14.74 34.4493 14.23" fill="#1D1D1B"/>
<path d="M42.0399 30.4399C42.0199 31.0899 41.8899 31.1999 41.3799 31.1499C40.9599 31.1099 40.5299 31.0599 40.1099 31.0099C39.5699 30.9499 39.2799 30.5099 39.3999 29.9699C39.4999 29.5599 39.5399 29.1299 39.6499 28.7199C39.7599 28.2899 39.9199 27.8699 40.0899 27.4599C40.1699 27.2599 40.6699 27.3999 40.7999 27.6499C41.1499 28.3299 41.5199 28.9899 41.8499 29.6799C41.9799 29.9499 42.0099 30.2699 42.0499 30.4299" fill="#1D1D1B"/>
<path d="M40.7097 21.1598C40.6797 20.2198 40.9097 19.3598 41.1297 18.4998C41.1497 18.4298 41.2497 18.3498 41.2697 18.3698C41.4097 18.5398 41.5797 18.6898 41.6497 18.9198C41.8297 19.5398 41.9797 20.1998 42.1197 20.8598C42.1697 21.0898 42.1497 21.3598 42.1497 21.5998C42.1497 21.6698 42.0797 21.7598 42.0297 21.7898C41.7797 21.9498 41.5297 22.0798 41.2797 22.2398C40.9597 22.4498 40.7097 22.1698 40.7097 21.5898C40.7097 21.4498 40.7097 21.3098 40.7097 21.1398" fill="#1D1D1B"/>
<path d="M18.6699 27.4398C18.3699 27.4398 18.0699 27.4298 17.7699 27.4398C17.4599 27.4598 17.3399 27.3098 17.3199 27.0198C17.2599 26.1798 17.1899 25.3398 17.1299 24.4998C17.0399 23.2998 16.9399 22.1098 16.8499 20.9098C16.8199 20.5598 16.8099 20.2198 16.7899 19.8698C16.7399 19.0698 16.6399 18.2598 16.6299 17.4598C16.6299 16.3298 17.0099 15.8898 18.0999 15.5498C18.8599 15.3098 19.5199 15.4198 20.1199 15.9398C20.3699 16.1498 20.5299 16.4198 20.5499 16.7698C20.6499 18.2198 20.5099 19.6598 20.3899 21.0998C20.3199 21.8898 20.2999 22.6898 20.2499 23.4798C20.1899 24.4698 20.1399 25.4598 20.0799 26.4498C20.0599 26.7198 20.0199 26.9998 19.9399 27.2598C19.9099 27.3598 19.7599 27.4698 19.6599 27.4798C19.3399 27.5098 19.0099 27.4898 18.6899 27.4898V27.4498L18.6699 27.4398Z" fill="#1D1D1B"/>
<path d="M20.3895 29.8201C20.3895 30.0901 20.3895 30.3501 20.3895 30.6201C20.4095 31.0701 20.1695 31.4001 19.7595 31.4401C19.0595 31.5101 18.3395 31.4801 17.6395 31.4601C17.3095 31.4501 17.0995 31.1601 17.0795 30.8801C17.0295 30.1801 17.0095 29.4701 17.0795 28.7801C17.1195 28.3301 17.5095 28.1001 18.0795 28.0701C18.5695 28.0501 19.0695 28.0701 19.5695 28.1001C20.0795 28.1401 20.3795 28.4801 20.3895 28.9901C20.3895 29.2701 20.3895 29.5401 20.3895 29.8201Z" fill="#1D1D1B"/>
</g>
</g>
<defs>
<clipPath id="clip0_126_192">
<rect width="62.36" height="37.75" fill="white" transform="translate(0.5)"/>
</clipPath>
</defs>
</svg>
