<svg width="40" height="35" viewBox="0 0 40 35" fill="none" xmlns="http://www.w3.org/2000/svg">
<g clip-path="url(#clip0_139_2)">
<mask id="mask0_139_2" style="mask-type:luminance" maskUnits="userSpaceOnUse" x="0" y="0" width="40" height="35">
<path d="M39.85 0H0V34.91H39.85V0Z" fill="white"/>
</mask>
<g mask="url(#mask0_139_2)">
<path fill-rule="evenodd" clip-rule="evenodd" d="M1.58977 34.91C0.719766 34.91 0.00976562 34.2 0.00976562 33.33C0.00976562 33 0.109766 32.68 0.289766 32.43L18.5598 0.78C18.8298 0.31 19.3398 0 19.9198 0C20.5698 0 21.1298 0.4 21.3698 0.96L39.6398 32.55C39.7698 32.78 39.8498 33.04 39.8498 33.32C39.8498 34.2 39.1298 34.9 38.2698 34.9H1.58977V34.91Z" fill="#FBEA23"/>
<path fill-rule="evenodd" clip-rule="evenodd" d="M38.6793 32.9701C38.7693 33.0601 38.8093 33.1801 38.8093 33.3201C38.8093 33.6101 38.5693 33.8501 38.2793 33.8501H1.57934C1.29934 33.8301 1.06934 33.5901 1.06934 33.3101C1.06934 33.1701 1.11934 33.0501 1.20934 32.9601L19.4393 1.43006C19.5093 1.22006 19.7093 1.06006 19.9393 1.06006C20.1193 1.06006 20.2893 1.16006 20.3793 1.31006L38.6693 32.9701H38.6793ZM19.9293 5.56006L34.8293 31.3301H5.05934L19.9293 5.56006Z" fill="#1D1D1B"/>
<path d="M38.2793 33.8501C38.5693 33.8501 38.8093 33.6101 38.8093 33.3201C38.8093 33.1801 38.7693 33.0601 38.6793 32.9701H38.6693L20.3793 1.31006C20.2893 1.16006 20.1193 1.06006 19.9393 1.06006C19.7093 1.06006 19.5093 1.22006 19.4393 1.43006L1.20934 32.9601C1.11934 33.0501 1.06934 33.1701 1.06934 33.3101C1.06934 33.5901 1.29934 33.8301 1.57934 33.8501H38.2793ZM38.2793 33.8501H38.2693M19.9293 5.56006L34.8293 31.3301H5.05934L19.9293 5.56006Z" stroke="#1D1D1B" stroke-width="0.08" stroke-miterlimit="2.61" stroke-linecap="round"/>
<path fill-rule="evenodd" clip-rule="evenodd" d="M18.8393 11.6899L15.5693 22.5199L20.3193 19.9699L19.1793 27.2299L18.2293 25.9899L19.0593 30.5399L21.6693 26.7999L20.3193 27.3899L23.1793 17.2699L18.1193 19.9699L21.9593 11.7499L18.8393 11.6899Z" fill="#1D1D1B"/>
<path d="M18.8393 11.6899L15.5693 22.5199L20.3193 19.9699L19.1793 27.2299L18.2293 25.9899L19.0593 30.5399L21.6693 26.7999L20.3193 27.3899L23.1793 17.2699L18.1193 19.9699L21.9593 11.7499L18.8393 11.6899Z" stroke="#1D1D1B" stroke-width="0.08" stroke-miterlimit="2.61" stroke-linecap="round"/>
</g>
</g>
<defs>
<clipPath id="clip0_139_2">
<rect width="39.85" height="34.91" fill="white"/>
</clipPath>
</defs>
</svg>
