<svg width="40" height="35" viewBox="0 0 40 35" fill="none" xmlns="http://www.w3.org/2000/svg">
<g clip-path="url(#clip0_126_37)">
<mask id="mask0_126_37" style="mask-type:luminance" maskUnits="userSpaceOnUse" x="0" y="0" width="40" height="35">
<path d="M39.85 0.830078H0V34.5301H39.85V0.830078Z" fill="white"/>
</mask>
<g mask="url(#mask0_126_37)">
<path d="M21.8799 2.45025C21.6999 2.08025 21.3999 1.76024 21.0199 1.53024C20.3199 1.12024 19.4899 1.15024 18.8299 1.53024C18.5099 1.71024 18.2299 1.98024 18.0399 2.32024L0.649922 32.4502C0.499922 32.7102 0.419922 33.0102 0.419922 33.3202C0.419922 34.2802 1.19992 35.0602 2.15992 35.0602H37.6899C38.6499 35.0602 39.4299 34.2802 39.4299 33.3202C39.4299 33.0002 39.3499 32.7002 39.1999 32.4502L21.8799 2.45025Z" fill="#0B1205"/>
<path d="M21.8799 2.45025C21.6999 2.08025 21.3999 1.76024 21.0199 1.53024C20.3199 1.12024 19.4899 1.15024 18.8299 1.53024C18.5099 1.71024 18.2299 1.98024 18.0399 2.32024L0.649922 32.4502C0.499922 32.7102 0.419922 33.0102 0.419922 33.3202C0.419922 34.2802 1.19992 35.0602 2.15992 35.0602H37.6899C38.6499 35.0602 39.4299 34.2802 39.4299 33.3202C39.4299 33.0002 39.3499 32.7002 39.1999 32.4502L21.8799 2.45025Z" stroke="#FBEA23" stroke-width="0.83"/>
<path fill-rule="evenodd" clip-rule="evenodd" d="M2.91016 32.8902L19.9202 3.43018L36.9402 32.8902H2.91016Z" fill="#FDEB1A"/>
<path fill-rule="evenodd" clip-rule="evenodd" d="M19.9301 30.5804C18.9101 30.5804 18.0801 29.7504 18.0801 28.7304C18.0801 27.7104 18.9101 26.8804 19.9301 26.8804C20.9501 26.8804 21.7801 27.7104 21.7801 28.7304C21.7801 29.7504 20.9501 30.5804 19.9301 30.5804Z" fill="#0B1205"/>
<path fill-rule="evenodd" clip-rule="evenodd" d="M19.9295 25.8904C19.3195 25.8904 18.8195 25.4404 18.7395 24.8604L17.2695 14.7704C17.2495 14.6204 17.2295 14.4704 17.2295 14.3104C17.2295 12.8204 18.4395 11.6104 19.9295 11.6104C21.4195 11.6104 22.6295 12.8204 22.6295 14.3104C22.6295 14.4404 22.6195 14.5804 22.5995 14.7104L21.1295 24.7803C21.0795 25.4003 20.5595 25.8803 19.9295 25.8803" fill="#0B1205"/>
</g>
</g>
<defs>
<clipPath id="clip0_126_37">
<rect width="40" height="35" fill="white"/>
</clipPath>
</defs>
</svg>
